<svg width="903.54" height="807.3749004725813" viewBox="0 0 903.54 807.3749004725813" class="keymap" xmlns="http://www.w3.org/2000/svg" xmlns:xlink="http://www.w3.org/1999/xlink">
<style>svg {
    background-color: #181A1B;
}
/* inherit to force styles through use tags*/
svg path {
    fill: inherit;
}
/* font and background color specifications */
svg.keymap {
    font-family: JetBrainsMono NFM,SFMono-Regular,Consolas,Liberation Mono,Menlo,monospace;
    font-size: 16px;
    font-weight: bold;
    fill: #1F1F28;
}

/* default key styling */
rect.key {
    fill: #DCD7BA;
    stroke: #1F1F28;
    stroke-width: 0;
}

/* color accent for combo boxes */
rect.combo {
    fill: #7FB4CA;
}

/* color accent for held keys */
rect.held, rect.combo.held {
    fill: #76946A;
}

text {
    text-anchor: middle;
    dominant-baseline: middle;
    font-weight: bold;
    fill: #1F1F28;
}

/* styling for layer labels */
text.label {
    font-weight: bold;
    font-size: 24px;
    text-anchor: start;
    stroke: #938AA9;
    stroke-width: 4;
    paint-order: stroke;
}

/* styling for combo tap, and key hold/shifted label text */
text.combo, text.hold, text.shifted {
    font-size: 11px;
}

text.hold {
    text-anchor: middle;
    dominant-baseline: auto;
    fill: #C34043;
}

text.shifted {
    text-anchor: middle;
    dominant-baseline: hanging;
}

/* styling for hold/shifted label text in combo box */
text.combo.hold, text.combo.shifted {
    font-size: 8px;
}

/* styling for combo dendrons */
path.combo {
    stroke-width: 2;
    stroke: #7FB4CA;
    fill: none;
}
</style>
<g class="layer-BASE">
<text x="30.0" y="28.0" class="label">BASE</text>
<rect rx="6.0" ry="6.0" x="31.999999999999996" y="121.53999999999999" width="59.54" height="56.0" class="key"/>
<text x="61.769999999999996" y="149.54" class="tap">Q</text>
<rect rx="6.0" ry="6.0" x="95.53999999999999" y="79.18" width="59.54" height="56.0" class="key"/>
<text x="125.30999999999999" y="107.18" class="tap">W</text>
<rect rx="6.0" ry="6.0" x="159.07999999999998" y="58.0" width="59.54" height="56.0" class="key"/>
<text x="188.85" y="86.0" class="tap">F</text>
<rect rx="6.0" ry="6.0" x="222.62" y="81.34" width="59.54" height="56.0" class="key"/>
<text x="252.39000000000001" y="109.34" class="tap">P</text>
<rect rx="6.0" ry="6.0" x="286.15999999999997" y="89.74" width="59.54" height="56.0" class="key"/>
<text x="315.92999999999995" y="117.74" class="tap">B</text>
<rect rx="6.0" ry="6.0" x="557.84" y="89.74" width="59.54" height="56.0" class="key"/>
<text x="587.61" y="117.74" class="tap">J</text>
<rect rx="6.0" ry="6.0" x="621.3800000000001" y="81.34" width="59.54" height="56.0" class="key"/>
<text x="651.1500000000001" y="109.34" class="tap">L</text>
<rect rx="6.0" ry="6.0" x="684.9200000000001" y="58.0" width="59.54" height="56.0" class="key"/>
<text x="714.69" y="86.0" class="tap">U</text>
<rect rx="6.0" ry="6.0" x="748.46" y="79.18" width="59.54" height="56.0" class="key"/>
<text x="778.23" y="107.18" class="tap">Y</text>
<rect rx="6.0" ry="6.0" x="812.0" y="121.53999999999999" width="59.54" height="56.0" class="key"/>
<text x="841.77" y="149.54" class="tap">&#x27;</text>
<rect rx="6.0" ry="6.0" x="31.999999999999996" y="181.54000000000002" width="59.54" height="56.0" class="key"/>
<text x="61.769999999999996" y="209.54000000000002" class="tap">A</text>
<text x="61.769999999999996" y="232.54000000000002" class="hold">Meta</text>
<rect rx="6.0" ry="6.0" x="95.53999999999999" y="139.18" width="59.54" height="56.0" class="key"/>
<text x="125.30999999999999" y="167.18" class="tap">R</text>
<text x="125.30999999999999" y="190.18" class="hold">Alt</text>
<rect rx="6.0" ry="6.0" x="159.07999999999998" y="118.0" width="59.54" height="56.0" class="key"/>
<text x="188.85" y="146.0" class="tap">S</text>
<text x="188.85" y="169.0" class="hold">Ctrl</text>
<rect rx="6.0" ry="6.0" x="222.62" y="141.34" width="59.54" height="56.0" class="key"/>
<text x="252.39000000000001" y="169.34" class="tap">T</text>
<text x="252.39000000000001" y="192.34" class="hold">Shift</text>
<rect rx="6.0" ry="6.0" x="286.15999999999997" y="149.74" width="59.54" height="56.0" class="key"/>
<text x="315.92999999999995" y="177.74" class="tap">G</text>
<rect rx="6.0" ry="6.0" x="557.84" y="149.74" width="59.54" height="56.0" class="key"/>
<text x="587.61" y="177.74" class="tap">M</text>
<rect rx="6.0" ry="6.0" x="621.3800000000001" y="141.34" width="59.54" height="56.0" class="key"/>
<text x="651.1500000000001" y="169.34" class="tap">N</text>
<text x="651.1500000000001" y="192.34" class="hold">Shift</text>
<rect rx="6.0" ry="6.0" x="684.9200000000001" y="118.0" width="59.54" height="56.0" class="key"/>
<text x="714.69" y="146.0" class="tap">E</text>
<text x="714.69" y="169.0" class="hold">Ctrl</text>
<rect rx="6.0" ry="6.0" x="748.46" y="139.18" width="59.54" height="56.0" class="key"/>
<text x="778.23" y="167.18" class="tap">I</text>
<text x="778.23" y="190.18" class="hold">Alt</text>
<rect rx="6.0" ry="6.0" x="812.0" y="181.54000000000002" width="59.54" height="56.0" class="key"/>
<text x="841.77" y="209.54000000000002" class="tap">O</text>
<text x="841.77" y="232.54000000000002" class="hold">Meta</text>
<rect rx="6.0" ry="6.0" x="31.999999999999996" y="241.54000000000002" width="59.54" height="56.0" class="key"/>
<text x="61.769999999999996" y="269.54" class="tap">Z</text>
<rect rx="6.0" ry="6.0" x="95.53999999999999" y="199.18" width="59.54" height="56.0" class="key"/>
<text x="125.30999999999999" y="227.18" class="tap">X</text>
<rect rx="6.0" ry="6.0" x="159.07999999999998" y="178.0" width="59.54" height="56.0" class="key"/>
<text x="188.85" y="206.0" class="tap">C</text>
<rect rx="6.0" ry="6.0" x="222.62" y="201.4" width="59.54" height="56.0" class="key"/>
<text x="252.39000000000001" y="229.4" class="tap">D</text>
<rect rx="6.0" ry="6.0" x="286.15999999999997" y="209.74" width="59.54" height="56.0" class="key"/>
<text x="315.92999999999995" y="237.74" class="tap">V</text>
<rect rx="6.0" ry="6.0" x="557.84" y="209.74" width="59.54" height="56.0" class="key"/>
<text x="587.61" y="237.74" class="tap">K</text>
<rect rx="6.0" ry="6.0" x="621.3800000000001" y="201.4" width="59.54" height="56.0" class="key"/>
<text x="651.1500000000001" y="229.4" class="tap">H</text>
<rect rx="6.0" ry="6.0" x="684.9200000000001" y="178.0" width="59.54" height="56.0" class="key"/>
<text x="714.69" y="206.0" class="tap">,</text>
<rect rx="6.0" ry="6.0" x="748.46" y="199.18" width="59.54" height="56.0" class="key"/>
<text x="778.23" y="227.18" class="tap">.</text>
<rect rx="6.0" ry="6.0" x="812.0" y="241.54000000000002" width="59.54" height="56.0" class="key"/>
<text x="841.77" y="269.54" class="tap">/</text>
<rect rx="6.0" ry="6.0" x="201.74" y="271.84000000000003" width="59.54" height="56.0" class="key"/>
<text x="231.51000000000002" y="299.84000000000003" class="tap">⌦</text>
<g transform="rotate(15.0, 302.31102222521133, 308.95223542864693)">
<rect rx="6.0" ry="6.0" x="272.54102222521135" y="280.95223542864693" width="59.54" height="56.0" class="key"/>
<text x="302.31102222521133" y="308.95223542864693" class="tap">⌫</text>
<text x="302.31102222521133" y="331.95223542864693" class="hold">NUM</text>
</g>
<g transform="rotate(30.0, 373.49311579741504, 319.43)">
<rect rx="6.0" ry="6.0" x="345.49311579741504" y="273.79" width="56.0" height="91.28" class="key"/>
<text x="373.49311579741504" y="319.43" class="tap">⏎</text>
</g>
<g transform="rotate(-30.0, 526.506884202585, 319.43)">
<rect rx="6.0" ry="6.0" x="498.50688420258496" y="273.79" width="56.0" height="91.28" class="key"/>
<text x="526.506884202585" y="319.43" class="tap">⭾</text>
</g>
<g transform="rotate(-15.0, 601.108355199852, 308.036016008984)">
<rect rx="6.0" ry="6.0" x="571.338355199852" y="280.036016008984" width="59.54" height="56.0" class="key"/>
<text x="601.108355199852" y="308.036016008984" class="tap">‿</text>
</g>
<rect rx="6.0" ry="6.0" x="642.26" y="271.84000000000003" width="59.54" height="56.0" class="key"/>
<text x="672.03" y="299.84000000000003" class="tap">ESC</text>
</g>
<g class="layer-NUM">
<text x="30.0" y="403.68745023629066" class="label">NUM</text>
<rect rx="6.0" ry="6.0" x="31.999999999999996" y="497.2274502362907" width="59.54" height="56.0" class="key"/>
<rect rx="6.0" ry="6.0" x="95.53999999999999" y="454.86745023629067" width="59.54" height="56.0" class="key"/>
<rect rx="6.0" ry="6.0" x="159.07999999999998" y="433.68745023629066" width="59.54" height="56.0" class="key"/>
<rect rx="6.0" ry="6.0" x="222.62" y="457.02745023629063" width="59.54" height="56.0" class="key"/>
<rect rx="6.0" ry="6.0" x="286.15999999999997" y="465.42745023629067" width="59.54" height="56.0" class="key"/>
<rect rx="6.0" ry="6.0" x="557.84" y="465.42745023629067" width="59.54" height="56.0" class="key"/>
<rect rx="6.0" ry="6.0" x="621.3800000000001" y="457.02745023629063" width="59.54" height="56.0" class="key"/>
<text x="651.1500000000001" y="485.02745023629063" class="tap">7</text>
<rect rx="6.0" ry="6.0" x="684.9200000000001" y="433.68745023629066" width="59.54" height="56.0" class="key"/>
<text x="714.69" y="461.68745023629066" class="tap">8</text>
<rect rx="6.0" ry="6.0" x="748.46" y="454.86745023629067" width="59.54" height="56.0" class="key"/>
<text x="778.23" y="482.86745023629067" class="tap">9</text>
<rect rx="6.0" ry="6.0" x="812.0" y="497.2274502362907" width="59.54" height="56.0" class="key"/>
<rect rx="6.0" ry="6.0" x="31.999999999999996" y="557.2274502362907" width="59.54" height="56.0" class="key"/>
<text x="61.769999999999996" y="585.2274502362907" class="tap">Meta</text>
<rect rx="6.0" ry="6.0" x="95.53999999999999" y="514.8674502362907" width="59.54" height="56.0" class="key"/>
<text x="125.30999999999999" y="542.8674502362907" class="tap">Alt</text>
<rect rx="6.0" ry="6.0" x="159.07999999999998" y="493.6874502362907" width="59.54" height="56.0" class="key"/>
<text x="188.85" y="521.6874502362907" class="tap">Ctrl</text>
<rect rx="6.0" ry="6.0" x="222.62" y="517.0274502362906" width="59.54" height="56.0" class="key"/>
<text x="252.39000000000001" y="545.0274502362906" class="tap">Shift</text>
<rect rx="6.0" ry="6.0" x="286.15999999999997" y="525.4274502362906" width="59.54" height="56.0" class="key"/>
<rect rx="6.0" ry="6.0" x="557.84" y="525.4274502362906" width="59.54" height="56.0" class="key"/>
<text x="587.61" y="553.4274502362906" class="tap">0</text>
<rect rx="6.0" ry="6.0" x="621.3800000000001" y="517.0274502362906" width="59.54" height="56.0" class="key"/>
<text x="651.1500000000001" y="545.0274502362906" class="tap">4</text>
<rect rx="6.0" ry="6.0" x="684.9200000000001" y="493.6874502362907" width="59.54" height="56.0" class="key"/>
<text x="714.69" y="521.6874502362907" class="tap">5</text>
<rect rx="6.0" ry="6.0" x="748.46" y="514.8674502362907" width="59.54" height="56.0" class="key"/>
<text x="778.23" y="542.8674502362907" class="tap">6</text>
<rect rx="6.0" ry="6.0" x="812.0" y="557.2274502362907" width="59.54" height="56.0" class="key"/>
<rect rx="6.0" ry="6.0" x="31.999999999999996" y="617.2274502362907" width="59.54" height="56.0" class="key"/>
<rect rx="6.0" ry="6.0" x="95.53999999999999" y="574.8674502362907" width="59.54" height="56.0" class="key"/>
<rect rx="6.0" ry="6.0" x="159.07999999999998" y="553.6874502362907" width="59.54" height="56.0" class="key"/>
<rect rx="6.0" ry="6.0" x="222.62" y="577.0874502362907" width="59.54" height="56.0" class="key"/>
<rect rx="6.0" ry="6.0" x="286.15999999999997" y="585.4274502362907" width="59.54" height="56.0" class="key"/>
<rect rx="6.0" ry="6.0" x="557.84" y="585.4274502362907" width="59.54" height="56.0" class="key"/>
<rect rx="6.0" ry="6.0" x="621.3800000000001" y="577.0874502362907" width="59.54" height="56.0" class="key"/>
<text x="651.1500000000001" y="605.0874502362907" class="tap">1</text>
<rect rx="6.0" ry="6.0" x="684.9200000000001" y="553.6874502362907" width="59.54" height="56.0" class="key"/>
<text x="714.69" y="581.6874502362907" class="tap">2</text>
<rect rx="6.0" ry="6.0" x="748.46" y="574.8674502362907" width="59.54" height="56.0" class="key"/>
<text x="778.23" y="602.8674502362907" class="tap">3</text>
<rect rx="6.0" ry="6.0" x="812.0" y="617.2274502362907" width="59.54" height="56.0" class="key"/>
<rect rx="6.0" ry="6.0" x="201.74" y="647.5274502362906" width="59.54" height="56.0" class="key"/>
<g transform="rotate(15.0, 302.31102222521133, 684.6396856649376)">
<rect rx="6.0" ry="6.0" x="272.54102222521135" y="656.6396856649376" width="59.54" height="56.0" class="held key"/>
</g>
<g transform="rotate(30.0, 373.49311579741504, 695.1174502362907)">
<rect rx="6.0" ry="6.0" x="345.49311579741504" y="649.4774502362907" width="56.0" height="91.28" class="key"/>
</g>
<g transform="rotate(-30.0, 526.506884202585, 695.1174502362907)">
<rect rx="6.0" ry="6.0" x="498.50688420258496" y="649.4774502362907" width="56.0" height="91.28" class="key"/>
</g>
<g transform="rotate(-15.0, 601.108355199852, 683.7234662452747)">
<rect rx="6.0" ry="6.0" x="571.338355199852" y="655.7234662452747" width="59.54" height="56.0" class="key"/>
</g>
<rect rx="6.0" ry="6.0" x="642.26" y="647.5274502362906" width="59.54" height="56.0" class="key"/>
</g>
</svg>
