<svg width="1044.13" height="913.9373838846783" viewBox="0 0 1044.13 913.9373838846783" class="keymap" xmlns="http://www.w3.org/2000/svg" xmlns:xlink="http://www.w3.org/1999/xlink">
<defs>/* start glyphs */
<svg id="bluetooth_clear">
<svg viewBox="0 0 17.368 21.632" xmlns="http://www.w3.org/2000/svg"><path d="M 17.368 17.966 L 1.534 2.132 L 0 3.666 L 7.15 10.816 L 1.118 16.848 L 2.652 18.382 L 7.618 13.416 L 7.618 21.632 L 8.684 21.632 L 13.364 17.004 L 15.834 19.5 L 17.368 17.966 Z M 9.75 7.618 L 9.75 4.108 L 11.778 6.136 L 10.062 7.93 L 11.57 9.438 L 14.872 6.136 L 8.684 0 L 7.618 0 L 7.618 5.434 L 9.75 7.618 Z M 11.778 15.496 L 9.75 17.524 L 9.75 13.416 L 11.778 15.496 Z"/></svg>
</svg>
<svg id="led_on">
<svg viewBox="0 0 21.632 24.96" xmlns="http://www.w3.org/2000/svg"><path d="M 6.5 10.816 L 6.5 17.316 L 4.316 17.316 L 4.316 19.5 L 7.566 19.5 L 7.566 24.96 L 9.75 24.96 L 9.75 19.5 L 11.882 19.5 L 11.882 24.96 L 14.066 24.96 L 14.066 19.5 L 17.316 19.5 L 17.316 17.316 L 15.132 17.316 L 15.132 10.816 A 4.145 4.145 0 0 0 13.898 7.814 A 5.157 5.157 0 0 0 13.858 7.774 A 4.276 4.276 0 0 0 12.22 6.727 A 4.279 4.279 0 0 0 10.816 6.5 A 4.145 4.145 0 0 0 7.814 7.734 A 5.157 5.157 0 0 0 7.774 7.774 A 4.276 4.276 0 0 0 6.727 9.412 A 4.279 4.279 0 0 0 6.5 10.816 Z M 19.136 4.004 L 17.628 2.496 L 14.326 5.772 L 15.834 7.28 L 19.136 4.004 Z M 7.254 5.772 L 4.004 2.496 L 2.496 4.004 L 5.746 7.28 L 7.254 5.772 Z M 4.316 9.776 L 0 9.776 L 0 11.96 L 4.316 11.96 L 4.316 9.776 Z M 21.632 9.776 L 17.316 9.776 L 17.316 11.96 L 21.632 11.96 L 21.632 9.776 Z M 11.882 0 L 9.75 0 L 9.75 4.316 L 11.882 4.316 L 11.882 0 Z"/></svg>
</svg>
<svg id="bluetooth_1">
<svg viewBox="0 0 28.782 21.632" xmlns="http://www.w3.org/2000/svg"><path d="M 9.1 10.816 L 13.728 6.136 L 7.54 0 L 6.5 0 L 6.5 8.164 L 1.508 3.25 L 0 4.784 L 6.032 10.816 L 0 16.848 L 1.508 18.382 L 6.5 13.416 L 6.5 21.632 L 7.54 21.632 L 13.728 15.496 L 9.1 10.816 Z M 28.782 20.176 L 16.978 20.176 L 16.978 17.836 L 22.048 17.836 L 22.048 3.51 L 16.952 7.306 L 16.952 4.394 L 21.268 1.196 L 24.622 1.196 L 24.622 17.836 L 28.782 17.836 L 28.782 20.176 Z M 8.632 13.416 L 10.66 15.496 L 8.632 17.524 L 8.632 13.416 Z M 8.632 8.164 L 8.632 4.108 L 10.66 6.136 L 8.632 8.164 Z"/></svg>
</svg>
<svg id="bluetooth_2">
<svg viewBox="0 0 28.444 21.632" xmlns="http://www.w3.org/2000/svg"><path d="M 28.444 20.176 L 16.822 20.176 L 16.822 17.81 L 23.27 10.998 A 14.777 14.777 0 0 0 24.044 10.13 Q 24.701 9.327 25.051 8.619 A 5.379 5.379 0 0 0 25.451 7.55 A 4.291 4.291 0 0 0 25.584 6.5 A 4.161 4.161 0 0 0 25.463 5.471 A 2.98 2.98 0 0 0 24.726 4.121 A 2.847 2.847 0 0 0 23.103 3.28 A 4.081 4.081 0 0 0 22.412 3.224 A 4.041 4.041 0 0 0 21.389 3.347 A 2.885 2.885 0 0 0 20.02 4.134 A 3.032 3.032 0 0 0 19.24 5.608 A 4.488 4.488 0 0 0 19.136 6.604 L 16.562 6.604 A 7.011 7.011 0 0 1 16.819 4.804 A 5.138 5.138 0 0 1 18.213 2.47 A 5.41 5.41 0 0 1 21.101 1.044 A 7.617 7.617 0 0 1 22.412 0.936 Q 25.064 0.936 26.637 2.444 A 5.02 5.02 0 0 1 28.132 5.401 A 7.112 7.112 0 0 1 28.21 6.474 A 5.847 5.847 0 0 1 27.953 8.152 A 7.894 7.894 0 0 1 27.482 9.347 A 9.019 9.019 0 0 1 26.793 10.51 Q 26.404 11.075 25.889 11.677 A 20.648 20.648 0 0 1 25.012 12.636 L 19.968 17.836 L 28.444 17.836 L 28.444 20.176 Z M 9.1 10.816 L 13.728 6.136 L 7.54 0 L 6.5 0 L 6.5 8.164 L 1.508 3.25 L 0 4.784 L 6.032 10.816 L 0 16.848 L 1.508 18.382 L 6.5 13.416 L 6.5 21.632 L 7.54 21.632 L 13.728 15.496 L 9.1 10.816 Z M 8.632 13.416 L 10.66 15.496 L 8.632 17.524 L 8.632 13.416 Z M 8.632 8.164 L 8.632 4.108 L 10.66 6.136 L 8.632 8.164 Z"/></svg>
</svg>
<svg id="send_keypresses_usb">
<svg viewBox="0 0 62.296 22.984" xmlns="http://www.w3.org/2000/svg"><path d="M 62.296 6.5 L 62.296 10.868 L 61.23 10.868 L 61.23 13 A 2.148 2.148 0 0 1 61.1 13.753 A 2.211 2.211 0 0 1 60.593 14.534 A 2.521 2.521 0 0 1 60.563 14.564 A 2.081 2.081 0 0 1 59.046 15.184 L 55.796 15.184 L 55.796 18.46 Q 56.394 18.772 56.758 19.344 Q 57.122 19.916 57.122 20.592 A 2.371 2.371 0 0 1 57 21.361 A 2.341 2.341 0 0 1 56.407 22.282 A 2.99 2.99 0 0 1 56.402 22.287 A 2.316 2.316 0 0 1 54.73 22.984 A 2.313 2.313 0 0 1 53.856 22.819 A 2.458 2.458 0 0 1 53.053 22.282 A 2.822 2.822 0 0 1 53.026 22.254 A 2.278 2.278 0 0 1 52.338 20.592 Q 52.338 19.916 52.702 19.344 Q 53.066 18.772 53.664 18.46 L 53.664 15.184 L 50.414 15.184 A 2.521 2.521 0 0 1 50.372 15.184 A 2.081 2.081 0 0 1 48.867 14.534 A 2.776 2.776 0 0 1 48.865 14.531 A 2.119 2.119 0 0 1 48.23 13 L 48.23 10.764 Q 47.632 10.452 47.268 9.88 Q 46.904 9.308 46.904 8.684 A 2.965 2.965 0 0 1 46.905 8.603 A 2.245 2.245 0 0 1 47.619 6.968 Q 48.334 6.292 49.322 6.292 A 2.759 2.759 0 0 1 49.361 6.292 A 2.257 2.257 0 0 1 50.999 6.994 A 2.806 2.806 0 0 1 51.005 6.999 A 2.325 2.325 0 0 1 51.688 8.684 A 2.085 2.085 0 0 1 51.624 9.201 A 2.339 2.339 0 0 1 51.324 9.88 A 3.048 3.048 0 0 1 51.243 10.002 A 2.569 2.569 0 0 1 50.414 10.764 L 50.414 13 L 53.664 13 L 53.664 4.368 L 51.48 4.368 L 54.73 0 L 57.98 4.368 L 55.796 4.368 L 55.796 13 L 59.046 13 L 59.046 10.868 L 57.98 10.868 L 57.98 6.5 L 62.296 6.5 Z M 19.5 0.676 A 2.025 2.025 0 0 1 20.309 0.838 A 2.199 2.199 0 0 1 20.995 1.313 A 2.653 2.653 0 0 1 21.015 1.333 A 2.042 2.042 0 0 1 21.632 2.808 L 21.632 11.492 Q 21.632 12.402 21.021 13.039 A 2.478 2.478 0 0 1 20.983 13.078 A 1.955 1.955 0 0 1 19.552 13.676 L 19.5 13.624 L 19.5 13.676 L 17.316 13.676 L 17.316 11.492 L 19.5 11.492 L 19.5 2.808 L 2.132 2.808 L 2.132 11.492 L 6.5 11.492 L 6.5 13.676 L 2.132 13.676 A 2.025 2.025 0 0 1 1.324 13.514 A 2.199 2.199 0 0 1 0.637 13.039 A 2.503 2.503 0 0 1 0.618 13.019 A 2.104 2.104 0 0 1 0 11.492 L 0 2.808 A 2.025 2.025 0 0 1 0.162 1.999 A 2.199 2.199 0 0 1 0.637 1.313 A 2.653 2.653 0 0 1 0.657 1.293 A 2.042 2.042 0 0 1 2.132 0.676 L 19.5 0.676 Z M 19.5 17.082 L 19.5 20.696 Q 19.448 21.346 18.993 21.827 A 1.487 1.487 0 0 1 17.915 22.307 A 1.864 1.864 0 0 1 17.862 22.308 L 11.882 22.308 Q 11.284 22.308 10.816 21.84 L 6.5 17.342 L 7.254 16.458 A 1.184 1.184 0 0 1 7.604 16.211 Q 7.81 16.118 8.047 16.118 A 1.242 1.242 0 0 1 8.112 16.12 L 8.32 16.12 L 10.816 17.992 L 10.816 8.242 A 1.098 1.098 0 0 1 10.883 7.853 A 0.975 0.975 0 0 1 11.141 7.475 Q 11.466 7.176 11.908 7.176 Q 12.35 7.176 12.675 7.475 A 0.987 0.987 0 0 1 13 8.195 A 1.312 1.312 0 0 1 13 8.242 L 13 13.078 L 14.274 13.208 L 18.59 15.6 Q 19.006 15.808 19.253 16.185 A 1.501 1.501 0 0 1 19.481 16.801 A 1.961 1.961 0 0 1 19.5 17.082 Z M 46.54 11.518 L 41.158 16.9 L 41.158 12.584 L 31.46 12.584 L 31.46 10.4 L 41.158 10.4 L 41.158 6.084 L 46.54 11.518 Z M 14.066 12.012 L 14.066 10.686 A 3.168 3.168 0 0 0 14.926 9.46 A 3.237 3.237 0 0 0 15.132 8.294 Q 15.132 6.864 14.196 5.928 A 3.107 3.107 0 0 0 11.95 4.992 A 3.88 3.88 0 0 0 11.908 4.992 Q 10.556 4.992 9.594 5.928 Q 8.632 6.864 8.632 8.294 Q 8.632 9.724 9.75 10.686 L 9.75 12.012 Q 8.736 11.466 8.151 10.465 A 4.317 4.317 0 0 1 7.566 8.28 A 5.085 5.085 0 0 1 7.566 8.242 A 4.145 4.145 0 0 1 8.801 5.24 A 5.157 5.157 0 0 1 8.84 5.2 A 4.276 4.276 0 0 1 10.479 4.153 A 4.279 4.279 0 0 1 11.882 3.926 A 4.208 4.208 0 0 1 14.936 5.16 A 5.015 5.015 0 0 1 14.976 5.2 A 4.276 4.276 0 0 1 16.024 6.838 A 4.279 4.279 0 0 1 16.25 8.242 A 4.392 4.392 0 0 1 15.974 9.812 A 4.123 4.123 0 0 1 15.665 10.452 Q 15.08 11.44 14.066 12.012 Z"/></svg>
</svg>
<svg id="bluetooth_4">
<svg viewBox="0 0 27.534 21.632" xmlns="http://www.w3.org/2000/svg"><path d="M 9.1 10.816 L 13.728 6.136 L 7.54 0 L 6.5 0 L 6.5 8.164 L 1.508 3.25 L 0 4.784 L 6.032 10.816 L 0 16.848 L 1.508 18.382 L 6.5 13.416 L 6.5 21.632 L 7.54 21.632 L 13.728 15.496 L 9.1 10.816 Z M 27.534 20.176 L 24.96 20.176 L 24.96 16.12 L 16.406 16.12 L 16.406 12.194 L 23.348 1.196 L 26.26 1.196 L 18.954 12.792 L 18.954 13.806 L 24.96 13.806 L 24.96 9.256 L 27.534 9.256 L 27.534 20.176 Z M 8.632 13.416 L 10.66 15.496 L 8.632 17.524 L 8.632 13.416 Z M 8.632 8.164 L 8.632 4.108 L 10.66 6.136 L 8.632 8.164 Z"/></svg>
</svg>
<svg id="led_off">
<svg viewBox="0 0 13 18.408" xmlns="http://www.w3.org/2000/svg"><path d="M 2.184 4.316 L 2.184 10.816 L 0 10.816 L 0 13 L 3.25 13 L 3.25 18.408 L 5.434 18.408 L 5.434 13 L 7.566 13 L 7.566 18.408 L 9.75 18.408 L 9.75 13 L 13 13 L 13 10.816 L 10.816 10.816 L 10.816 4.316 A 4.145 4.145 0 0 0 9.582 1.314 A 5.157 5.157 0 0 0 9.542 1.274 A 4.276 4.276 0 0 0 7.904 0.227 A 4.279 4.279 0 0 0 6.5 0 A 4.145 4.145 0 0 0 3.498 1.235 A 5.157 5.157 0 0 0 3.458 1.274 A 4.276 4.276 0 0 0 2.411 2.912 A 4.279 4.279 0 0 0 2.184 4.316 Z M 8.684 4.316 L 8.684 9.724 L 4.316 9.724 L 4.316 4.316 A 2.029 2.029 0 0 1 4.923 2.838 A 2.491 2.491 0 0 1 4.953 2.808 Q 5.59 2.184 6.5 2.184 A 2.19 2.19 0 0 1 7.473 2.399 A 2.192 2.192 0 0 1 8.047 2.808 A 2.065 2.065 0 0 1 8.593 3.684 A 2.142 2.142 0 0 1 8.684 4.316 Z"/></svg>
</svg>
<svg id="send_keypresses_bluetooth">
<svg viewBox="0 0 61.464 21.632" xmlns="http://www.w3.org/2000/svg"><path d="M 19.5 0 A 2.025 2.025 0 0 1 20.309 0.162 A 2.199 2.199 0 0 1 20.995 0.637 A 2.653 2.653 0 0 1 21.015 0.657 A 2.042 2.042 0 0 1 21.632 2.132 L 21.632 10.816 Q 21.632 11.726 21.021 12.363 A 2.478 2.478 0 0 1 20.983 12.402 A 1.955 1.955 0 0 1 19.552 13 L 19.5 12.948 L 19.5 13 L 17.316 13 L 17.316 10.816 L 19.5 10.816 L 19.5 2.132 L 2.132 2.132 L 2.132 10.816 L 6.5 10.816 L 6.5 13 L 2.132 13 A 2.025 2.025 0 0 1 1.324 12.838 A 2.199 2.199 0 0 1 0.637 12.363 A 2.503 2.503 0 0 1 0.618 12.343 A 2.104 2.104 0 0 1 0 10.816 L 0 2.132 A 2.025 2.025 0 0 1 0.162 1.323 A 2.199 2.199 0 0 1 0.637 0.637 A 2.653 2.653 0 0 1 0.657 0.617 A 2.042 2.042 0 0 1 2.132 0 L 19.5 0 Z M 56.836 10.816 L 61.464 15.496 L 55.276 21.632 L 54.236 21.632 L 54.236 13.416 L 49.244 18.382 L 47.736 16.848 L 53.768 10.816 L 47.736 4.784 L 49.244 3.25 L 54.236 8.164 L 54.236 0 L 55.276 0 L 61.464 6.136 L 56.836 10.816 Z M 56.368 13.416 L 56.368 17.524 L 58.396 15.496 L 56.368 13.416 Z M 56.368 8.164 L 58.396 6.136 L 56.368 4.108 L 56.368 8.164 Z M 19.5 16.406 L 19.5 20.02 Q 19.448 20.67 18.993 21.151 A 1.487 1.487 0 0 1 17.915 21.631 A 1.864 1.864 0 0 1 17.862 21.632 L 11.882 21.632 Q 11.284 21.632 10.816 21.164 L 6.5 16.666 L 7.254 15.782 A 1.184 1.184 0 0 1 7.604 15.535 Q 7.81 15.442 8.047 15.442 A 1.242 1.242 0 0 1 8.112 15.444 L 8.32 15.444 L 10.816 17.316 L 10.816 7.566 A 1.098 1.098 0 0 1 10.883 7.177 A 0.975 0.975 0 0 1 11.141 6.799 Q 11.466 6.5 11.908 6.5 Q 12.35 6.5 12.675 6.799 A 0.987 0.987 0 0 1 13 7.519 A 1.312 1.312 0 0 1 13 7.566 L 13 12.402 L 14.274 12.532 L 18.59 14.924 Q 19.006 15.132 19.253 15.509 A 1.501 1.501 0 0 1 19.481 16.125 A 1.961 1.961 0 0 1 19.5 16.406 Z M 46.54 10.842 L 41.158 16.224 L 41.158 11.908 L 31.46 11.908 L 31.46 9.724 L 41.158 9.724 L 41.158 5.408 L 46.54 10.842 Z M 14.066 11.336 L 14.066 10.01 A 3.168 3.168 0 0 0 14.926 8.785 A 3.237 3.237 0 0 0 15.132 7.618 Q 15.132 6.188 14.196 5.252 A 3.107 3.107 0 0 0 11.95 4.316 A 3.88 3.88 0 0 0 11.908 4.316 Q 10.556 4.316 9.594 5.252 Q 8.632 6.188 8.632 7.618 Q 8.632 9.048 9.75 10.01 L 9.75 11.336 Q 8.736 10.79 8.151 9.789 A 4.317 4.317 0 0 1 7.566 7.604 A 5.085 5.085 0 0 1 7.566 7.566 A 4.145 4.145 0 0 1 8.801 4.564 A 5.157 5.157 0 0 1 8.84 4.524 A 4.276 4.276 0 0 1 10.479 3.477 A 4.279 4.279 0 0 1 11.882 3.25 A 4.208 4.208 0 0 1 14.936 4.485 A 5.015 5.015 0 0 1 14.976 4.524 A 4.276 4.276 0 0 1 16.024 6.162 A 4.279 4.279 0 0 1 16.25 7.566 A 4.392 4.392 0 0 1 15.974 9.136 A 4.123 4.123 0 0 1 15.665 9.776 Q 15.08 10.764 14.066 11.336 Z"/></svg>
</svg>
<svg id="bluetooth_3">
<svg viewBox="0 0 28.054 21.632" xmlns="http://www.w3.org/2000/svg"><path d="M 16.406 14.976 L 18.98 14.976 A 4.06 4.06 0 0 0 19.09 15.949 A 2.765 2.765 0 0 0 19.851 17.303 A 2.894 2.894 0 0 0 21.228 18.039 Q 21.684 18.147 22.222 18.148 A 5.263 5.263 0 0 0 22.23 18.148 A 4.208 4.208 0 0 0 23.248 18.032 A 2.94 2.94 0 0 0 24.596 17.303 A 2.785 2.785 0 0 0 25.398 15.82 A 4.12 4.12 0 0 0 25.48 14.976 L 25.48 13.65 A 4.075 4.075 0 0 0 25.363 12.644 A 2.863 2.863 0 0 0 24.609 11.297 A 2.889 2.889 0 0 0 23.151 10.52 A 4.283 4.283 0 0 0 22.23 10.426 L 20.098 10.426 L 20.098 8.268 L 24.674 3.51 L 16.978 3.51 L 16.978 1.196 L 27.56 1.196 L 27.56 3.536 L 23.036 8.216 A 6.708 6.708 0 0 1 24.727 8.578 A 4.996 4.996 0 0 1 26.702 9.867 A 4.909 4.909 0 0 1 27.947 12.405 A 6.945 6.945 0 0 1 28.054 13.65 L 28.054 14.976 A 6.522 6.522 0 0 1 27.837 16.703 A 4.752 4.752 0 0 1 26.481 18.967 A 5.265 5.265 0 0 1 24.082 20.227 Q 23.277 20.423 22.331 20.435 A 9.806 9.806 0 0 1 22.204 20.436 A 7.884 7.884 0 0 1 20.432 20.248 Q 19.106 19.943 18.158 19.139 A 4.967 4.967 0 0 1 17.966 18.967 A 4.86 4.86 0 0 1 16.504 16.176 A 7.018 7.018 0 0 1 16.406 14.976 Z M 9.1 10.816 L 13.728 6.136 L 7.54 0 L 6.5 0 L 6.5 8.164 L 1.508 3.25 L 0 4.784 L 6.032 10.816 L 0 16.848 L 1.508 18.382 L 6.5 13.416 L 6.5 21.632 L 7.54 21.632 L 13.728 15.496 L 9.1 10.816 Z M 8.632 13.416 L 10.66 15.496 L 8.632 17.524 L 8.632 13.416 Z M 8.632 8.164 L 8.632 4.108 L 10.66 6.136 L 8.632 8.164 Z"/></svg>
</svg>
<svg id="bluetooth_5">
<svg viewBox="0 0 28.158 21.632" xmlns="http://www.w3.org/2000/svg"><path d="M 16.536 14.976 L 19.11 14.976 A 4.06 4.06 0 0 0 19.22 15.949 A 2.765 2.765 0 0 0 19.981 17.303 A 2.913 2.913 0 0 0 21.427 18.057 A 4.285 4.285 0 0 0 22.334 18.148 A 4.272 4.272 0 0 0 23.333 18.038 A 2.882 2.882 0 0 0 24.713 17.29 Q 25.584 16.432 25.584 14.95 L 25.584 13.754 A 4.191 4.191 0 0 0 25.475 12.769 A 2.838 2.838 0 0 0 24.739 11.414 Q 23.894 10.556 22.438 10.556 L 17.186 10.556 L 17.186 1.196 L 27.482 1.196 L 27.482 3.536 L 19.578 3.536 L 19.63 8.242 L 22.568 8.242 A 7.823 7.823 0 0 1 24.234 8.409 Q 25.301 8.641 26.103 9.199 A 4.517 4.517 0 0 1 26.689 9.685 A 4.7 4.7 0 0 1 27.934 11.883 Q 28.158 12.728 28.158 13.754 L 28.158 14.95 Q 28.158 17.498 26.585 18.967 A 5.282 5.282 0 0 1 24.134 20.242 Q 23.307 20.436 22.334 20.436 A 7.884 7.884 0 0 1 20.562 20.248 Q 19.236 19.943 18.288 19.139 A 4.967 4.967 0 0 1 18.096 18.967 A 4.86 4.86 0 0 1 16.634 16.176 A 7.018 7.018 0 0 1 16.536 14.976 Z M 9.1 10.816 L 13.728 6.136 L 7.54 0 L 6.5 0 L 6.5 8.164 L 1.508 3.25 L 0 4.784 L 6.032 10.816 L 0 16.848 L 1.508 18.382 L 6.5 13.416 L 6.5 21.632 L 7.54 21.632 L 13.728 15.496 L 9.1 10.816 Z M 8.632 13.416 L 10.66 15.496 L 8.632 17.524 L 8.632 13.416 Z M 8.632 8.164 L 8.632 4.108 L 10.66 6.136 L 8.632 8.164 Z"/></svg>
</svg>
</defs>/* end glyphs */
<style>/* reusable color variables. palette taken from https://github.com/rebelot/kanagawa.nvim */
:root {
    --background-color: #1F1F28;
    --foreground-color: #E6C384;
    --held-color: #98BB6C;
    --shifted-color: #DCD7BA;
    --layer-color: #C34043;
    --combo-color: #938AA9;
    --keycap-color: #727169;

    fill: var(--foreground-color);
    background-color: var(--background-color);
    font-family: JetBrainsMono NFM,SFMono-Regular,Consolas,Liberation Mono,Menlo,monospace;
    font-size: 14px;
    font-weight: bold;
    text-anchor: middle;
    dominant-baseline: middle;
    font-weight: bold;
}

rect {
    fill: var(--background-color);
    stroke: var(--keycap-color);
    stroke-width: 2;
}

.label {
    font-size: 24px;
    text-anchor: start;
    fill: var(--layer-color);
    paint-order: stroke;
}

.shifted {
    font-size: 12px;
    text-anchor: middle;
    dominant-baseline: hanging;
    fill: var(--shifted-color);
}

.held, .hold {
    font-size: 12px;
    fill: var(--held-color);
    text-anchor: middle;
    dominant-baseline: auto;
}

path.combo {
    stroke-width: 2;
    stroke: var(--combo-color);
    fill: none;
}

rect.combo {
    stroke: var(--combo-color);
}
</style>
<g class="layer-BASE">
<text x="30.0" y="28.0" class="label">BASE</text>
<rect rx="6.0" ry="6.0" x="35.0" y="135.13" width="64.13" height="60.0" class="key"/>
<text x="67.065" y="165.13" class="tap">J</text>
<rect rx="6.0" ry="6.0" x="109.13" y="85.71000000000001" width="64.13" height="60.0" class="key"/>
<text x="141.195" y="115.71000000000001" class="tap">G</text>
<rect rx="6.0" ry="6.0" x="183.26" y="61.0" width="64.13" height="60.0" class="key"/>
<text x="215.325" y="91.0" class="tap">M</text>
<rect rx="6.0" ry="6.0" x="257.39" y="88.23" width="64.13" height="60.0" class="key"/>
<text x="289.455" y="118.23" class="tap">P</text>
<rect rx="6.0" ry="6.0" x="331.52" y="98.03" width="64.13" height="60.0" class="key"/>
<text x="363.585" y="128.03" class="tap">V</text>
<rect rx="6.0" ry="6.0" x="648.48" y="98.03" width="64.13" height="60.0" class="key"/>
<text x="680.545" y="128.03" class="tap">;</text>
<text x="680.545" y="105.03" class="shifted">:</text>
<rect rx="6.0" ry="6.0" x="722.6100000000001" y="88.23" width="64.13" height="60.0" class="key"/>
<text x="754.6750000000001" y="118.23" class="tap">.</text>
<text x="754.6750000000001" y="95.23" class="shifted">&amp;</text>
<rect rx="6.0" ry="6.0" x="796.74" y="61.0" width="64.13" height="60.0" class="key"/>
<text x="828.8050000000001" y="91.0" class="tap">/</text>
<text x="828.8050000000001" y="68.0" class="shifted">*</text>
<rect rx="6.0" ry="6.0" x="870.8700000000001" y="85.71000000000001" width="64.13" height="60.0" class="key"/>
<text x="902.9350000000001" y="115.71000000000001" class="tap">&quot;</text>
<text x="902.9350000000001" y="92.71000000000001" class="shifted">?</text>
<rect rx="6.0" ry="6.0" x="945.0" y="135.13" width="64.13" height="60.0" class="key"/>
<text x="977.065" y="165.13" class="tap">&#x27;</text>
<text x="977.065" y="142.13" class="shifted">!</text>
<rect rx="6.0" ry="6.0" x="35.0" y="205.13000000000002" width="64.13" height="60.0" class="key"/>
<text x="67.065" y="235.13000000000002" class="tap">R</text>
<text x="67.065" y="258.13" class="hold">Meta</text>
<rect rx="6.0" ry="6.0" x="109.13" y="155.71" width="64.13" height="60.0" class="key"/>
<text x="141.195" y="185.71" class="tap">S</text>
<text x="141.195" y="208.71" class="hold">Alt</text>
<rect rx="6.0" ry="6.0" x="183.26" y="131.0" width="64.13" height="60.0" class="key"/>
<text x="215.325" y="161.0" class="tap">N</text>
<text x="215.325" y="184.0" class="hold">Ctrl</text>
<rect rx="6.0" ry="6.0" x="257.39" y="158.23" width="64.13" height="60.0" class="key"/>
<text x="289.455" y="188.23" class="tap">D</text>
<text x="289.455" y="211.23" class="hold">Shift</text>
<rect rx="6.0" ry="6.0" x="331.52" y="168.03" width="64.13" height="60.0" class="key"/>
<text x="363.585" y="198.03" class="tap">B</text>
<rect rx="6.0" ry="6.0" x="648.48" y="168.03" width="64.13" height="60.0" class="key"/>
<text x="680.545" y="198.03" class="tap">,</text>
<text x="680.545" y="175.03" class="shifted">|</text>
<rect rx="6.0" ry="6.0" x="722.6100000000001" y="158.23" width="64.13" height="60.0" class="key"/>
<text x="754.6750000000001" y="188.23" class="tap">A</text>
<text x="754.6750000000001" y="211.23" class="hold">Shift</text>
<rect rx="6.0" ry="6.0" x="796.74" y="131.0" width="64.13" height="60.0" class="key"/>
<text x="828.8050000000001" y="161.0" class="tap">E</text>
<text x="828.8050000000001" y="184.0" class="hold">Ctrl</text>
<rect rx="6.0" ry="6.0" x="870.8700000000001" y="155.71" width="64.13" height="60.0" class="key"/>
<text x="902.9350000000001" y="185.71" class="tap">I</text>
<text x="902.9350000000001" y="208.71" class="hold">Alt</text>
<rect rx="6.0" ry="6.0" x="945.0" y="205.13000000000002" width="64.13" height="60.0" class="key"/>
<text x="977.065" y="235.13000000000002" class="tap">H</text>
<text x="977.065" y="258.13" class="hold">Meta</text>
<rect rx="6.0" ry="6.0" x="35.0" y="275.13" width="64.13" height="60.0" class="key"/>
<text x="67.065" y="305.13" class="tap">X</text>
<rect rx="6.0" ry="6.0" x="109.13" y="225.71" width="64.13" height="60.0" class="key"/>
<text x="141.195" y="255.71" class="tap">F</text>
<rect rx="6.0" ry="6.0" x="183.26" y="201.0" width="64.13" height="60.0" class="key"/>
<text x="215.325" y="231.0" class="tap">L</text>
<rect rx="6.0" ry="6.0" x="257.39" y="228.3" width="64.13" height="60.0" class="key"/>
<text x="289.455" y="258.3" class="tap">C</text>
<rect rx="6.0" ry="6.0" x="331.52" y="238.02999999999997" width="64.13" height="60.0" class="key"/>
<text x="363.585" y="268.03" class="tap">W</text>
<rect rx="6.0" ry="6.0" x="648.48" y="238.02999999999997" width="64.13" height="60.0" class="key"/>
<text x="680.545" y="268.03" class="tap">-</text>
<text x="680.545" y="245.02999999999997" class="shifted">+</text>
<rect rx="6.0" ry="6.0" x="722.6100000000001" y="228.3" width="64.13" height="60.0" class="key"/>
<text x="754.6750000000001" y="258.3" class="tap">U</text>
<rect rx="6.0" ry="6.0" x="796.74" y="201.0" width="64.13" height="60.0" class="key"/>
<text x="828.8050000000001" y="231.0" class="tap">O</text>
<rect rx="6.0" ry="6.0" x="870.8700000000001" y="225.71" width="64.13" height="60.0" class="key"/>
<text x="902.9350000000001" y="255.71" class="tap">Y</text>
<rect rx="6.0" ry="6.0" x="945.0" y="275.13" width="64.13" height="60.0" class="key"/>
<text x="977.065" y="305.13" class="tap">K</text>
<rect rx="6.0" ry="6.0" x="233.03000000000003" y="310.48" width="64.13" height="60.0" class="key"/>
<text x="265.095" y="340.48" class="tap">⌫</text>
<text x="265.095" y="317.48" class="shifted">⌦</text>
<g transform="rotate(15.0, 347.69619259607987, 351.1109413334214)">
<rect rx="6.0" ry="6.0" x="315.63119259607987" y="321.1109413334214" width="64.13" height="60.0" class="key"/>
<text x="347.69619259607987" y="351.1109413334214" class="tap">T</text>
</g>
<g transform="rotate(30.0, 430.7419684303176, 363.33500000000004)">
<rect rx="6.0" ry="6.0" x="400.7419684303176" y="312.75500000000005" width="60.0" height="101.16000000000001" class="key"/>
<text x="430.7419684303176" y="363.33500000000004" class="tap">⭾</text>
</g>
<g transform="rotate(-30.0, 609.2580315696824, 363.33500000000004)">
<rect rx="6.0" ry="6.0" x="579.2580315696824" y="312.75500000000005" width="60.0" height="101.16000000000001" class="key"/>
<text x="609.2580315696824" y="363.33500000000004" class="tap">⏎</text>
</g>
<g transform="rotate(-15.0, 696.293081066494, 350.042018677148)">
<rect rx="6.0" ry="6.0" x="664.228081066494" y="320.042018677148" width="64.13" height="60.0" class="key"/>
<text x="696.293081066494" y="350.042018677148" class="tap">‿</text>
</g>
<rect rx="6.0" ry="6.0" x="746.97" y="310.48" width="64.13" height="60.0" class="key"/>
<text x="779.035" y="340.48" class="tap">ESC</text>
<text x="779.035" y="363.48" class="hold">SYS</text>
<rect rx="6.0" ry="6.0" x="91.63" y="250.42000000000002" width="25.0" height="60.0" class="combo"/>
<text x="104.13" y="280.42" class="combo tap">Z</text>
<rect rx="6.0" ry="6.0" x="927.5" y="250.42000000000002" width="25.0" height="60.0" class="combo"/>
<text x="940.0" y="280.42" class="combo tap">Qu</text>
<text x="940.0" y="303.42" class="combo hold">Q</text>
<rect rx="6.0" ry="6.0" x="239.89" y="144.615" width="25.0" height="60.0" class="combo"/>
<text x="252.39" y="174.615" class="combo tap">Th</text>
<rect rx="6.0" ry="6.0" x="239.89" y="214.65" width="25.0" height="60.0" class="combo"/>
<text x="252.39" y="244.65" class="combo tap">Ch</text>
<rect rx="6.0" ry="6.0" x="165.76" y="143.35500000000002" width="25.0" height="60.0" class="combo"/>
<text x="178.26" y="173.35500000000002" class="combo tap">Sh</text>
<rect rx="6.0" ry="6.0" x="927.5" y="180.42000000000002" width="25.0" height="60.0" class="combo"/>
<text x="940.0" y="210.42000000000002" class="combo tap">Wh</text>
<rect rx="6.0" ry="6.0" x="165.76" y="73.355" width="25.0" height="60.0" class="combo"/>
<text x="178.26" y="103.355" class="combo tap">Gh</text>
<rect rx="6.0" ry="6.0" x="239.89" y="74.61500000000001" width="25.0" height="60.0" class="combo"/>
<text x="252.39" y="104.61500000000001" class="combo tap">Ph</text>
</g>
<g class="layer-SYS">
<text x="30.0" y="456.96869194233915" class="label">SYS</text>
<rect rx="6.0" ry="6.0" x="35.0" y="564.0986919423392" width="64.13" height="60.0" class="key"/>
<use href="#bluetooth_clear" xlink:href="#bluetooth_clear" x="61.44480769230769" y="587.0986919423392" height="14" width="11.240384615384613" class="tap glyph bluetooth_clear"/>
<rect rx="6.0" ry="6.0" x="109.13" y="514.6786919423391" width="64.13" height="60.0" class="key"/>
<use href="#led_off" xlink:href="#led_off" x="136.25149717514122" y="537.6786919423391" height="14" width="9.887005649717514" class="tap glyph led_off"/>
<rect rx="6.0" ry="6.0" x="183.26" y="489.9686919423391" width="64.13" height="60.0" class="key"/>
<use href="#led_on" xlink:href="#led_on" x="209.25833333333333" y="512.9686919423391" height="14" width="12.133333333333335" class="tap glyph led_on"/>
<rect rx="6.0" ry="6.0" x="257.39" y="517.1986919423391" width="64.13" height="60.0" class="key"/>
<use href="#send_keypresses_usb" xlink:href="#send_keypresses_usb" x="270.48214932126695" y="540.1986919423391" height="14" width="37.945701357466056" class="tap glyph send_keypresses_usb"/>
<rect rx="6.0" ry="6.0" x="331.52" y="526.9986919423392" width="64.13" height="60.0" class="key"/>
<use href="#send_keypresses_bluetooth" xlink:href="#send_keypresses_bluetooth" x="343.6955769230769" y="549.9986919423392" height="14" width="39.778846153846146" class="tap glyph send_keypresses_bluetooth"/>
<rect rx="6.0" ry="6.0" x="648.48" y="526.9986919423392" width="64.13" height="60.0" class="key"/>
<rect rx="6.0" ry="6.0" x="722.6100000000001" y="517.1986919423391" width="64.13" height="60.0" class="key"/>
<rect rx="6.0" ry="6.0" x="796.74" y="489.9686919423391" width="64.13" height="60.0" class="key"/>
<rect rx="6.0" ry="6.0" x="870.8700000000001" y="514.6786919423391" width="64.13" height="60.0" class="key"/>
<rect rx="6.0" ry="6.0" x="945.0" y="564.0986919423392" width="64.13" height="60.0" class="key"/>
<rect rx="6.0" ry="6.0" x="35.0" y="634.0986919423392" width="64.13" height="60.0" class="key"/>
<use href="#bluetooth_5" xlink:href="#bluetooth_5" x="57.95322115384615" y="657.0986919423392" height="14" width="18.22355769230769" class="tap glyph bluetooth_5"/>
<rect rx="6.0" ry="6.0" x="109.13" y="584.6786919423391" width="64.13" height="60.0" class="key"/>
<use href="#bluetooth_4" xlink:href="#bluetooth_4" x="132.28514423076922" y="607.6786919423391" height="14" width="17.819711538461537" class="tap glyph bluetooth_4"/>
<rect rx="6.0" ry="6.0" x="183.26" y="559.9686919423391" width="64.13" height="60.0" class="key"/>
<use href="#bluetooth_3" xlink:href="#bluetooth_3" x="206.246875" y="582.9686919423391" height="14" width="18.156249999999996" class="tap glyph bluetooth_3"/>
<rect rx="6.0" ry="6.0" x="257.39" y="587.1986919423391" width="64.13" height="60.0" class="key"/>
<use href="#bluetooth_2" xlink:href="#bluetooth_2" x="280.2506730769231" y="610.1986919423391" height="14" width="18.408653846153843" class="tap glyph bluetooth_2"/>
<rect rx="6.0" ry="6.0" x="331.52" y="596.9986919423392" width="64.13" height="60.0" class="key"/>
<use href="#bluetooth_1" xlink:href="#bluetooth_1" x="354.2712980769231" y="619.9986919423392" height="14" width="18.627403846153843" class="tap glyph bluetooth_1"/>
<rect rx="6.0" ry="6.0" x="648.48" y="596.9986919423392" width="64.13" height="60.0" class="key"/>
<rect rx="6.0" ry="6.0" x="722.6100000000001" y="587.1986919423391" width="64.13" height="60.0" class="key"/>
<rect rx="6.0" ry="6.0" x="796.74" y="559.9686919423391" width="64.13" height="60.0" class="key"/>
<rect rx="6.0" ry="6.0" x="870.8700000000001" y="584.6786919423391" width="64.13" height="60.0" class="key"/>
<rect rx="6.0" ry="6.0" x="945.0" y="634.0986919423392" width="64.13" height="60.0" class="key"/>
<rect rx="6.0" ry="6.0" x="35.0" y="704.0986919423392" width="64.13" height="60.0" class="key"/>
<rect rx="6.0" ry="6.0" x="109.13" y="654.6786919423391" width="64.13" height="60.0" class="key"/>
<rect rx="6.0" ry="6.0" x="183.26" y="629.9686919423391" width="64.13" height="60.0" class="key"/>
<rect rx="6.0" ry="6.0" x="257.39" y="657.2686919423392" width="64.13" height="60.0" class="key"/>
<rect rx="6.0" ry="6.0" x="331.52" y="666.9986919423392" width="64.13" height="60.0" class="key"/>
<rect rx="6.0" ry="6.0" x="648.48" y="666.9986919423392" width="64.13" height="60.0" class="key"/>
<rect rx="6.0" ry="6.0" x="722.6100000000001" y="657.2686919423392" width="64.13" height="60.0" class="key"/>
<rect rx="6.0" ry="6.0" x="796.74" y="629.9686919423391" width="64.13" height="60.0" class="key"/>
<rect rx="6.0" ry="6.0" x="870.8700000000001" y="654.6786919423391" width="64.13" height="60.0" class="key"/>
<rect rx="6.0" ry="6.0" x="945.0" y="704.0986919423392" width="64.13" height="60.0" class="key"/>
<rect rx="6.0" ry="6.0" x="233.03000000000003" y="739.4486919423391" width="64.13" height="60.0" class="key"/>
<g transform="rotate(15.0, 347.69619259607987, 780.0796332757606)">
<rect rx="6.0" ry="6.0" x="315.63119259607987" y="750.0796332757606" width="64.13" height="60.0" class="key"/>
</g>
<g transform="rotate(30.0, 430.7419684303176, 792.3036919423391)">
<rect rx="6.0" ry="6.0" x="400.7419684303176" y="741.7236919423391" width="60.0" height="101.16000000000001" class="key"/>
</g>
<g transform="rotate(-30.0, 609.2580315696824, 792.3036919423391)">
<rect rx="6.0" ry="6.0" x="579.2580315696824" y="741.7236919423391" width="60.0" height="101.16000000000001" class="key"/>
</g>
<g transform="rotate(-15.0, 696.293081066494, 779.0107106194871)">
<rect rx="6.0" ry="6.0" x="664.228081066494" y="749.0107106194871" width="64.13" height="60.0" class="key"/>
</g>
<rect rx="6.0" ry="6.0" x="746.97" y="739.4486919423391" width="64.13" height="60.0" class="held key"/>
</g>
</svg>
