<svg width="1004.1300000000001" height="1341.9060758270175" viewBox="0 0 1004.1300000000001 1341.9060758270175" class="keymap" xmlns="http://www.w3.org/2000/svg" xmlns:xlink="http://www.w3.org/1999/xlink">
<defs>/* start glyphs */
<svg id="exclamation_sentence_case">
<svg viewBox="0 0 120.9 73.5" xmlns="http://www.w3.org/2000/svg"><path d="M 37.7 45.4 L 79.3 3.6 L 120.9 45.4 L 100.2 45.4 L 100.2 70.4 L 58.4 70.4 L 58.4 45.4 L 37.7 45.4 Z M 66.8 62 L 91.8 62 L 91.8 37 L 100.8 37 L 79.3 15.5 L 57.8 37 L 66.8 37 L 66.8 62 Z M 12.1 51.2 L 3.3 51.2 L 2 0 L 13.4 0 L 12.1 51.2 Z M 9.2 73.5 L 6.2 73.5 A 7.019 7.019 0 0 1 4.038 73.18 A 5.793 5.793 0 0 1 1.75 71.8 A 5.683 5.683 0 0 1 0.075 68.412 A 7.972 7.972 0 0 1 0 67.3 A 6.782 6.782 0 0 1 0.31 65.204 A 5.55 5.55 0 0 1 1.75 62.9 Q 3.5 61.2 6.2 61.2 L 9.2 61.2 A 7.959 7.959 0 0 1 11.104 61.415 A 5.399 5.399 0 0 1 13.75 62.9 Q 15.4 64.6 15.4 67.3 A 6.824 6.824 0 0 1 15.065 69.481 A 5.765 5.765 0 0 1 13.65 71.75 Q 11.9 73.5 9.2 73.5 Z"/></svg>
</svg>
<svg id="shift">
<svg viewBox="0 0 21.632 17.368" xmlns="http://www.w3.org/2000/svg"><path d="M 0 10.868 L 10.816 0 L 21.632 10.868 L 16.25 10.868 L 16.25 17.368 L 5.382 17.368 L 5.382 10.868 L 0 10.868 Z M 7.566 15.184 L 14.066 15.184 L 14.066 8.684 L 16.406 8.684 L 10.816 3.094 L 5.226 8.684 L 7.566 8.684 L 7.566 15.184 Z"/></svg>
</svg>
<svg id="bluetooth_1">
<svg viewBox="0 0 28.782 21.632" xmlns="http://www.w3.org/2000/svg"><path d="M 9.1 10.816 L 13.728 6.136 L 7.54 0 L 6.5 0 L 6.5 8.164 L 1.508 3.25 L 0 4.784 L 6.032 10.816 L 0 16.848 L 1.508 18.382 L 6.5 13.416 L 6.5 21.632 L 7.54 21.632 L 13.728 15.496 L 9.1 10.816 Z M 28.782 20.176 L 16.978 20.176 L 16.978 17.836 L 22.048 17.836 L 22.048 3.51 L 16.952 7.306 L 16.952 4.394 L 21.268 1.196 L 24.622 1.196 L 24.622 17.836 L 28.782 17.836 L 28.782 20.176 Z M 8.632 13.416 L 10.66 15.496 L 8.632 17.524 L 8.632 13.416 Z M 8.632 8.164 L 8.632 4.108 L 10.66 6.136 L 8.632 8.164 Z"/></svg>
</svg>
<svg id="bluetooth_clear">
<svg viewBox="0 0 17.368 21.632" xmlns="http://www.w3.org/2000/svg"><path d="M 17.368 17.966 L 1.534 2.132 L 0 3.666 L 7.15 10.816 L 1.118 16.848 L 2.652 18.382 L 7.618 13.416 L 7.618 21.632 L 8.684 21.632 L 13.364 17.004 L 15.834 19.5 L 17.368 17.966 Z M 9.75 7.618 L 9.75 4.108 L 11.778 6.136 L 10.062 7.93 L 11.57 9.438 L 14.872 6.136 L 8.684 0 L 7.618 0 L 7.618 5.434 L 9.75 7.618 Z M 11.778 15.496 L 9.75 17.524 L 9.75 13.416 L 11.778 15.496 Z"/></svg>
</svg>
<svg id="led_on">
<svg viewBox="0 0 21.632 24.96" xmlns="http://www.w3.org/2000/svg"><path d="M 6.5 10.816 L 6.5 17.316 L 4.316 17.316 L 4.316 19.5 L 7.566 19.5 L 7.566 24.96 L 9.75 24.96 L 9.75 19.5 L 11.882 19.5 L 11.882 24.96 L 14.066 24.96 L 14.066 19.5 L 17.316 19.5 L 17.316 17.316 L 15.132 17.316 L 15.132 10.816 A 4.145 4.145 0 0 0 13.898 7.814 A 5.157 5.157 0 0 0 13.858 7.774 A 4.276 4.276 0 0 0 12.22 6.727 A 4.279 4.279 0 0 0 10.816 6.5 A 4.145 4.145 0 0 0 7.814 7.734 A 5.157 5.157 0 0 0 7.774 7.774 A 4.276 4.276 0 0 0 6.727 9.412 A 4.279 4.279 0 0 0 6.5 10.816 Z M 19.136 4.004 L 17.628 2.496 L 14.326 5.772 L 15.834 7.28 L 19.136 4.004 Z M 7.254 5.772 L 4.004 2.496 L 2.496 4.004 L 5.746 7.28 L 7.254 5.772 Z M 4.316 9.776 L 0 9.776 L 0 11.96 L 4.316 11.96 L 4.316 9.776 Z M 21.632 9.776 L 17.316 9.776 L 17.316 11.96 L 21.632 11.96 L 21.632 9.776 Z M 11.882 0 L 9.75 0 L 9.75 4.316 L 11.882 4.316 L 11.882 0 Z"/></svg>
</svg>
<svg id="send_keypresses_usb">
<svg viewBox="0 0 62.296 22.984" xmlns="http://www.w3.org/2000/svg"><path d="M 62.296 6.5 L 62.296 10.868 L 61.23 10.868 L 61.23 13 A 2.148 2.148 0 0 1 61.1 13.753 A 2.211 2.211 0 0 1 60.593 14.534 A 2.521 2.521 0 0 1 60.563 14.564 A 2.081 2.081 0 0 1 59.046 15.184 L 55.796 15.184 L 55.796 18.46 Q 56.394 18.772 56.758 19.344 Q 57.122 19.916 57.122 20.592 A 2.371 2.371 0 0 1 57 21.361 A 2.341 2.341 0 0 1 56.407 22.282 A 2.99 2.99 0 0 1 56.402 22.287 A 2.316 2.316 0 0 1 54.73 22.984 A 2.313 2.313 0 0 1 53.856 22.819 A 2.458 2.458 0 0 1 53.053 22.282 A 2.822 2.822 0 0 1 53.026 22.254 A 2.278 2.278 0 0 1 52.338 20.592 Q 52.338 19.916 52.702 19.344 Q 53.066 18.772 53.664 18.46 L 53.664 15.184 L 50.414 15.184 A 2.521 2.521 0 0 1 50.372 15.184 A 2.081 2.081 0 0 1 48.867 14.534 A 2.776 2.776 0 0 1 48.865 14.531 A 2.119 2.119 0 0 1 48.23 13 L 48.23 10.764 Q 47.632 10.452 47.268 9.88 Q 46.904 9.308 46.904 8.684 A 2.965 2.965 0 0 1 46.905 8.603 A 2.245 2.245 0 0 1 47.619 6.968 Q 48.334 6.292 49.322 6.292 A 2.759 2.759 0 0 1 49.361 6.292 A 2.257 2.257 0 0 1 50.999 6.994 A 2.806 2.806 0 0 1 51.005 6.999 A 2.325 2.325 0 0 1 51.688 8.684 A 2.085 2.085 0 0 1 51.624 9.201 A 2.339 2.339 0 0 1 51.324 9.88 A 3.048 3.048 0 0 1 51.243 10.002 A 2.569 2.569 0 0 1 50.414 10.764 L 50.414 13 L 53.664 13 L 53.664 4.368 L 51.48 4.368 L 54.73 0 L 57.98 4.368 L 55.796 4.368 L 55.796 13 L 59.046 13 L 59.046 10.868 L 57.98 10.868 L 57.98 6.5 L 62.296 6.5 Z M 19.5 0.676 A 2.025 2.025 0 0 1 20.309 0.838 A 2.199 2.199 0 0 1 20.995 1.313 A 2.653 2.653 0 0 1 21.015 1.333 A 2.042 2.042 0 0 1 21.632 2.808 L 21.632 11.492 Q 21.632 12.402 21.021 13.039 A 2.478 2.478 0 0 1 20.983 13.078 A 1.955 1.955 0 0 1 19.552 13.676 L 19.5 13.624 L 19.5 13.676 L 17.316 13.676 L 17.316 11.492 L 19.5 11.492 L 19.5 2.808 L 2.132 2.808 L 2.132 11.492 L 6.5 11.492 L 6.5 13.676 L 2.132 13.676 A 2.025 2.025 0 0 1 1.324 13.514 A 2.199 2.199 0 0 1 0.637 13.039 A 2.503 2.503 0 0 1 0.618 13.019 A 2.104 2.104 0 0 1 0 11.492 L 0 2.808 A 2.025 2.025 0 0 1 0.162 1.999 A 2.199 2.199 0 0 1 0.637 1.313 A 2.653 2.653 0 0 1 0.657 1.293 A 2.042 2.042 0 0 1 2.132 0.676 L 19.5 0.676 Z M 19.5 17.082 L 19.5 20.696 Q 19.448 21.346 18.993 21.827 A 1.487 1.487 0 0 1 17.915 22.307 A 1.864 1.864 0 0 1 17.862 22.308 L 11.882 22.308 Q 11.284 22.308 10.816 21.84 L 6.5 17.342 L 7.254 16.458 A 1.184 1.184 0 0 1 7.604 16.211 Q 7.81 16.118 8.047 16.118 A 1.242 1.242 0 0 1 8.112 16.12 L 8.32 16.12 L 10.816 17.992 L 10.816 8.242 A 1.098 1.098 0 0 1 10.883 7.853 A 0.975 0.975 0 0 1 11.141 7.475 Q 11.466 7.176 11.908 7.176 Q 12.35 7.176 12.675 7.475 A 0.987 0.987 0 0 1 13 8.195 A 1.312 1.312 0 0 1 13 8.242 L 13 13.078 L 14.274 13.208 L 18.59 15.6 Q 19.006 15.808 19.253 16.185 A 1.501 1.501 0 0 1 19.481 16.801 A 1.961 1.961 0 0 1 19.5 17.082 Z M 46.54 11.518 L 41.158 16.9 L 41.158 12.584 L 31.46 12.584 L 31.46 10.4 L 41.158 10.4 L 41.158 6.084 L 46.54 11.518 Z M 14.066 12.012 L 14.066 10.686 A 3.168 3.168 0 0 0 14.926 9.46 A 3.237 3.237 0 0 0 15.132 8.294 Q 15.132 6.864 14.196 5.928 A 3.107 3.107 0 0 0 11.95 4.992 A 3.88 3.88 0 0 0 11.908 4.992 Q 10.556 4.992 9.594 5.928 Q 8.632 6.864 8.632 8.294 Q 8.632 9.724 9.75 10.686 L 9.75 12.012 Q 8.736 11.466 8.151 10.465 A 4.317 4.317 0 0 1 7.566 8.28 A 5.085 5.085 0 0 1 7.566 8.242 A 4.145 4.145 0 0 1 8.801 5.24 A 5.157 5.157 0 0 1 8.84 5.2 A 4.276 4.276 0 0 1 10.479 4.153 A 4.279 4.279 0 0 1 11.882 3.926 A 4.208 4.208 0 0 1 14.936 5.16 A 5.015 5.015 0 0 1 14.976 5.2 A 4.276 4.276 0 0 1 16.024 6.838 A 4.279 4.279 0 0 1 16.25 8.242 A 4.392 4.392 0 0 1 15.974 9.812 A 4.123 4.123 0 0 1 15.665 10.452 Q 15.08 11.44 14.066 12.012 Z"/></svg>
</svg>
<svg id="dot_sentence_case">
<svg viewBox="0 0 121.7 70.4" xmlns="http://www.w3.org/2000/svg"><path d="M 38.5 41.8 L 80.1 0 L 121.7 41.8 L 101 41.8 L 101 66.8 L 59.2 66.8 L 59.2 41.8 L 38.5 41.8 Z M 67.6 58.4 L 92.6 58.4 L 92.6 33.4 L 101.6 33.4 L 80.1 11.9 L 58.6 33.4 L 67.6 33.4 L 67.6 58.4 Z M 5.753 70.049 A 10.235 10.235 0 0 0 8.5 70.4 A 11.049 11.049 0 0 0 10.202 70.274 A 7.931 7.931 0 0 0 14.65 68.1 A 7.534 7.534 0 0 0 16.567 65.054 A 9.009 9.009 0 0 0 17 62.2 A 11.127 11.127 0 0 0 16.918 60.824 A 8.128 8.128 0 0 0 14.65 56 A 7.67 7.67 0 0 0 11.336 53.992 A 9.774 9.774 0 0 0 8.5 53.6 A 10.901 10.901 0 0 0 7.182 53.677 A 7.882 7.882 0 0 0 2.35 56 Q 0 58.4 0 62.2 Q 0 65.8 2.35 68.1 A 7.747 7.747 0 0 0 5.753 70.049 Z"/></svg>
</svg>
<svg id="send_keypresses_bluetooth">
<svg viewBox="0 0 61.464 21.632" xmlns="http://www.w3.org/2000/svg"><path d="M 19.5 0 A 2.025 2.025 0 0 1 20.309 0.162 A 2.199 2.199 0 0 1 20.995 0.637 A 2.653 2.653 0 0 1 21.015 0.657 A 2.042 2.042 0 0 1 21.632 2.132 L 21.632 10.816 Q 21.632 11.726 21.021 12.363 A 2.478 2.478 0 0 1 20.983 12.402 A 1.955 1.955 0 0 1 19.552 13 L 19.5 12.948 L 19.5 13 L 17.316 13 L 17.316 10.816 L 19.5 10.816 L 19.5 2.132 L 2.132 2.132 L 2.132 10.816 L 6.5 10.816 L 6.5 13 L 2.132 13 A 2.025 2.025 0 0 1 1.324 12.838 A 2.199 2.199 0 0 1 0.637 12.363 A 2.503 2.503 0 0 1 0.618 12.343 A 2.104 2.104 0 0 1 0 10.816 L 0 2.132 A 2.025 2.025 0 0 1 0.162 1.323 A 2.199 2.199 0 0 1 0.637 0.637 A 2.653 2.653 0 0 1 0.657 0.617 A 2.042 2.042 0 0 1 2.132 0 L 19.5 0 Z M 56.836 10.816 L 61.464 15.496 L 55.276 21.632 L 54.236 21.632 L 54.236 13.416 L 49.244 18.382 L 47.736 16.848 L 53.768 10.816 L 47.736 4.784 L 49.244 3.25 L 54.236 8.164 L 54.236 0 L 55.276 0 L 61.464 6.136 L 56.836 10.816 Z M 56.368 13.416 L 56.368 17.524 L 58.396 15.496 L 56.368 13.416 Z M 56.368 8.164 L 58.396 6.136 L 56.368 4.108 L 56.368 8.164 Z M 19.5 16.406 L 19.5 20.02 Q 19.448 20.67 18.993 21.151 A 1.487 1.487 0 0 1 17.915 21.631 A 1.864 1.864 0 0 1 17.862 21.632 L 11.882 21.632 Q 11.284 21.632 10.816 21.164 L 6.5 16.666 L 7.254 15.782 A 1.184 1.184 0 0 1 7.604 15.535 Q 7.81 15.442 8.047 15.442 A 1.242 1.242 0 0 1 8.112 15.444 L 8.32 15.444 L 10.816 17.316 L 10.816 7.566 A 1.098 1.098 0 0 1 10.883 7.177 A 0.975 0.975 0 0 1 11.141 6.799 Q 11.466 6.5 11.908 6.5 Q 12.35 6.5 12.675 6.799 A 0.987 0.987 0 0 1 13 7.519 A 1.312 1.312 0 0 1 13 7.566 L 13 12.402 L 14.274 12.532 L 18.59 14.924 Q 19.006 15.132 19.253 15.509 A 1.501 1.501 0 0 1 19.481 16.125 A 1.961 1.961 0 0 1 19.5 16.406 Z M 46.54 10.842 L 41.158 16.224 L 41.158 11.908 L 31.46 11.908 L 31.46 9.724 L 41.158 9.724 L 41.158 5.408 L 46.54 10.842 Z M 14.066 11.336 L 14.066 10.01 A 3.168 3.168 0 0 0 14.926 8.785 A 3.237 3.237 0 0 0 15.132 7.618 Q 15.132 6.188 14.196 5.252 A 3.107 3.107 0 0 0 11.95 4.316 A 3.88 3.88 0 0 0 11.908 4.316 Q 10.556 4.316 9.594 5.252 Q 8.632 6.188 8.632 7.618 Q 8.632 9.048 9.75 10.01 L 9.75 11.336 Q 8.736 10.79 8.151 9.789 A 4.317 4.317 0 0 1 7.566 7.604 A 5.085 5.085 0 0 1 7.566 7.566 A 4.145 4.145 0 0 1 8.801 4.564 A 5.157 5.157 0 0 1 8.84 4.524 A 4.276 4.276 0 0 1 10.479 3.477 A 4.279 4.279 0 0 1 11.882 3.25 A 4.208 4.208 0 0 1 14.936 4.485 A 5.015 5.015 0 0 1 14.976 4.524 A 4.276 4.276 0 0 1 16.024 6.162 A 4.279 4.279 0 0 1 16.25 7.566 A 4.392 4.392 0 0 1 15.974 9.136 A 4.123 4.123 0 0 1 15.665 9.776 Q 15.08 10.764 14.066 11.336 Z"/></svg>
</svg>
<svg id="arrow_down">
<svg viewBox="0 0 86.901 82.802" xmlns="http://www.w3.org/2000/svg"><path d="M 84.8 44.4 L 48.5 80.8 A 7.123 7.123 0 0 1 43.4 82.8 Q 40.5 82.8 38.4 80.8 L 2.1 44.4 A 7.88 7.88 0 0 1 0.629 42.283 A 6.759 6.759 0 0 1 0 39.4 Q 0 36.4 2.1 34.2 L 6.2 30.2 A 6.993 6.993 0 0 1 8.848 28.421 A 7.025 7.025 0 0 1 11.3 28 A 6.644 6.644 0 0 1 16.16 30.057 A 8.671 8.671 0 0 1 16.3 30.2 L 32.7 46.6 L 32.7 7.2 A 6.796 6.796 0 0 1 34.347 2.76 A 9.077 9.077 0 0 1 34.85 2.2 A 7.479 7.479 0 0 1 37.031 0.621 A 6.695 6.695 0 0 1 39.9 0 L 47 0 A 6.644 6.644 0 0 1 51.86 2.057 A 8.671 8.671 0 0 1 52 2.2 A 7.88 7.88 0 0 1 53.472 4.317 A 6.759 6.759 0 0 1 54.1 7.2 L 54.1 46.6 L 70.5 30.2 A 6.993 6.993 0 0 1 73.148 28.421 A 7.025 7.025 0 0 1 75.6 28 A 6.644 6.644 0 0 1 80.46 30.057 A 8.671 8.671 0 0 1 80.6 30.2 L 84.8 34.2 Q 86.9 36.4 86.9 39.4 A 6.926 6.926 0 0 1 85.176 43.982 A 9.141 9.141 0 0 1 84.8 44.4 Z"/></svg>
</svg>
<svg id="alt">
<svg viewBox="0 0 19.5 17.368" xmlns="http://www.w3.org/2000/svg"><path d="M 0 2.184 L 0 0 L 6.604 0 L 14.274 15.184 L 19.5 15.184 L 19.5 17.368 L 12.844 17.368 L 5.226 2.184 L 0 2.184 Z M 11.934 2.184 L 11.934 0 L 19.5 0 L 19.5 2.184 L 11.934 2.184 Z"/></svg>
</svg>
<svg id="bluetooth_4">
<svg viewBox="0 0 27.534 21.632" xmlns="http://www.w3.org/2000/svg"><path d="M 9.1 10.816 L 13.728 6.136 L 7.54 0 L 6.5 0 L 6.5 8.164 L 1.508 3.25 L 0 4.784 L 6.032 10.816 L 0 16.848 L 1.508 18.382 L 6.5 13.416 L 6.5 21.632 L 7.54 21.632 L 13.728 15.496 L 9.1 10.816 Z M 27.534 20.176 L 24.96 20.176 L 24.96 16.12 L 16.406 16.12 L 16.406 12.194 L 23.348 1.196 L 26.26 1.196 L 18.954 12.792 L 18.954 13.806 L 24.96 13.806 L 24.96 9.256 L 27.534 9.256 L 27.534 20.176 Z M 8.632 13.416 L 10.66 15.496 L 8.632 17.524 L 8.632 13.416 Z M 8.632 8.164 L 8.632 4.108 L 10.66 6.136 L 8.632 8.164 Z"/></svg>
</svg>
<svg id="bluetooth_3">
<svg viewBox="0 0 28.054 21.632" xmlns="http://www.w3.org/2000/svg"><path d="M 16.406 14.976 L 18.98 14.976 A 4.06 4.06 0 0 0 19.09 15.949 A 2.765 2.765 0 0 0 19.851 17.303 A 2.894 2.894 0 0 0 21.228 18.039 Q 21.684 18.147 22.222 18.148 A 5.263 5.263 0 0 0 22.23 18.148 A 4.208 4.208 0 0 0 23.248 18.032 A 2.94 2.94 0 0 0 24.596 17.303 A 2.785 2.785 0 0 0 25.398 15.82 A 4.12 4.12 0 0 0 25.48 14.976 L 25.48 13.65 A 4.075 4.075 0 0 0 25.363 12.644 A 2.863 2.863 0 0 0 24.609 11.297 A 2.889 2.889 0 0 0 23.151 10.52 A 4.283 4.283 0 0 0 22.23 10.426 L 20.098 10.426 L 20.098 8.268 L 24.674 3.51 L 16.978 3.51 L 16.978 1.196 L 27.56 1.196 L 27.56 3.536 L 23.036 8.216 A 6.708 6.708 0 0 1 24.727 8.578 A 4.996 4.996 0 0 1 26.702 9.867 A 4.909 4.909 0 0 1 27.947 12.405 A 6.945 6.945 0 0 1 28.054 13.65 L 28.054 14.976 A 6.522 6.522 0 0 1 27.837 16.703 A 4.752 4.752 0 0 1 26.481 18.967 A 5.265 5.265 0 0 1 24.082 20.227 Q 23.277 20.423 22.331 20.435 A 9.806 9.806 0 0 1 22.204 20.436 A 7.884 7.884 0 0 1 20.432 20.248 Q 19.106 19.943 18.158 19.139 A 4.967 4.967 0 0 1 17.966 18.967 A 4.86 4.86 0 0 1 16.504 16.176 A 7.018 7.018 0 0 1 16.406 14.976 Z M 9.1 10.816 L 13.728 6.136 L 7.54 0 L 6.5 0 L 6.5 8.164 L 1.508 3.25 L 0 4.784 L 6.032 10.816 L 0 16.848 L 1.508 18.382 L 6.5 13.416 L 6.5 21.632 L 7.54 21.632 L 13.728 15.496 L 9.1 10.816 Z M 8.632 13.416 L 10.66 15.496 L 8.632 17.524 L 8.632 13.416 Z M 8.632 8.164 L 8.632 4.108 L 10.66 6.136 L 8.632 8.164 Z"/></svg>
</svg>
<svg id="question_sentence_case">
<svg viewBox="0 0 130.6 73.501" xmlns="http://www.w3.org/2000/svg"><path d="M 47.4 45.4 L 89 3.6 L 130.6 45.4 L 109.9 45.4 L 109.9 70.4 L 68.1 70.4 L 68.1 45.4 L 47.4 45.4 Z M 17.1 51.2 L 7.6 51.2 L 7.5 33.7 L 13.2 33.7 A 17.933 17.933 0 0 0 17.235 33.272 Q 20.569 32.503 22.85 30.35 Q 26.4 27 26.4 21.5 A 14.104 14.104 0 0 0 25.894 17.624 A 10.639 10.639 0 0 0 22.8 12.6 A 12.126 12.126 0 0 0 17.323 9.764 Q 15.448 9.315 13.243 9.301 A 22.389 22.389 0 0 0 13.1 9.3 L 0 9.3 L 0 0 L 13 0 A 32.15 32.15 0 0 1 18.849 0.508 A 23.562 23.562 0 0 1 25.3 2.65 Q 30.5 5.3 33.4 10.1 Q 36.3 14.9 36.3 21.5 A 23.49 23.49 0 0 1 35.567 27.47 A 19.761 19.761 0 0 1 33.85 31.85 Q 31.4 36.4 27.1 39.1 Q 22.8 41.8 17.1 42.1 L 17.1 51.2 Z M 76.5 62 L 101.5 62 L 101.5 37 L 110.5 37 L 89 15.5 L 67.5 37 L 76.5 37 L 76.5 62 Z M 13.7 73.5 L 10.7 73.5 A 7.019 7.019 0 0 1 8.537 73.181 A 5.793 5.793 0 0 1 6.25 71.8 A 5.683 5.683 0 0 1 4.575 68.413 A 7.972 7.972 0 0 1 4.5 67.3 A 6.782 6.782 0 0 1 4.81 65.205 A 5.55 5.55 0 0 1 6.25 62.9 Q 8 61.2 10.7 61.2 L 13.7 61.2 Q 16.7 61.2 18.35 62.9 Q 20 64.6 20 67.3 A 6.824 6.824 0 0 1 19.665 69.481 A 5.765 5.765 0 0 1 18.25 71.75 A 6.162 6.162 0 0 1 18.223 71.778 Q 16.805 73.177 14.705 73.44 A 8.104 8.104 0 0 1 13.7 73.5 Z"/></svg>
</svg>
<svg id="arrow_left">
<svg viewBox="0 0 82.101 87.001" xmlns="http://www.w3.org/2000/svg"><path d="M 82.1 40.001 L 82.1 47.001 Q 82.1 50.001 80.3 52.101 A 5.825 5.825 0 0 1 76.047 54.188 A 7.67 7.67 0 0 1 75.6 54.201 L 36.3 54.201 L 52.6 70.601 A 7.982 7.982 0 0 1 54.065 72.564 A 6.503 6.503 0 0 1 54.8 75.601 A 6.684 6.684 0 0 1 53.183 79.961 A 9.071 9.071 0 0 1 52.6 80.601 L 48.5 85.001 A 6.755 6.755 0 0 1 44.077 86.976 A 9.072 9.072 0 0 1 43.4 87.001 A 7.393 7.393 0 0 1 40.768 86.547 A 6.644 6.644 0 0 1 38.4 85.001 L 2 48.601 A 6.747 6.747 0 0 1 0.002 43.793 A 8.857 8.857 0 0 1 0 43.601 A 8.34 8.34 0 0 1 0.33 41.199 A 6.559 6.559 0 0 1 2 38.401 L 38.4 2.201 Q 40.5 0.001 43.4 0.001 A 6.766 6.766 0 0 1 48.366 2.063 A 8.398 8.398 0 0 1 48.5 2.201 L 52.6 6.201 Q 54.8 8.401 54.8 11.301 A 6.921 6.921 0 0 1 52.867 16.123 A 9.149 9.149 0 0 1 52.6 16.401 L 36.3 32.801 L 75.6 32.801 A 6.504 6.504 0 0 1 77.927 33.203 A 5.822 5.822 0 0 1 80.3 34.901 A 7.445 7.445 0 0 1 82.084 39.44 A 9.593 9.593 0 0 1 82.1 40.001 Z"/></svg>
</svg>
<svg id="control">
<svg viewBox="0 0 16.848 9.984" xmlns="http://www.w3.org/2000/svg"><path d="M 8.424 0 L 16.848 8.424 L 15.34 9.984 L 8.424 3.12 L 1.508 9.984 L 0 8.424 L 8.424 0 Z"/></svg>
</svg>
<svg id="delete">
<svg viewBox="0 0 21.32 15.86" xmlns="http://www.w3.org/2000/svg"><path d="M 13.442 15.86 L 2.522 15.86 A 2.848 2.848 0 0 1 1.668 15.737 A 2.295 2.295 0 0 1 0.702 15.145 A 2.423 2.423 0 0 1 0.017 13.652 A 3.283 3.283 0 0 1 0 13.312 L 0 2.548 A 3.032 3.032 0 0 1 0.107 1.722 A 2.302 2.302 0 0 1 0.702 0.702 Q 1.404 0 2.522 0 L 13.338 0 L 21.32 8.06 L 13.442 15.86 Z M 6.084 7.904 L 1.976 11.96 L 3.848 13.806 L 7.878 9.776 L 11.83 13.754 L 13.624 11.986 L 9.646 8.008 L 13.702 3.952 L 11.83 2.106 L 7.826 6.136 L 3.796 2.106 L 2.054 3.848 L 6.084 7.904 Z"/></svg>
</svg>
<svg id="meta">
<svg viewBox="0 0 21.633 21.633" xmlns="http://www.w3.org/2000/svg"><path d="M 8.632 4.316 L 8.632 6.5 L 13 6.5 L 13 4.316 A 4.145 4.145 0 0 1 14.235 1.314 A 5.157 5.157 0 0 1 14.274 1.274 A 4.276 4.276 0 0 1 15.912 0.227 A 4.279 4.279 0 0 1 17.316 0 A 4.145 4.145 0 0 1 20.318 1.235 A 5.157 5.157 0 0 1 20.358 1.274 A 4.276 4.276 0 0 1 21.406 2.912 A 4.279 4.279 0 0 1 21.632 4.316 A 4.145 4.145 0 0 1 20.398 7.318 A 5.157 5.157 0 0 1 20.358 7.358 A 4.276 4.276 0 0 1 18.72 8.406 A 4.279 4.279 0 0 1 17.316 8.632 L 15.132 8.632 L 15.132 13 L 17.316 13 A 4.145 4.145 0 0 1 20.318 14.235 A 5.157 5.157 0 0 1 20.358 14.274 A 4.276 4.276 0 0 1 21.406 15.912 A 4.279 4.279 0 0 1 21.632 17.316 A 4.145 4.145 0 0 1 20.398 20.318 A 5.157 5.157 0 0 1 20.358 20.358 A 4.276 4.276 0 0 1 18.72 21.406 A 4.279 4.279 0 0 1 17.316 21.632 A 4.145 4.145 0 0 1 14.314 20.398 A 5.157 5.157 0 0 1 14.274 20.358 A 4.276 4.276 0 0 1 13.227 18.72 A 4.279 4.279 0 0 1 13 17.316 L 13 15.132 L 8.632 15.132 L 8.632 17.316 A 4.145 4.145 0 0 1 7.398 20.318 A 5.157 5.157 0 0 1 7.358 20.358 A 4.276 4.276 0 0 1 5.72 21.406 A 4.279 4.279 0 0 1 4.316 21.632 A 4.145 4.145 0 0 1 1.314 20.398 A 5.157 5.157 0 0 1 1.274 20.358 A 4.276 4.276 0 0 1 0.227 18.72 A 4.279 4.279 0 0 1 0 17.316 A 4.145 4.145 0 0 1 1.235 14.314 A 5.157 5.157 0 0 1 1.274 14.274 A 4.276 4.276 0 0 1 2.912 13.227 A 4.279 4.279 0 0 1 4.316 13 L 6.5 13 L 6.5 8.632 L 4.316 8.632 A 4.145 4.145 0 0 1 1.314 7.398 A 5.157 5.157 0 0 1 1.274 7.358 A 4.276 4.276 0 0 1 0.227 5.72 A 4.279 4.279 0 0 1 0 4.316 A 4.145 4.145 0 0 1 1.235 1.314 A 5.157 5.157 0 0 1 1.274 1.274 A 4.276 4.276 0 0 1 2.912 0.227 A 4.279 4.279 0 0 1 4.316 0 A 4.145 4.145 0 0 1 7.318 1.235 A 5.157 5.157 0 0 1 7.358 1.274 A 4.276 4.276 0 0 1 8.406 2.912 A 4.279 4.279 0 0 1 8.632 4.316 Z M 13 13 L 13 8.632 L 8.632 8.632 L 8.632 13 L 13 13 Z M 6.5 15.132 L 4.316 15.132 A 2.104 2.104 0 0 0 2.789 15.75 A 2.503 2.503 0 0 0 2.769 15.769 A 2.103 2.103 0 0 0 2.132 17.288 A 2.581 2.581 0 0 0 2.132 17.316 A 2.104 2.104 0 0 0 2.75 18.843 A 2.503 2.503 0 0 0 2.769 18.863 A 2.103 2.103 0 0 0 4.288 19.5 A 2.581 2.581 0 0 0 4.316 19.5 A 2.104 2.104 0 0 0 5.843 18.883 A 2.503 2.503 0 0 0 5.863 18.863 A 2.103 2.103 0 0 0 6.5 17.345 A 2.581 2.581 0 0 0 6.5 17.316 L 6.5 15.132 Z M 6.5 6.5 L 6.5 4.316 A 2.104 2.104 0 0 0 5.883 2.789 A 2.503 2.503 0 0 0 5.863 2.769 A 2.103 2.103 0 0 0 4.345 2.132 A 2.581 2.581 0 0 0 4.316 2.132 A 2.104 2.104 0 0 0 2.789 2.75 A 2.503 2.503 0 0 0 2.769 2.769 A 2.103 2.103 0 0 0 2.132 4.288 A 2.581 2.581 0 0 0 2.132 4.316 A 2.104 2.104 0 0 0 2.75 5.843 A 2.503 2.503 0 0 0 2.769 5.863 A 2.103 2.103 0 0 0 4.288 6.5 A 2.581 2.581 0 0 0 4.316 6.5 L 6.5 6.5 Z M 15.132 6.5 L 17.316 6.5 A 2.104 2.104 0 0 0 18.843 5.883 A 2.503 2.503 0 0 0 18.863 5.863 A 2.103 2.103 0 0 0 19.5 4.345 A 2.581 2.581 0 0 0 19.5 4.316 A 2.104 2.104 0 0 0 18.883 2.789 A 2.503 2.503 0 0 0 18.863 2.769 A 2.103 2.103 0 0 0 17.345 2.132 A 2.581 2.581 0 0 0 17.316 2.132 A 2.104 2.104 0 0 0 15.789 2.75 A 2.503 2.503 0 0 0 15.769 2.769 A 2.103 2.103 0 0 0 15.132 4.288 A 2.581 2.581 0 0 0 15.132 4.316 L 15.132 6.5 Z M 15.132 15.132 L 15.132 17.316 A 2.104 2.104 0 0 0 15.75 18.843 A 2.503 2.503 0 0 0 15.769 18.863 A 2.103 2.103 0 0 0 17.288 19.5 A 2.581 2.581 0 0 0 17.316 19.5 A 2.104 2.104 0 0 0 18.843 18.883 A 2.503 2.503 0 0 0 18.863 18.863 A 2.103 2.103 0 0 0 19.5 17.345 A 2.581 2.581 0 0 0 19.5 17.316 A 2.104 2.104 0 0 0 18.883 15.789 A 2.503 2.503 0 0 0 18.863 15.769 A 2.103 2.103 0 0 0 17.345 15.132 A 2.581 2.581 0 0 0 17.316 15.132 L 15.132 15.132 Z"/></svg>
</svg>
<svg id="led_off">
<svg viewBox="0 0 13 18.408" xmlns="http://www.w3.org/2000/svg"><path d="M 2.184 4.316 L 2.184 10.816 L 0 10.816 L 0 13 L 3.25 13 L 3.25 18.408 L 5.434 18.408 L 5.434 13 L 7.566 13 L 7.566 18.408 L 9.75 18.408 L 9.75 13 L 13 13 L 13 10.816 L 10.816 10.816 L 10.816 4.316 A 4.145 4.145 0 0 0 9.582 1.314 A 5.157 5.157 0 0 0 9.542 1.274 A 4.276 4.276 0 0 0 7.904 0.227 A 4.279 4.279 0 0 0 6.5 0 A 4.145 4.145 0 0 0 3.498 1.235 A 5.157 5.157 0 0 0 3.458 1.274 A 4.276 4.276 0 0 0 2.411 2.912 A 4.279 4.279 0 0 0 2.184 4.316 Z M 8.684 4.316 L 8.684 9.724 L 4.316 9.724 L 4.316 4.316 A 2.029 2.029 0 0 1 4.923 2.838 A 2.491 2.491 0 0 1 4.953 2.808 Q 5.59 2.184 6.5 2.184 A 2.19 2.19 0 0 1 7.473 2.399 A 2.192 2.192 0 0 1 8.047 2.808 A 2.065 2.065 0 0 1 8.593 3.684 A 2.142 2.142 0 0 1 8.684 4.316 Z"/></svg>
</svg>
<svg id="bluetooth_5">
<svg viewBox="0 0 28.158 21.632" xmlns="http://www.w3.org/2000/svg"><path d="M 16.536 14.976 L 19.11 14.976 A 4.06 4.06 0 0 0 19.22 15.949 A 2.765 2.765 0 0 0 19.981 17.303 A 2.913 2.913 0 0 0 21.427 18.057 A 4.285 4.285 0 0 0 22.334 18.148 A 4.272 4.272 0 0 0 23.333 18.038 A 2.882 2.882 0 0 0 24.713 17.29 Q 25.584 16.432 25.584 14.95 L 25.584 13.754 A 4.191 4.191 0 0 0 25.475 12.769 A 2.838 2.838 0 0 0 24.739 11.414 Q 23.894 10.556 22.438 10.556 L 17.186 10.556 L 17.186 1.196 L 27.482 1.196 L 27.482 3.536 L 19.578 3.536 L 19.63 8.242 L 22.568 8.242 A 7.823 7.823 0 0 1 24.234 8.409 Q 25.301 8.641 26.103 9.199 A 4.517 4.517 0 0 1 26.689 9.685 A 4.7 4.7 0 0 1 27.934 11.883 Q 28.158 12.728 28.158 13.754 L 28.158 14.95 Q 28.158 17.498 26.585 18.967 A 5.282 5.282 0 0 1 24.134 20.242 Q 23.307 20.436 22.334 20.436 A 7.884 7.884 0 0 1 20.562 20.248 Q 19.236 19.943 18.288 19.139 A 4.967 4.967 0 0 1 18.096 18.967 A 4.86 4.86 0 0 1 16.634 16.176 A 7.018 7.018 0 0 1 16.536 14.976 Z M 9.1 10.816 L 13.728 6.136 L 7.54 0 L 6.5 0 L 6.5 8.164 L 1.508 3.25 L 0 4.784 L 6.032 10.816 L 0 16.848 L 1.508 18.382 L 6.5 13.416 L 6.5 21.632 L 7.54 21.632 L 13.728 15.496 L 9.1 10.816 Z M 8.632 13.416 L 10.66 15.496 L 8.632 17.524 L 8.632 13.416 Z M 8.632 8.164 L 8.632 4.108 L 10.66 6.136 L 8.632 8.164 Z"/></svg>
</svg>
<svg id="bluetooth_2">
<svg viewBox="0 0 28.444 21.632" xmlns="http://www.w3.org/2000/svg"><path d="M 28.444 20.176 L 16.822 20.176 L 16.822 17.81 L 23.27 10.998 A 14.777 14.777 0 0 0 24.044 10.13 Q 24.701 9.327 25.051 8.619 A 5.379 5.379 0 0 0 25.451 7.55 A 4.291 4.291 0 0 0 25.584 6.5 A 4.161 4.161 0 0 0 25.463 5.471 A 2.98 2.98 0 0 0 24.726 4.121 A 2.847 2.847 0 0 0 23.103 3.28 A 4.081 4.081 0 0 0 22.412 3.224 A 4.041 4.041 0 0 0 21.389 3.347 A 2.885 2.885 0 0 0 20.02 4.134 A 3.032 3.032 0 0 0 19.24 5.608 A 4.488 4.488 0 0 0 19.136 6.604 L 16.562 6.604 A 7.011 7.011 0 0 1 16.819 4.804 A 5.138 5.138 0 0 1 18.213 2.47 A 5.41 5.41 0 0 1 21.101 1.044 A 7.617 7.617 0 0 1 22.412 0.936 Q 25.064 0.936 26.637 2.444 A 5.02 5.02 0 0 1 28.132 5.401 A 7.112 7.112 0 0 1 28.21 6.474 A 5.847 5.847 0 0 1 27.953 8.152 A 7.894 7.894 0 0 1 27.482 9.347 A 9.019 9.019 0 0 1 26.793 10.51 Q 26.404 11.075 25.889 11.677 A 20.648 20.648 0 0 1 25.012 12.636 L 19.968 17.836 L 28.444 17.836 L 28.444 20.176 Z M 9.1 10.816 L 13.728 6.136 L 7.54 0 L 6.5 0 L 6.5 8.164 L 1.508 3.25 L 0 4.784 L 6.032 10.816 L 0 16.848 L 1.508 18.382 L 6.5 13.416 L 6.5 21.632 L 7.54 21.632 L 13.728 15.496 L 9.1 10.816 Z M 8.632 13.416 L 10.66 15.496 L 8.632 17.524 L 8.632 13.416 Z M 8.632 8.164 L 8.632 4.108 L 10.66 6.136 L 8.632 8.164 Z"/></svg>
</svg>
<svg id="arrow_right">
<svg viewBox="0 0 82.101 87.001" xmlns="http://www.w3.org/2000/svg"><path d="M 80.1 48.601 L 43.8 85.001 A 6.755 6.755 0 0 1 39.377 86.976 A 9.072 9.072 0 0 1 38.7 87.001 A 7.853 7.853 0 0 1 36.2 86.618 A 6.583 6.583 0 0 1 33.6 85.001 L 29.5 80.801 Q 27.3 78.601 27.3 75.701 A 6.921 6.921 0 0 1 29.234 70.878 A 9.149 9.149 0 0 1 29.5 70.601 L 45.8 54.201 L 6.5 54.201 A 6.504 6.504 0 0 1 4.173 53.799 A 5.822 5.822 0 0 1 1.8 52.101 A 7.445 7.445 0 0 1 0.017 47.561 A 9.593 9.593 0 0 1 0 47.001 L 0 40.001 Q 0 37.001 1.8 34.901 A 5.825 5.825 0 0 1 6.054 32.814 A 7.67 7.67 0 0 1 6.5 32.801 L 45.8 32.801 L 29.5 16.401 A 7.982 7.982 0 0 1 28.036 14.438 A 6.503 6.503 0 0 1 27.3 11.401 A 6.684 6.684 0 0 1 28.918 7.04 A 9.071 9.071 0 0 1 29.5 6.401 L 33.6 2.201 A 6.993 6.993 0 0 1 36.248 0.422 A 7.025 7.025 0 0 1 38.7 0.001 A 6.766 6.766 0 0 1 43.666 2.063 A 8.398 8.398 0 0 1 43.8 2.201 L 80.1 38.401 A 6.735 6.735 0 0 1 82.03 42.443 A 9.255 9.255 0 0 1 82.1 43.601 A 7.393 7.393 0 0 1 81.646 46.233 A 6.644 6.644 0 0 1 80.1 48.601 Z"/></svg>
</svg>
<svg id="return">
<svg viewBox="0 0 20.566 13" xmlns="http://www.w3.org/2000/svg"><path d="M 20.566 1.066 L 20.566 7.566 L 4.108 7.566 L 8.034 11.466 L 6.5 13 L 0 6.5 L 6.5 0 L 8.034 1.534 L 4.108 5.434 L 18.382 5.434 L 18.382 1.066 L 20.566 1.066 Z"/></svg>
</svg>
<svg id="arrow_up">
<svg viewBox="0 0 86.901 82.201" xmlns="http://www.w3.org/2000/svg"><path d="M 84.8 48.601 L 80.6 52.801 Q 78.5 54.801 75.6 54.801 Q 72.6 54.801 70.5 52.801 L 54.1 36.401 L 54.1 75.601 A 7.094 7.094 0 0 1 53.769 77.821 A 5.778 5.778 0 0 1 52.05 80.401 A 7.201 7.201 0 0 1 47.758 82.171 A 9.425 9.425 0 0 1 47 82.201 L 39.9 82.201 Q 36.9 82.201 34.8 80.401 A 5.899 5.899 0 0 1 32.716 76.108 A 8.15 8.15 0 0 1 32.7 75.601 L 32.7 36.401 L 16.3 52.801 Q 14.2 54.801 11.3 54.801 Q 8.4 54.801 6.3 52.801 L 2.1 48.601 A 7.88 7.88 0 0 1 0.629 46.484 A 6.759 6.759 0 0 1 0 43.601 Q 0 40.601 2.1 38.401 L 38.4 2.201 Q 40.5 0.001 43.4 0.001 A 6.766 6.766 0 0 1 48.366 2.063 A 8.398 8.398 0 0 1 48.5 2.201 L 84.8 38.401 Q 86.9 40.601 86.9 43.601 A 6.926 6.926 0 0 1 85.176 48.183 A 9.141 9.141 0 0 1 84.8 48.601 Z"/></svg>
</svg>
<svg id="backspace">
<svg viewBox="0 0 21.32 15.86" xmlns="http://www.w3.org/2000/svg"><path d="M 18.798 15.86 L 7.878 15.86 L 0 8.06 L 7.982 0 L 18.798 0 A 3.022 3.022 0 0 1 19.607 0.103 A 2.25 2.25 0 0 1 20.631 0.702 A 2.367 2.367 0 0 1 21.28 2.02 A 3.323 3.323 0 0 1 21.32 2.548 L 21.32 13.312 A 2.963 2.963 0 0 1 21.199 14.18 A 2.367 2.367 0 0 1 20.631 15.145 A 2.296 2.296 0 0 1 19.277 15.826 A 3.231 3.231 0 0 1 18.798 15.86 Z M 17.472 13.806 L 19.344 11.96 L 15.236 7.904 L 19.266 3.848 L 17.524 2.106 L 13.494 6.136 L 9.49 2.106 L 7.618 3.952 L 11.674 8.008 L 7.696 11.986 L 9.49 13.754 L 13.442 9.776 L 17.472 13.806 Z"/></svg>
</svg>
</defs>/* end glyphs */
<style>/* reusable color variables. palette taken from https://github.com/rebelot/kanagawa.nvim */
:root {
    --background-color: #1F1F28;
    --foreground-color: #E6C384;
    --held-color: #98BB6C;
    --shifted-color: #DCD7BA;
    --layer-color: #C34043;
    --combo-color: #938AA9;
    --keycap-color: #727169;

    fill: var(--foreground-color);
    background-color: var(--background-color);
    font-family: JetBrainsMono NFM,SFMono-Regular,Consolas,Liberation Mono,Menlo,monospace;
    font-size: 14px;
    font-weight: bold;
    text-anchor: middle;
    dominant-baseline: middle;
    font-weight: bold;
}

rect {
    fill: var(--background-color);
    stroke: var(--keycap-color);
    stroke-width: 0.5;
}

.label {
    font-size: 24px;
    text-anchor: start;
    fill: var(--layer-color);
    paint-order: stroke;
}

.shifted {
    font-size: 12px;
    text-anchor: middle;
    dominant-baseline: hanging;
    fill: var(--shifted-color);
}

.hold {
    font-size: 12px;
    fill: var(--held-color);
    text-anchor: middle;
    dominant-baseline: auto;
}

path.combo {
    stroke-width: 1;
    stroke: var(--combo-color);
    fill: none;
}

rect.combo {
    stroke: var(--combo-color);
    stroke-width: 1.0;
}

rect.vertical_combo {
    stroke: none;
    fill: none;
}

text.vertical_combo {
    font-size: 22px;
    text-anchor: middle;
    dominant-baseline: middle;
}
</style>
<g class="layer-BASE">
<text x="10.0" y="20.0" class="label">BASE</text>
<rect rx="6.0" ry="6.0" x="15.0" y="147.13" width="64.13" height="60.0" class="key"/>
<text x="47.065" y="177.13" class="tap">J</text>
<rect rx="6.0" ry="6.0" x="89.13" y="97.71000000000001" width="64.13" height="60.0" class="key"/>
<text x="121.195" y="127.71000000000001" class="tap">G</text>
<rect rx="6.0" ry="6.0" x="163.26" y="73.0" width="64.13" height="60.0" class="key"/>
<text x="195.325" y="103.0" class="tap">M</text>
<rect rx="6.0" ry="6.0" x="237.39" y="100.23000000000002" width="64.13" height="60.0" class="key"/>
<text x="269.455" y="130.23000000000002" class="tap">P</text>
<rect rx="6.0" ry="6.0" x="311.52" y="110.03" width="64.13" height="60.0" class="key"/>
<text x="343.585" y="140.03" class="tap">V</text>
<rect rx="6.0" ry="6.0" x="628.48" y="110.03" width="64.13" height="60.0" class="key"/>
<text x="660.545" y="140.03" class="tap">;</text>
<text x="660.545" y="117.03" class="shifted">:</text>
<rect rx="6.0" ry="6.0" x="702.6100000000001" y="100.23000000000002" width="64.13" height="60.0" class="key"/>
<text x="734.6750000000001" y="130.23000000000002" class="tap">.</text>
<use href="#dot_sentence_case" xlink:href="#dot_sentence_case" x="726.0315340909092" y="143.23000000000002" height="10" width="17.286931818181817" class="hold glyph dot_sentence_case"/>
<text x="734.6750000000001" y="107.23000000000002" class="shifted">&amp;</text>
<rect rx="6.0" ry="6.0" x="776.74" y="73.0" width="64.13" height="60.0" class="key"/>
<text x="808.8050000000001" y="103.0" class="tap">/</text>
<text x="808.8050000000001" y="80.0" class="shifted">*</text>
<rect rx="6.0" ry="6.0" x="850.8700000000001" y="97.71000000000001" width="64.13" height="60.0" class="key"/>
<text x="882.9350000000001" y="127.71000000000001" class="tap">&quot;</text>
<text x="882.9350000000001" y="150.71" class="hold">&quot;⌄&quot;</text>
<text x="882.9350000000001" y="104.71000000000001" class="shifted">#</text>
<rect rx="6.0" ry="6.0" x="925.0" y="147.13" width="64.13" height="60.0" class="key"/>
<text x="957.065" y="177.13" class="tap">&#x27;</text>
<text x="957.065" y="200.13" class="hold">&#x27;⌄&#x27;</text>
<text x="957.065" y="154.13" class="shifted">$</text>
<rect rx="6.0" ry="6.0" x="15.0" y="217.13000000000002" width="64.13" height="60.0" class="key"/>
<text x="47.065" y="247.13000000000002" class="tap">R</text>
<use href="#meta" xlink:href="#meta" x="42.065" y="260.13" height="10" width="10.0" class="hold glyph meta"/>
<rect rx="6.0" ry="6.0" x="89.13" y="167.71" width="64.13" height="60.0" class="key"/>
<text x="121.195" y="197.71" class="tap">S</text>
<use href="#alt" xlink:href="#alt" x="115.58122754491018" y="210.71" height="10" width="11.227544910179642" class="hold glyph alt"/>
<rect rx="6.0" ry="6.0" x="163.26" y="143.0" width="64.13" height="60.0" class="key"/>
<text x="195.325" y="173.0" class="tap">N</text>
<use href="#control" xlink:href="#control" x="186.8875" y="186.0" height="10" width="16.875" class="hold glyph control"/>
<rect rx="6.0" ry="6.0" x="237.39" y="170.23" width="64.13" height="60.0" class="key"/>
<text x="269.455" y="200.23" class="tap">D</text>
<use href="#shift" xlink:href="#shift" x="263.22745508982035" y="213.23" height="10" width="12.455089820359284" class="hold glyph shift"/>
<rect rx="6.0" ry="6.0" x="311.52" y="180.03" width="64.13" height="60.0" class="key"/>
<text x="343.585" y="210.03" class="tap">B</text>
<rect rx="6.0" ry="6.0" x="628.48" y="180.03" width="64.13" height="60.0" class="key"/>
<text x="660.545" y="210.03" class="tap">,</text>
<text x="660.545" y="187.03" class="shifted">|</text>
<rect rx="6.0" ry="6.0" x="702.6100000000001" y="170.23" width="64.13" height="60.0" class="key"/>
<text x="734.6750000000001" y="200.23" class="tap">A</text>
<use href="#shift" xlink:href="#shift" x="728.4474550898204" y="213.23" height="10" width="12.455089820359284" class="hold glyph shift"/>
<rect rx="6.0" ry="6.0" x="776.74" y="143.0" width="64.13" height="60.0" class="key"/>
<text x="808.8050000000001" y="173.0" class="tap">E</text>
<use href="#control" xlink:href="#control" x="800.3675000000001" y="186.0" height="10" width="16.875" class="hold glyph control"/>
<rect rx="6.0" ry="6.0" x="850.8700000000001" y="167.71" width="64.13" height="60.0" class="key"/>
<text x="882.9350000000001" y="197.71" class="tap">I</text>
<use href="#alt" xlink:href="#alt" x="877.3212275449102" y="210.71" height="10" width="11.227544910179642" class="hold glyph alt"/>
<rect rx="6.0" ry="6.0" x="925.0" y="217.13000000000002" width="64.13" height="60.0" class="key"/>
<text x="957.065" y="247.13000000000002" class="tap">H</text>
<use href="#meta" xlink:href="#meta" x="952.065" y="260.13" height="10" width="10.0" class="hold glyph meta"/>
<rect rx="6.0" ry="6.0" x="15.0" y="287.13" width="64.13" height="60.0" class="key"/>
<text x="47.065" y="317.13" class="tap">X</text>
<rect rx="6.0" ry="6.0" x="89.13" y="237.71000000000004" width="64.13" height="60.0" class="key"/>
<text x="121.195" y="267.71000000000004" class="tap">F</text>
<rect rx="6.0" ry="6.0" x="163.26" y="213.0" width="64.13" height="60.0" class="key"/>
<text x="195.325" y="243.0" class="tap">L</text>
<rect rx="6.0" ry="6.0" x="237.39" y="240.3" width="64.13" height="60.0" class="key"/>
<text x="269.455" y="270.3" class="tap">C</text>
<rect rx="6.0" ry="6.0" x="311.52" y="250.02999999999997" width="64.13" height="60.0" class="key"/>
<text x="343.585" y="280.03" class="tap">W</text>
<rect rx="6.0" ry="6.0" x="628.48" y="250.02999999999997" width="64.13" height="60.0" class="key"/>
<text x="660.545" y="280.03" class="tap">-</text>
<text x="660.545" y="257.03" class="shifted">+</text>
<rect rx="6.0" ry="6.0" x="702.6100000000001" y="240.3" width="64.13" height="60.0" class="key"/>
<text x="734.6750000000001" y="270.3" class="tap">U</text>
<rect rx="6.0" ry="6.0" x="776.74" y="213.0" width="64.13" height="60.0" class="key"/>
<text x="808.8050000000001" y="243.0" class="tap">O</text>
<rect rx="6.0" ry="6.0" x="850.8700000000001" y="237.71000000000004" width="64.13" height="60.0" class="key"/>
<text x="882.9350000000001" y="267.71000000000004" class="tap">Y</text>
<rect rx="6.0" ry="6.0" x="925.0" y="287.13" width="64.13" height="60.0" class="key"/>
<text x="957.065" y="317.13" class="tap">K</text>
<rect rx="6.0" ry="6.0" x="213.03000000000003" y="322.48" width="64.13" height="60.0" class="key"/>
<use href="#backspace" xlink:href="#backspace" x="237.02942622950823" y="346.48" height="12" width="16.13114754098361" class="tap glyph backspace"/>
<use href="#delete" xlink:href="#delete" x="238.3736885245902" y="329.48" height="10" width="13.442622950819672" class="shifted glyph delete"/>
<g transform="rotate(15.0, 327.69619259607987, 363.1109413334214)">
<rect rx="6.0" ry="6.0" x="295.63119259607987" y="333.1109413334214" width="64.13" height="60.0" class="key"/>
<text x="327.69619259607987" y="363.1109413334214" class="tap">T</text>
<text x="327.69619259607987" y="386.1109413334214" class="hold">NAV_NUM</text>
</g>
<g transform="rotate(30.0, 410.7419684303176, 375.33500000000004)">
<rect rx="6.0" ry="6.0" x="380.7419684303176" y="324.75500000000005" width="60.0" height="101.16000000000001" class="key"/>
<text x="410.7419684303176" y="375.33500000000004" class="tap">Tab</text>
</g>
<g transform="rotate(-30.0, 589.2580315696824, 375.33500000000004)">
<rect rx="6.0" ry="6.0" x="559.2580315696824" y="324.75500000000005" width="60.0" height="101.16000000000001" class="key"/>
<use href="#return" xlink:href="#return" x="579.7660315696825" y="369.33500000000004" height="12" width="18.984" class="tap glyph return"/>
</g>
<g transform="rotate(-15.0, 676.293081066494, 362.042018677148)">
<rect rx="6.0" ry="6.0" x="644.228081066494" y="332.042018677148" width="64.13" height="60.0" class="key"/>
<text x="676.293081066494" y="362.042018677148" class="tap">‿</text>
<text x="676.293081066494" y="385.042018677148" class="hold">NAV_NUM</text>
</g>
<rect rx="6.0" ry="6.0" x="726.97" y="322.48" width="64.13" height="60.0" class="key"/>
<text x="759.035" y="352.48" class="tap">Esc</text>
<rect rx="6.0" ry="6.0" x="64.13" y="122.42000000000002" width="40.0" height="60.0" class="combo"/>
<text x="84.13" y="152.42000000000002" class="combo tap">Z</text>
<rect rx="6.0" ry="6.0" x="64.13" y="192.42000000000002" width="40.0" height="60.0" class="combo"/>
<text x="84.13" y="222.42000000000002" class="combo tap">Qu</text>
<rect rx="6.0" ry="6.0" x="64.13" y="262.42" width="40.0" height="60.0" class="combo"/>
<text x="84.13" y="292.42" class="combo tap">Q</text>
<rect rx="6.0" ry="6.0" x="212.39" y="156.615" width="40.0" height="60.0" class="combo"/>
<text x="232.39" y="186.615" class="combo tap">Th</text>
<rect rx="6.0" ry="6.0" x="212.39" y="226.64999999999998" width="40.0" height="60.0" class="combo"/>
<text x="232.39" y="256.65" class="combo tap">Ch</text>
<rect rx="6.0" ry="6.0" x="138.26" y="155.35500000000002" width="40.0" height="60.0" class="combo"/>
<text x="158.26" y="185.35500000000002" class="combo tap">Sh</text>
<rect rx="6.0" ry="6.0" x="138.26" y="225.35500000000002" width="40.0" height="60.0" class="combo"/>
<text x="158.26" y="255.35500000000002" class="combo tap">Wh</text>
<rect rx="6.0" ry="6.0" x="138.26" y="85.355" width="40.0" height="60.0" class="combo"/>
<text x="158.26" y="115.355" class="combo tap">Gh</text>
<rect rx="6.0" ry="6.0" x="212.39" y="86.61500000000001" width="40.0" height="60.0" class="combo"/>
<text x="232.39" y="116.61500000000001" class="combo tap">Ph</text>
<path d="M502.06500000000005,240.53 h-205.63170000000005 a20.0,20.0 0 0 1 -20.0,-20.0 v3.033333333333321" class="combo"/>
<path d="M502.06500000000005,240.53 h205.6317 a20.0,20.0 0 0 0 20.0,-20.0 v3.033333333333321" class="combo"/>
<rect rx="6.0" ry="6.0" x="482.06500000000005" y="210.53" width="40.0" height="60.0" class="combo"/>
<text x="502.06500000000005" y="240.53" class="combo tap">
<tspan x="502.06500000000005" dy="-0.6em">caps</tspan><tspan x="502.06500000000005" dy="1.2em">word</tspan></text>
<rect rx="6.0" ry="6.0" x="751.74" y="156.615" width="40.0" height="60.0" class="combo"/>
<text x="771.74" y="186.615" class="combo tap">(</text>
<text x="771.74" y="209.615" class="combo hold">(⌄)</text>
<text x="771.74" y="163.615" class="combo shifted">)</text>
<rect rx="6.0" ry="6.0" x="751.74" y="226.64999999999998" width="40.0" height="60.0" class="combo"/>
<text x="771.74" y="256.65" class="combo tap">&lt;</text>
<text x="771.74" y="279.65" class="combo hold">&lt;⌄&gt;</text>
<text x="771.74" y="233.64999999999998" class="combo shifted">&gt;</text>
<rect rx="6.0" ry="6.0" x="825.8700000000001" y="155.35500000000002" width="40.0" height="60.0" class="combo"/>
<text x="845.8700000000001" y="185.35500000000002" class="combo tap">{</text>
<text x="845.8700000000001" y="208.35500000000002" class="combo hold">{⌄}</text>
<text x="845.8700000000001" y="162.35500000000002" class="combo shifted">}</text>
<rect rx="6.0" ry="6.0" x="825.8700000000001" y="225.35500000000002" width="40.0" height="60.0" class="combo"/>
<text x="845.8700000000001" y="255.35500000000002" class="combo tap">[</text>
<text x="845.8700000000001" y="278.355" class="combo hold">[⌄]</text>
<text x="845.8700000000001" y="232.35500000000002" class="combo shifted">]</text>
<rect rx="6.0" ry="6.0" x="900.0" y="122.42000000000002" width="40.0" height="60.0" class="combo"/>
<text x="920.0" y="152.42000000000002" class="combo tap">`</text>
<text x="920.0" y="175.42000000000002" class="combo hold">`⌄`</text>
<text x="920.0" y="129.42000000000002" class="combo shifted">~</text>
<rect rx="6.0" ry="6.0" x="825.8700000000001" y="85.355" width="40.0" height="60.0" class="combo"/>
<text x="845.8700000000001" y="115.355" class="combo tap">=</text>
<text x="845.8700000000001" y="92.355" class="combo shifted">%</text>
<rect rx="6.0" ry="6.0" x="751.74" y="86.61500000000001" width="40.0" height="60.0" class="combo"/>
<text x="771.74" y="116.61500000000001" class="combo tap">_</text>
<text x="771.74" y="93.61500000000001" class="combo shifted">\</text>
<rect rx="6.0" ry="6.0" x="900.0" y="192.42000000000002" width="40.0" height="60.0" class="combo"/>
<text x="920.0" y="222.42000000000002" class="combo tap">!</text>
<use href="#exclamation_sentence_case" xlink:href="#exclamation_sentence_case" x="911.7755102040817" y="235.42000000000002" height="10" width="16.448979591836736" class="combo hold glyph exclamation_sentence_case"/>
<text x="920.0" y="199.42000000000002" class="combo shifted">@</text>
<rect rx="6.0" ry="6.0" x="900.0" y="262.42" width="40.0" height="60.0" class="combo"/>
<text x="920.0" y="292.42" class="combo tap">?</text>
<use href="#question_sentence_case" xlink:href="#question_sentence_case" x="911.1157671324199" y="305.42" height="10" width="17.768465735160063" class="combo hold glyph question_sentence_case"/>
<text x="920.0" y="269.42" class="combo shifted">^</text>
<path d="M501.9946368312869,435.6109413334214 h-154.29844423520706 a20.0,20.0 0 0 1 -20.0,-20.0 v-29.166666666666668" class="combo"/>
<path d="M501.9946368312869,435.6109413334214 h154.29844423520706 a20.0,20.0 0 0 0 20.0,-20.0 v-30.23558932294007" class="combo"/>
<rect rx="6.0" ry="6.0" x="481.9946368312869" y="405.6109413334214" width="40.0" height="60.0" class="combo"/>
<text x="501.9946368312869" y="435.6109413334214" class="combo tap">
<tspan x="501.9946368312869" dy="-0.6em">num</tspan><tspan x="501.9946368312869" dy="1.2em">word</tspan></text>
<rect rx="6.0" ry="6.0" x="640.545" y="145.03" width="40.0" height="60.0" class="vertical_combo"/>
<text x="660.545" y="175.03" class="vertical_combo tap">0</text>
<rect rx="6.0" ry="6.0" x="714.6750000000001" y="135.23" width="40.0" height="60.0" class="vertical_combo"/>
<text x="734.6750000000001" y="165.23" class="vertical_combo tap">2</text>
<rect rx="6.0" ry="6.0" x="788.8050000000001" y="108.0" width="40.0" height="60.0" class="vertical_combo"/>
<text x="808.8050000000001" y="138.0" class="vertical_combo tap">4</text>
<rect rx="6.0" ry="6.0" x="862.9350000000001" y="132.71" width="40.0" height="60.0" class="vertical_combo"/>
<text x="882.9350000000001" y="162.71" class="vertical_combo tap">6</text>
<rect rx="6.0" ry="6.0" x="714.6750000000001" y="205.265" width="40.0" height="60.0" class="vertical_combo"/>
<text x="734.6750000000001" y="235.265" class="vertical_combo tap">8</text>
<rect rx="6.0" ry="6.0" x="323.585" y="145.03" width="40.0" height="60.0" class="vertical_combo"/>
<text x="343.585" y="175.03" class="vertical_combo tap">1</text>
<rect rx="6.0" ry="6.0" x="249.45499999999998" y="135.23" width="40.0" height="60.0" class="vertical_combo"/>
<text x="269.455" y="165.23" class="vertical_combo tap">3</text>
<rect rx="6.0" ry="6.0" x="175.325" y="108.0" width="40.0" height="60.0" class="vertical_combo"/>
<text x="195.325" y="138.0" class="vertical_combo tap">5</text>
<rect rx="6.0" ry="6.0" x="101.195" y="132.71" width="40.0" height="60.0" class="vertical_combo"/>
<text x="121.195" y="162.71" class="vertical_combo tap">7</text>
<rect rx="6.0" ry="6.0" x="249.45499999999998" y="205.265" width="40.0" height="60.0" class="vertical_combo"/>
<text x="269.455" y="235.265" class="vertical_combo tap">9</text>
<path d="M158.26,37.5 h-91.195 a20.0,20.0 0 0 0 -20.0,20.0 v96.29666666666667" class="combo"/>
<path d="M158.26,37.5 h-17.064999999999998 a20.0,20.0 0 0 0 -20.0,20.0 v46.87666666666668" class="combo"/>
<path d="M158.26,37.5 h17.064999999999998 a20.0,20.0 0 0 1 20.0,20.0 v22.166666666666668" class="combo"/>
<path d="M158.26,37.5 h91.195 a20.0,20.0 0 0 1 20.0,20.0 v49.39666666666669" class="combo"/>
<rect rx="6.0" ry="6.0" x="138.26" y="7.5" width="40.0" height="60.0" class="combo"/>
<text x="158.26" y="37.5" class="combo tap">
<tspan x="158.26" dy="-1.2em">FN</tspan><tspan x="158.26" dy="1.2em">one</tspan><tspan x="158.26" dy="1.2em">shot</tspan></text>
</g>
<g class="layer-NAV_NUM">
<text x="10.0" y="495.96869194233915" class="label">NAV_NUM</text>
<rect rx="6.0" ry="6.0" x="15.0" y="595.0986919423391" width="64.13" height="60.0" class="key"/>
<rect rx="6.0" ry="6.0" x="89.13" y="545.6786919423391" width="64.13" height="60.0" class="key"/>
<text x="121.195" y="575.6786919423391" class="tap">
<tspan x="121.195" dy="-0.6em">Page</tspan><tspan x="121.195" dy="1.2em">Down</tspan></text>
<rect rx="6.0" ry="6.0" x="163.26" y="520.9686919423391" width="64.13" height="60.0" class="key"/>
<use href="#arrow_up" xlink:href="#arrow_up" x="188.98193848006713" y="544.9686919423391" height="12" width="12.686123039865695" class="tap glyph arrow_up"/>
<rect rx="6.0" ry="6.0" x="237.39" y="548.1986919423391" width="64.13" height="60.0" class="key"/>
<text x="269.455" y="578.1986919423391" class="tap">
<tspan x="269.455" dy="-0.6em">Page</tspan><tspan x="269.455" dy="1.2em">Up</tspan></text>
<rect rx="6.0" ry="6.0" x="311.52" y="557.9986919423391" width="64.13" height="60.0" class="key"/>
<rect rx="6.0" ry="6.0" x="628.48" y="557.9986919423391" width="64.13" height="60.0" class="key"/>
<rect rx="6.0" ry="6.0" x="702.6100000000001" y="548.1986919423391" width="64.13" height="60.0" class="key"/>
<text x="734.6750000000001" y="578.1986919423391" class="tap">7</text>
<rect rx="6.0" ry="6.0" x="776.74" y="520.9686919423391" width="64.13" height="60.0" class="key"/>
<text x="808.8050000000001" y="550.9686919423391" class="tap">8</text>
<rect rx="6.0" ry="6.0" x="850.8700000000001" y="545.6786919423391" width="64.13" height="60.0" class="key"/>
<text x="882.9350000000001" y="575.6786919423391" class="tap">9</text>
<rect rx="6.0" ry="6.0" x="925.0" y="595.0986919423391" width="64.13" height="60.0" class="key"/>
<rect rx="6.0" ry="6.0" x="15.0" y="665.0986919423391" width="64.13" height="60.0" class="key"/>
<rect rx="6.0" ry="6.0" x="89.13" y="615.6786919423391" width="64.13" height="60.0" class="key"/>
<use href="#arrow_left" xlink:href="#arrow_left" x="115.53292715026264" y="639.6786919423391" height="12" width="11.32414569947472" class="tap glyph arrow_left"/>
<rect rx="6.0" ry="6.0" x="163.26" y="590.9686919423391" width="64.13" height="60.0" class="key"/>
<use href="#arrow_down" xlink:href="#arrow_down" x="189.02797818893262" y="614.9686919423391" height="12" width="12.59404362213473" class="tap glyph arrow_down"/>
<rect rx="6.0" ry="6.0" x="237.39" y="618.1986919423391" width="64.13" height="60.0" class="key"/>
<use href="#arrow_right" xlink:href="#arrow_right" x="263.79292715026264" y="642.1986919423391" height="12" width="11.32414569947472" class="tap glyph arrow_right"/>
<rect rx="6.0" ry="6.0" x="311.52" y="627.9986919423391" width="64.13" height="60.0" class="key"/>
<rect rx="6.0" ry="6.0" x="628.48" y="627.9986919423391" width="64.13" height="60.0" class="key"/>
<text x="660.545" y="657.9986919423391" class="tap">0</text>
<rect rx="6.0" ry="6.0" x="702.6100000000001" y="618.1986919423391" width="64.13" height="60.0" class="key"/>
<text x="734.6750000000001" y="648.1986919423391" class="tap">4</text>
<use href="#shift" xlink:href="#shift" x="728.4474550898204" y="661.1986919423391" height="10" width="12.455089820359284" class="hold glyph shift"/>
<rect rx="6.0" ry="6.0" x="776.74" y="590.9686919423391" width="64.13" height="60.0" class="key"/>
<text x="808.8050000000001" y="620.9686919423391" class="tap">5</text>
<use href="#control" xlink:href="#control" x="800.3675000000001" y="633.9686919423391" height="10" width="16.875" class="hold glyph control"/>
<rect rx="6.0" ry="6.0" x="850.8700000000001" y="615.6786919423391" width="64.13" height="60.0" class="key"/>
<text x="882.9350000000001" y="645.6786919423391" class="tap">6</text>
<use href="#alt" xlink:href="#alt" x="877.3212275449102" y="658.6786919423391" height="10" width="11.227544910179642" class="hold glyph alt"/>
<rect rx="6.0" ry="6.0" x="925.0" y="665.0986919423391" width="64.13" height="60.0" class="key"/>
<use href="#meta" xlink:href="#meta" x="951.065" y="689.0986919423391" height="12" width="11.999999999999998" class="tap glyph meta"/>
<rect rx="6.0" ry="6.0" x="15.0" y="735.0986919423391" width="64.13" height="60.0" class="key"/>
<rect rx="6.0" ry="6.0" x="89.13" y="685.6786919423391" width="64.13" height="60.0" class="key"/>
<text x="121.195" y="715.6786919423391" class="tap">Home</text>
<rect rx="6.0" ry="6.0" x="163.26" y="660.9686919423391" width="64.13" height="60.0" class="key"/>
<rect rx="6.0" ry="6.0" x="237.39" y="688.268691942339" width="64.13" height="60.0" class="key"/>
<text x="269.455" y="718.268691942339" class="tap">End</text>
<rect rx="6.0" ry="6.0" x="311.52" y="697.9986919423391" width="64.13" height="60.0" class="key"/>
<rect rx="6.0" ry="6.0" x="628.48" y="697.9986919423391" width="64.13" height="60.0" class="key"/>
<rect rx="6.0" ry="6.0" x="702.6100000000001" y="688.268691942339" width="64.13" height="60.0" class="key"/>
<text x="734.6750000000001" y="718.268691942339" class="tap">1</text>
<rect rx="6.0" ry="6.0" x="776.74" y="660.9686919423391" width="64.13" height="60.0" class="key"/>
<text x="808.8050000000001" y="690.9686919423391" class="tap">2</text>
<rect rx="6.0" ry="6.0" x="850.8700000000001" y="685.6786919423391" width="64.13" height="60.0" class="key"/>
<text x="882.9350000000001" y="715.6786919423391" class="tap">3</text>
<rect rx="6.0" ry="6.0" x="925.0" y="735.0986919423391" width="64.13" height="60.0" class="key"/>
<rect rx="6.0" ry="6.0" x="213.03000000000003" y="770.4486919423391" width="64.13" height="60.0" class="key"/>
<use href="#backspace" xlink:href="#backspace" x="237.02942622950823" y="794.4486919423391" height="12" width="16.13114754098361" class="tap glyph backspace"/>
<use href="#delete" xlink:href="#delete" x="238.3736885245902" y="777.4486919423391" height="10" width="13.442622950819672" class="shifted glyph delete"/>
<g transform="rotate(15.0, 327.69619259607987, 811.0796332757604)">
<rect rx="6.0" ry="6.0" x="295.63119259607987" y="781.0796332757604" width="64.13" height="60.0" class="held key"/>
</g>
<g transform="rotate(30.0, 410.7419684303176, 823.3036919423391)">
<rect rx="6.0" ry="6.0" x="380.7419684303176" y="772.7236919423391" width="60.0" height="101.16000000000001" class="key"/>
<text x="410.7419684303176" y="823.3036919423391" class="tap">Tab</text>
</g>
<g transform="rotate(-30.0, 589.2580315696824, 823.3036919423391)">
<rect rx="6.0" ry="6.0" x="559.2580315696824" y="772.7236919423391" width="60.0" height="101.16000000000001" class="key"/>
<use href="#return" xlink:href="#return" x="579.7660315696825" y="817.3036919423391" height="12" width="18.984" class="tap glyph return"/>
</g>
<g transform="rotate(-15.0, 676.293081066494, 810.0107106194871)">
<rect rx="6.0" ry="6.0" x="644.228081066494" y="780.0107106194871" width="64.13" height="60.0" class="held key"/>
<text x="676.293081066494" y="810.0107106194871" class="held tap">‿</text>
</g>
<rect rx="6.0" ry="6.0" x="726.97" y="770.4486919423391" width="64.13" height="60.0" class="key"/>
<text x="759.035" y="800.4486919423391" class="tap">Esc</text>
</g>
<g class="layer-FN">
<text x="10.0" y="908.9373838846782" class="label">FN</text>
<rect rx="6.0" ry="6.0" x="15.0" y="1008.0673838846783" width="64.13" height="60.0" class="held key"/>
<use href="#bluetooth_clear" xlink:href="#bluetooth_clear" x="42.247692307692304" y="1032.0673838846783" height="12" width="9.634615384615383" class="held tap glyph bluetooth_clear"/>
<rect rx="6.0" ry="6.0" x="89.13" y="958.6473838846782" width="64.13" height="60.0" class="held key"/>
<use href="#led_off" xlink:href="#led_off" x="116.95771186440678" y="982.6473838846782" height="12" width="8.474576271186441" class="held tap glyph led_off"/>
<rect rx="6.0" ry="6.0" x="163.26" y="933.9373838846782" width="64.13" height="60.0" class="held key"/>
<use href="#led_on" xlink:href="#led_on" x="190.125" y="957.9373838846782" height="12" width="10.4" class="held tap glyph led_on"/>
<rect rx="6.0" ry="6.0" x="237.39" y="961.1673838846782" width="64.13" height="60.0" class="held key"/>
<use href="#send_keypresses_usb" xlink:href="#send_keypresses_usb" x="253.19255656108595" y="985.1673838846782" height="12" width="32.52488687782805" class="held tap glyph send_keypresses_usb"/>
<rect rx="6.0" ry="6.0" x="311.52" y="970.9673838846782" width="64.13" height="60.0" class="key"/>
<use href="#send_keypresses_bluetooth" xlink:href="#send_keypresses_bluetooth" x="326.5369230769231" y="994.9673838846782" height="12" width="34.09615384615385" class="tap glyph send_keypresses_bluetooth"/>
<rect rx="6.0" ry="6.0" x="628.48" y="970.9673838846782" width="64.13" height="60.0" class="key"/>
<rect rx="6.0" ry="6.0" x="702.6100000000001" y="961.1673838846782" width="64.13" height="60.0" class="key"/>
<rect rx="6.0" ry="6.0" x="776.74" y="933.9373838846782" width="64.13" height="60.0" class="key"/>
<rect rx="6.0" ry="6.0" x="850.8700000000001" y="958.6473838846782" width="64.13" height="60.0" class="key"/>
<rect rx="6.0" ry="6.0" x="925.0" y="1008.0673838846783" width="64.13" height="60.0" class="key"/>
<rect rx="6.0" ry="6.0" x="15.0" y="1078.0673838846783" width="64.13" height="60.0" class="key"/>
<use href="#bluetooth_5" xlink:href="#bluetooth_5" x="39.254903846153844" y="1102.0673838846783" height="12" width="15.620192307692308" class="tap glyph bluetooth_5"/>
<rect rx="6.0" ry="6.0" x="89.13" y="1028.6473838846782" width="64.13" height="60.0" class="key"/>
<use href="#bluetooth_4" xlink:href="#bluetooth_4" x="113.55798076923077" y="1052.6473838846782" height="12" width="15.274038461538462" class="tap glyph bluetooth_4"/>
<rect rx="6.0" ry="6.0" x="163.26" y="1003.9373838846782" width="64.13" height="60.0" class="key"/>
<use href="#bluetooth_3" xlink:href="#bluetooth_3" x="187.54375" y="1027.9373838846782" height="12" width="15.5625" class="tap glyph bluetooth_3"/>
<rect rx="6.0" ry="6.0" x="237.39" y="1031.1673838846782" width="64.13" height="60.0" class="key"/>
<use href="#bluetooth_2" xlink:href="#bluetooth_2" x="261.5655769230769" y="1055.1673838846782" height="12" width="15.778846153846153" class="tap glyph bluetooth_2"/>
<rect rx="6.0" ry="6.0" x="311.52" y="1040.9673838846782" width="64.13" height="60.0" class="key"/>
<use href="#bluetooth_1" xlink:href="#bluetooth_1" x="335.6018269230769" y="1064.9673838846782" height="12" width="15.966346153846153" class="tap glyph bluetooth_1"/>
<rect rx="6.0" ry="6.0" x="628.48" y="1040.9673838846782" width="64.13" height="60.0" class="key"/>
<rect rx="6.0" ry="6.0" x="702.6100000000001" y="1031.1673838846782" width="64.13" height="60.0" class="key"/>
<rect rx="6.0" ry="6.0" x="776.74" y="1003.9373838846782" width="64.13" height="60.0" class="key"/>
<rect rx="6.0" ry="6.0" x="850.8700000000001" y="1028.6473838846782" width="64.13" height="60.0" class="key"/>
<rect rx="6.0" ry="6.0" x="925.0" y="1078.0673838846783" width="64.13" height="60.0" class="key"/>
<rect rx="6.0" ry="6.0" x="15.0" y="1148.0673838846783" width="64.13" height="60.0" class="key"/>
<rect rx="6.0" ry="6.0" x="89.13" y="1098.6473838846782" width="64.13" height="60.0" class="key"/>
<rect rx="6.0" ry="6.0" x="163.26" y="1073.9373838846782" width="64.13" height="60.0" class="key"/>
<rect rx="6.0" ry="6.0" x="237.39" y="1101.2373838846781" width="64.13" height="60.0" class="key"/>
<rect rx="6.0" ry="6.0" x="311.52" y="1110.9673838846782" width="64.13" height="60.0" class="key"/>
<rect rx="6.0" ry="6.0" x="628.48" y="1110.9673838846782" width="64.13" height="60.0" class="key"/>
<rect rx="6.0" ry="6.0" x="702.6100000000001" y="1101.2373838846781" width="64.13" height="60.0" class="key"/>
<rect rx="6.0" ry="6.0" x="776.74" y="1073.9373838846782" width="64.13" height="60.0" class="key"/>
<rect rx="6.0" ry="6.0" x="850.8700000000001" y="1098.6473838846782" width="64.13" height="60.0" class="key"/>
<rect rx="6.0" ry="6.0" x="925.0" y="1148.0673838846783" width="64.13" height="60.0" class="key"/>
<rect rx="6.0" ry="6.0" x="213.03000000000003" y="1183.4173838846782" width="64.13" height="60.0" class="key"/>
<g transform="rotate(15.0, 327.69619259607987, 1224.0483252180995)">
<rect rx="6.0" ry="6.0" x="295.63119259607987" y="1194.0483252180995" width="64.13" height="60.0" class="key"/>
</g>
<g transform="rotate(30.0, 410.7419684303176, 1236.2723838846782)">
<rect rx="6.0" ry="6.0" x="380.7419684303176" y="1185.6923838846783" width="60.0" height="101.16000000000001" class="key"/>
</g>
<g transform="rotate(-30.0, 589.2580315696824, 1236.2723838846782)">
<rect rx="6.0" ry="6.0" x="559.2580315696824" y="1185.6923838846783" width="60.0" height="101.16000000000001" class="key"/>
</g>
<g transform="rotate(-15.0, 676.293081066494, 1222.9794025618262)">
<rect rx="6.0" ry="6.0" x="644.228081066494" y="1192.9794025618262" width="64.13" height="60.0" class="key"/>
</g>
<rect rx="6.0" ry="6.0" x="726.97" y="1183.4173838846782" width="64.13" height="60.0" class="key"/>
</g>
</svg>
