<svg width="840.0" height="406.27114317029975" viewBox="0 0 840.0 406.27114317029975" class="keymap" xmlns="http://www.w3.org/2000/svg" xmlns:xlink="http://www.w3.org/1999/xlink">
<defs>/* start glyphs */
<svg id="mdi:keyboard-tab">
<svg xmlns="http://www.w3.org/2000/svg" id="mdi-keyboard-tab" viewBox="0 0 24 24"><path d="M20,18H22V6H20M11.59,7.41L15.17,11H1V13H15.17L11.59,16.58L13,18L19,12L13,6L11.59,7.41Z" /></svg>
</svg>
<svg id="mdi:backspace-reverse-outline">
<svg xmlns="http://www.w3.org/2000/svg" id="mdi-backspace-reverse-outline" viewBox="0 0 24 24"><path d="M5,15.59L6.41,17L10,13.41L13.59,17L15,15.59L11.41,12L15,8.41L13.59,7L10,10.59L6.41,7L5,8.41L8.59,12L5,15.59M2,3A2,2 0 0,0 0,5V19A2,2 0 0,0 2,21H17C17.69,21 18.23,20.64 18.59,20.11L24,12L18.59,3.88C18.23,3.35 17.69,3 17,3H2M2,5H17L21.72,12L17,19H2V5Z" /></svg>
</svg>
<svg id="mdi:backspace-outline">
<svg xmlns="http://www.w3.org/2000/svg" id="mdi-backspace-outline" viewBox="0 0 24 24"><path d="M19,15.59L17.59,17L14,13.41L10.41,17L9,15.59L12.59,12L9,8.41L10.41,7L14,10.59L17.59,7L19,8.41L15.41,12L19,15.59M22,3A2,2 0 0,1 24,5V19A2,2 0 0,1 22,21H7C6.31,21 5.77,20.64 5.41,20.11L0,12L5.41,3.88C5.77,3.35 6.31,3 7,3H22M22,5H7L2.28,12L7,19H22V5Z" /></svg>
</svg>
<svg id="mdi:keyboard-space">
<svg xmlns="http://www.w3.org/2000/svg" id="mdi-keyboard-space" viewBox="0 0 24 24"><path d="M3 15H5V19H19V15H21V19C21 20.1 20.1 21 19 21H5C3.9 21 3 20.1 3 19V15Z" /></svg>
</svg>
<svg id="mdi:keyboard-return">
<svg xmlns="http://www.w3.org/2000/svg" id="mdi-keyboard-return" viewBox="0 0 24 24"><path d="M19,7V11H5.83L9.41,7.41L8,6L2,12L8,18L9.41,16.58L5.83,13H21V7H19Z" /></svg>
</svg>
</defs>/* end glyphs */
<style>/* inherit to force styles through use tags*/
svg path {
    fill: inherit;
}
/* font and background color specifications */
svg.keymap {
    font-family: SFMono-Regular,Consolas,Liberation Mono,Menlo,monospace;
    font-size: 14px;
    font-kerning: normal;
    text-rendering: optimizeLegibility;
    fill: #1F1F28;
}

/* default key styling */
rect.key {
    fill: #DCD7BA;
    stroke: #1F1F28;
    stroke-width: 0;
}

/* color accent for combo boxes */
rect.combo {
    fill: #7FB4CA;
}

/* color accent for held keys */
rect.held, rect.combo.held {
    fill: #76946A;
}

/* color accent for ghost (optional) keys */
rect.ghost, rect.combo.ghost {
    fill: #ddd;
}

text {
    text-anchor: middle;
    dominant-baseline: middle;
}

/* styling for layer labels */
text.label {
    font-weight: bold;
    text-anchor: start;
    stroke: #DCD7BA;
    stroke-width: 5;
    paint-order: stroke;
}

/* styling for combo tap, and key hold/shifted label text */
text.combo, text.hold, text.shifted {
    font-size: 11px;
}

text.hold {
    text-anchor: middle;
    dominant-baseline: auto;
}

text.shifted {
    text-anchor: middle;
    dominant-baseline: hanging;
}

/* styling for hold/shifted label text in combo box */
text.combo.hold, text.combo.shifted {
    font-size: 8px;
}

/* lighter symbol for transparent keys */
text.trans {
    fill: #7b7e81;
}

/* styling for combo dendrons */
path.combo {
    stroke-width: 1;
    stroke: gray;
    fill: none;
}

/* Start Tabler Icons Cleanup */
/* cannot use height/width with glyphs */
.icon-tabler > path {
    fill: inherit;
    stroke: inherit;
}
/* hide tabler's default box */
.icon-tabler > path[stroke="none"][fill="none"] {
    visibility: collapse;
}
/* End Tabler Icons Cleanup */
</style>
<g class="layer-default">
<text x="30.0" y="28.0" class="label">default</text>
<rect rx="6.0" ry="6.0" x="32.0" y="80.5" width="56.0" height="56.0" class="key"/>
<text x="60.0" y="108.5" class="tap">Q</text>
<rect rx="6.0" ry="6.0" x="92.0" y="65.5" width="56.0" height="56.0" class="key"/>
<text x="120.0" y="93.5" class="tap">W</text>
<rect rx="6.0" ry="6.0" x="152.0" y="58.0" width="56.0" height="56.0" class="key"/>
<text x="180.0" y="86.0" class="tap">F</text>
<rect rx="6.0" ry="6.0" x="212.0" y="65.5" width="56.0" height="56.0" class="key"/>
<text x="240.0" y="93.5" class="tap">P</text>
<rect rx="6.0" ry="6.0" x="272.0" y="73.0" width="56.0" height="56.0" class="key"/>
<text x="300.0" y="101.0" class="tap">B</text>
<rect rx="6.0" ry="6.0" x="512.0" y="73.0" width="56.0" height="56.0" class="key"/>
<text x="540.0" y="101.0" class="tap">J</text>
<rect rx="6.0" ry="6.0" x="572.0" y="65.5" width="56.0" height="56.0" class="key"/>
<text x="600.0" y="93.5" class="tap">L</text>
<rect rx="6.0" ry="6.0" x="632.0" y="58.0" width="56.0" height="56.0" class="key"/>
<text x="660.0" y="86.0" class="tap">U</text>
<rect rx="6.0" ry="6.0" x="692.0" y="65.5" width="56.0" height="56.0" class="key"/>
<text x="720.0" y="93.5" class="tap">Y</text>
<rect rx="6.0" ry="6.0" x="752.0" y="80.5" width="56.0" height="56.0" class="key"/>
<text x="780.0" y="108.5" class="tap">&#x27;</text>
<rect rx="6.0" ry="6.0" x="32.0" y="140.5" width="56.0" height="56.0" class="key"/>
<text x="60.0" y="168.5" class="tap">A</text>
<rect rx="6.0" ry="6.0" x="92.0" y="125.5" width="56.0" height="56.0" class="key"/>
<text x="120.0" y="153.5" class="tap">R</text>
<rect rx="6.0" ry="6.0" x="152.0" y="118.0" width="56.0" height="56.0" class="key"/>
<text x="180.0" y="146.0" class="tap">S</text>
<rect rx="6.0" ry="6.0" x="212.0" y="125.5" width="56.0" height="56.0" class="key"/>
<text x="240.0" y="153.5" class="tap">T</text>
<rect rx="6.0" ry="6.0" x="272.0" y="133.0" width="56.0" height="56.0" class="key"/>
<text x="300.0" y="161.0" class="tap">G</text>
<rect rx="6.0" ry="6.0" x="512.0" y="133.0" width="56.0" height="56.0" class="key"/>
<text x="540.0" y="161.0" class="tap">M</text>
<rect rx="6.0" ry="6.0" x="572.0" y="125.5" width="56.0" height="56.0" class="key"/>
<text x="600.0" y="153.5" class="tap">N</text>
<rect rx="6.0" ry="6.0" x="632.0" y="118.0" width="56.0" height="56.0" class="key"/>
<text x="660.0" y="146.0" class="tap">E</text>
<rect rx="6.0" ry="6.0" x="692.0" y="125.5" width="56.0" height="56.0" class="key"/>
<text x="720.0" y="153.5" class="tap">I</text>
<rect rx="6.0" ry="6.0" x="752.0" y="140.5" width="56.0" height="56.0" class="key"/>
<text x="780.0" y="168.5" class="tap">O</text>
<rect rx="6.0" ry="6.0" x="32.0" y="200.5" width="56.0" height="56.0" class="key"/>
<text x="60.0" y="228.5" class="tap">Z</text>
<rect rx="6.0" ry="6.0" x="92.0" y="185.5" width="56.0" height="56.0" class="key"/>
<text x="120.0" y="213.5" class="tap">X</text>
<rect rx="6.0" ry="6.0" x="152.0" y="178.0" width="56.0" height="56.0" class="key"/>
<text x="180.0" y="206.0" class="tap">C</text>
<rect rx="6.0" ry="6.0" x="212.0" y="185.5" width="56.0" height="56.0" class="key"/>
<text x="240.0" y="213.5" class="tap">D</text>
<rect rx="6.0" ry="6.0" x="272.0" y="193.0" width="56.0" height="56.0" class="key"/>
<text x="300.0" y="221.0" class="tap">V</text>
<rect rx="6.0" ry="6.0" x="512.0" y="193.0" width="56.0" height="56.0" class="key"/>
<text x="540.0" y="221.0" class="tap">K</text>
<rect rx="6.0" ry="6.0" x="572.0" y="185.5" width="56.0" height="56.0" class="key"/>
<text x="600.0" y="213.5" class="tap">H</text>
<rect rx="6.0" ry="6.0" x="632.0" y="178.0" width="56.0" height="56.0" class="key"/>
<text x="660.0" y="206.0" class="tap">,</text>
<rect rx="6.0" ry="6.0" x="692.0" y="185.5" width="56.0" height="56.0" class="key"/>
<text x="720.0" y="213.5" class="tap">.</text>
<rect rx="6.0" ry="6.0" x="752.0" y="200.5" width="56.0" height="56.0" class="key"/>
<text x="780.0" y="228.5" class="tap">/</text>
<rect rx="6.0" ry="6.0" x="182.0" y="247.48000000000002" width="56.0" height="56.0" class="key"/>
<use href="#mdi:backspace-reverse-outline" xlink:href="#mdi:backspace-reverse-outline" x="203.0" y="268.48" height="14" width="14.0" class="tap glyph mdi:backspace-reverse-outline"/>
<g transform="rotate(15.0, 276.0, 284.3)">
<rect rx="6.0" ry="6.0" x="248.0" y="256.3" width="56.0" height="56.0" class="key"/>
<use href="#mdi:backspace-outline" xlink:href="#mdi:backspace-outline" x="269.0" y="277.3" height="14" width="14.0" class="tap glyph mdi:backspace-outline"/>
</g>
<g transform="rotate(30.0, 346.2, 296.29999999999995)">
<rect rx="6.0" ry="6.0" x="318.2" y="253.29999999999995" width="56.0" height="86.0" class="key"/>
<use href="#mdi:keyboard-return" xlink:href="#mdi:keyboard-return" x="339.2" y="289.29999999999995" height="14" width="14.0" class="tap glyph mdi:keyboard-return"/>
</g>
<g transform="rotate(-30.0, 493.8, 296.29999999999995)">
<rect rx="6.0" ry="6.0" x="465.8" y="253.29999999999995" width="56.0" height="86.0" class="key"/>
<use href="#mdi:keyboard-tab" xlink:href="#mdi:keyboard-tab" x="486.8" y="289.29999999999995" height="14" width="14.0" class="tap glyph mdi:keyboard-tab"/>
</g>
<g transform="rotate(-15.0, 564.0, 284.3)">
<rect rx="6.0" ry="6.0" x="536.0" y="256.3" width="56.0" height="56.0" class="key"/>
<use href="#mdi:keyboard-space" xlink:href="#mdi:keyboard-space" x="557.0" y="277.3" height="14" width="14.0" class="tap glyph mdi:keyboard-space"/>
</g>
<rect rx="6.0" ry="6.0" x="602.0" y="247.48000000000002" width="56.0" height="56.0" class="key"/>
<text x="630.0" y="275.48" class="tap">ESC</text>
</g>
</svg>
