<svg width="959.7760000000001" height="452.99994691871007" viewBox="0 0 959.7760000000001 452.99994691871007" class="keymap" xmlns="http://www.w3.org/2000/svg" xmlns:xlink="http://www.w3.org/1999/xlink">
<defs>/* start glyphs */
<svg id="mdi:keyboard-space">
<svg xmlns="http://www.w3.org/2000/svg" id="mdi-keyboard-space" viewBox="0 0 24 24"><path d="M3 15H5V19H19V15H21V19C21 20.1 20.1 21 19 21H5C3.9 21 3 20.1 3 19V15Z" /></svg>
</svg>
<svg id="mdi:keyboard-return">
<svg xmlns="http://www.w3.org/2000/svg" id="mdi-keyboard-return" viewBox="0 0 24 24"><path d="M19,7V11H5.83L9.41,7.41L8,6L2,12L8,18L9.41,16.58L5.83,13H21V7H19Z" /></svg>
</svg>
<svg id="mdi:backspace-reverse-outline">
<svg xmlns="http://www.w3.org/2000/svg" id="mdi-backspace-reverse-outline" viewBox="0 0 24 24"><path d="M5,15.59L6.41,17L10,13.41L13.59,17L15,15.59L11.41,12L15,8.41L13.59,7L10,10.59L6.41,7L5,8.41L8.59,12L5,15.59M2,3A2,2 0 0,0 0,5V19A2,2 0 0,0 2,21H17C17.69,21 18.23,20.64 18.59,20.11L24,12L18.59,3.88C18.23,3.35 17.69,3 17,3H2M2,5H17L21.72,12L17,19H2V5Z" /></svg>
</svg>
<svg id="mdi:backspace-outline">
<svg xmlns="http://www.w3.org/2000/svg" id="mdi-backspace-outline" viewBox="0 0 24 24"><path d="M19,15.59L17.59,17L14,13.41L10.41,17L9,15.59L12.59,12L9,8.41L10.41,7L14,10.59L17.59,7L19,8.41L15.41,12L19,15.59M22,3A2,2 0 0,1 24,5V19A2,2 0 0,1 22,21H7C6.31,21 5.77,20.64 5.41,20.11L0,12L5.41,3.88C5.77,3.35 6.31,3 7,3H22M22,5H7L2.28,12L7,19H22V5Z" /></svg>
</svg>
</defs>/* end glyphs */
<style>svg {
    background-color: #181A1B;
}
/* inherit to force styles through use tags*/
svg path {
    fill: inherit;
}
/* font and background color specifications */
svg.keymap {
    font-family: JetBrainsMono NFM,SFMono-Regular,Consolas,Liberation Mono,Menlo,monospace;
    font-size: 14px;
    font-kerning: normal;
    font-weight: bold;
    text-rendering: optimizeLegibility;
    fill: #1F1F28;
}

/* default key styling */
rect.key {
    fill: #DCD7BA;
    stroke: #1F1F28;
    stroke-width: 0;
}

/* color accent for combo boxes */
rect.combo {
    fill: #7FB4CA;
}

/* color accent for held keys */
rect.held, rect.combo.held {
    fill: #76946A;
}

text {
    text-anchor: middle;
    dominant-baseline: middle;
}

/* styling for layer labels */
text.label {
    font-weight: bold;
    font-size: 24px;
    text-anchor: start;
    stroke: #938AA9;
    stroke-width: 4;
    paint-order: stroke;
}

/* styling for combo tap, and key hold/shifted label text */
text.combo, text.hold, text.shifted {
    font-size: 11px;
}

text.hold {
    text-anchor: middle;
    dominant-baseline: auto;
}

text.shifted {
    text-anchor: middle;
    dominant-baseline: hanging;
}

/* styling for hold/shifted label text in combo box */
text.combo.hold, text.combo.shifted {
    font-size: 8px;
}

/* styling for combo dendrons */
path.combo {
    stroke-width: 2;
    stroke: #7FB4CA;
    fill: none;
}

/* Start Tabler Icons Cleanup */
/* cannot use height/width with glyphs */
.icon-tabler > path {
    fill: inherit;
    stroke: inherit;
}
/* hide tabler's default box */
.icon-tabler > path[stroke="none"][fill="none"] {
    visibility: collapse;
}
/* End Tabler Icons Cleanup */
</style>
<g class="layer-default">
<text x="30.0" y="28.0" class="label">default</text>
<rect rx="6.0" ry="6.0" x="32.0" y="125.77600000000001" width="63.775999999999996" height="60.0" class="key"/>
<text x="63.888" y="155.776" class="tap">Q</text>
<rect rx="6.0" ry="6.0" x="99.77599999999998" y="80.592" width="63.775999999999996" height="60.0" class="key"/>
<text x="131.664" y="110.592" class="tap">W</text>
<rect rx="6.0" ry="6.0" x="167.552" y="58.0" width="63.775999999999996" height="60.0" class="key"/>
<text x="199.44" y="88.0" class="tap">F</text>
<rect rx="6.0" ry="6.0" x="235.328" y="82.896" width="63.775999999999996" height="60.0" class="key"/>
<text x="267.216" y="112.896" class="tap">P</text>
<rect rx="6.0" ry="6.0" x="303.104" y="91.856" width="63.775999999999996" height="60.0" class="key"/>
<text x="334.99199999999996" y="121.856" class="tap">B</text>
<rect rx="6.0" ry="6.0" x="592.896" y="91.856" width="63.775999999999996" height="60.0" class="key"/>
<text x="624.784" y="121.856" class="tap">J</text>
<rect rx="6.0" ry="6.0" x="660.672" y="82.896" width="63.775999999999996" height="60.0" class="key"/>
<text x="692.5600000000001" y="112.896" class="tap">L</text>
<rect rx="6.0" ry="6.0" x="728.448" y="58.0" width="63.775999999999996" height="60.0" class="key"/>
<text x="760.336" y="88.0" class="tap">U</text>
<rect rx="6.0" ry="6.0" x="796.224" y="80.592" width="63.775999999999996" height="60.0" class="key"/>
<text x="828.1120000000001" y="110.592" class="tap">Y</text>
<rect rx="6.0" ry="6.0" x="864.0" y="125.77600000000001" width="63.775999999999996" height="60.0" class="key"/>
<text x="895.888" y="155.776" class="tap">&#x27;</text>
<rect rx="6.0" ry="6.0" x="32.0" y="189.776" width="63.775999999999996" height="60.0" class="key"/>
<text x="63.888" y="219.776" class="tap">A</text>
<rect rx="6.0" ry="6.0" x="99.77599999999998" y="144.59199999999998" width="63.775999999999996" height="60.0" class="key"/>
<text x="131.664" y="174.59199999999998" class="tap">R</text>
<rect rx="6.0" ry="6.0" x="167.552" y="122.0" width="63.775999999999996" height="60.0" class="key"/>
<text x="199.44" y="152.0" class="tap">S</text>
<rect rx="6.0" ry="6.0" x="235.328" y="146.89600000000002" width="63.775999999999996" height="60.0" class="key"/>
<text x="267.216" y="176.89600000000002" class="tap">T</text>
<rect rx="6.0" ry="6.0" x="303.104" y="155.856" width="63.775999999999996" height="60.0" class="key"/>
<text x="334.99199999999996" y="185.856" class="tap">G</text>
<rect rx="6.0" ry="6.0" x="592.896" y="155.856" width="63.775999999999996" height="60.0" class="key"/>
<text x="624.784" y="185.856" class="tap">M</text>
<rect rx="6.0" ry="6.0" x="660.672" y="146.89600000000002" width="63.775999999999996" height="60.0" class="key"/>
<text x="692.5600000000001" y="176.89600000000002" class="tap">N</text>
<rect rx="6.0" ry="6.0" x="728.448" y="122.0" width="63.775999999999996" height="60.0" class="key"/>
<text x="760.336" y="152.0" class="tap">E</text>
<rect rx="6.0" ry="6.0" x="796.224" y="144.59199999999998" width="63.775999999999996" height="60.0" class="key"/>
<text x="828.1120000000001" y="174.59199999999998" class="tap">I</text>
<rect rx="6.0" ry="6.0" x="864.0" y="189.776" width="63.775999999999996" height="60.0" class="key"/>
<text x="895.888" y="219.776" class="tap">O</text>
<rect rx="6.0" ry="6.0" x="32.0" y="253.776" width="63.775999999999996" height="60.0" class="key"/>
<text x="63.888" y="283.776" class="tap">Z</text>
<rect rx="6.0" ry="6.0" x="99.77599999999998" y="208.592" width="63.775999999999996" height="60.0" class="key"/>
<text x="131.664" y="238.592" class="tap">X</text>
<rect rx="6.0" ry="6.0" x="167.552" y="186.0" width="63.775999999999996" height="60.0" class="key"/>
<text x="199.44" y="216.0" class="tap">C</text>
<rect rx="6.0" ry="6.0" x="235.328" y="210.96" width="63.775999999999996" height="60.0" class="key"/>
<text x="267.216" y="240.96" class="tap">D</text>
<rect rx="6.0" ry="6.0" x="303.104" y="219.856" width="63.775999999999996" height="60.0" class="key"/>
<text x="334.99199999999996" y="249.856" class="tap">V</text>
<rect rx="6.0" ry="6.0" x="592.896" y="219.856" width="63.775999999999996" height="60.0" class="key"/>
<text x="624.784" y="249.856" class="tap">K</text>
<rect rx="6.0" ry="6.0" x="660.672" y="210.96" width="63.775999999999996" height="60.0" class="key"/>
<text x="692.5600000000001" y="240.96" class="tap">H</text>
<rect rx="6.0" ry="6.0" x="728.448" y="186.0" width="63.775999999999996" height="60.0" class="key"/>
<text x="760.336" y="216.0" class="tap">,</text>
<rect rx="6.0" ry="6.0" x="796.224" y="208.592" width="63.775999999999996" height="60.0" class="key"/>
<text x="828.1120000000001" y="238.592" class="tap">.</text>
<rect rx="6.0" ry="6.0" x="864.0" y="253.776" width="63.775999999999996" height="60.0" class="key"/>
<text x="895.888" y="283.776" class="tap">/</text>
<rect rx="6.0" ry="6.0" x="213.056" y="286.096" width="63.775999999999996" height="60.0" class="key"/>
<use href="#mdi:backspace-reverse-outline" xlink:href="#mdi:backspace-reverse-outline" x="237.94400000000002" y="309.096" height="14" width="14.0" class="tap glyph mdi:backspace-reverse-outline"/>
<g transform="rotate(15.0, 320.4650903735587, 325.81571779055673)">
<rect rx="6.0" ry="6.0" x="288.57709037355875" y="295.81571779055673" width="63.775999999999996" height="60.0" class="key"/>
<use href="#mdi:backspace-outline" xlink:href="#mdi:backspace-outline" x="313.4650903735587" y="318.81571779055673" height="14" width="14.0" class="tap glyph mdi:backspace-outline"/>
</g>
<g transform="rotate(30.0, 396.3926568505761, 336.992)">
<rect rx="6.0" ry="6.0" x="366.3926568505761" y="288.17600000000004" width="60.0" height="97.632" class="key"/>
<use href="#mdi:keyboard-return" xlink:href="#mdi:keyboard-return" x="389.3926568505761" y="329.992" height="14" width="14.0" class="tap glyph mdi:keyboard-return"/>
</g>
<g transform="rotate(-30.0, 559.607343149424, 336.992)">
<rect rx="6.0" ry="6.0" x="529.607343149424" y="288.17600000000004" width="60.0" height="97.632" class="key"/>
<text x="559.607343149424" y="336.992" class="tap">⭾</text>
</g>
<g transform="rotate(-15.0, 639.1822455465087, 324.83841707624964)">
<rect rx="6.0" ry="6.0" x="607.2942455465087" y="294.83841707624964" width="63.775999999999996" height="60.0" class="key"/>
<use href="#mdi:keyboard-space" xlink:href="#mdi:keyboard-space" x="632.1822455465087" y="317.83841707624964" height="14" width="14.0" class="tap glyph mdi:keyboard-space"/>
</g>
<rect rx="6.0" ry="6.0" x="682.944" y="286.096" width="63.775999999999996" height="60.0" class="key"/>
<text x="714.832" y="316.096" class="tap">ESC</text>
</g>
</svg>
