<svg width="1044.13" height="1345.7060758270175" viewBox="0 0 1044.13 1345.7060758270175" class="keymap" xmlns="http://www.w3.org/2000/svg" xmlns:xlink="http://www.w3.org/1999/xlink">
<defs>/* start glyphs */
<svg id="alt">
<svg viewBox="0 0 19.5 17.368" xmlns="http://www.w3.org/2000/svg"><path d="M 0 2.184 L 0 0 L 6.604 0 L 14.274 15.184 L 19.5 15.184 L 19.5 17.368 L 12.844 17.368 L 5.226 2.184 L 0 2.184 Z M 11.934 2.184 L 11.934 0 L 19.5 0 L 19.5 2.184 L 11.934 2.184 Z"/></svg>
</svg>
<svg id="bluetooth_1">
<svg viewBox="0 0 28.782 21.632" xmlns="http://www.w3.org/2000/svg"><path d="M 9.1 10.816 L 13.728 6.136 L 7.54 0 L 6.5 0 L 6.5 8.164 L 1.508 3.25 L 0 4.784 L 6.032 10.816 L 0 16.848 L 1.508 18.382 L 6.5 13.416 L 6.5 21.632 L 7.54 21.632 L 13.728 15.496 L 9.1 10.816 Z M 28.782 20.176 L 16.978 20.176 L 16.978 17.836 L 22.048 17.836 L 22.048 3.51 L 16.952 7.306 L 16.952 4.394 L 21.268 1.196 L 24.622 1.196 L 24.622 17.836 L 28.782 17.836 L 28.782 20.176 Z M 8.632 13.416 L 10.66 15.496 L 8.632 17.524 L 8.632 13.416 Z M 8.632 8.164 L 8.632 4.108 L 10.66 6.136 L 8.632 8.164 Z"/></svg>
</svg>
<svg id="arrow_left">
<svg viewBox="0 0 82.101 87.001" xmlns="http://www.w3.org/2000/svg"><path d="M 82.1 40.001 L 82.1 47.001 Q 82.1 50.001 80.3 52.101 A 5.825 5.825 0 0 1 76.047 54.188 A 7.67 7.67 0 0 1 75.6 54.201 L 36.3 54.201 L 52.6 70.601 A 7.982 7.982 0 0 1 54.065 72.564 A 6.503 6.503 0 0 1 54.8 75.601 A 6.684 6.684 0 0 1 53.183 79.961 A 9.071 9.071 0 0 1 52.6 80.601 L 48.5 85.001 A 6.755 6.755 0 0 1 44.077 86.976 A 9.072 9.072 0 0 1 43.4 87.001 A 7.393 7.393 0 0 1 40.768 86.547 A 6.644 6.644 0 0 1 38.4 85.001 L 2 48.601 A 6.747 6.747 0 0 1 0.002 43.793 A 8.857 8.857 0 0 1 0 43.601 A 8.34 8.34 0 0 1 0.33 41.199 A 6.559 6.559 0 0 1 2 38.401 L 38.4 2.201 Q 40.5 0.001 43.4 0.001 A 6.766 6.766 0 0 1 48.366 2.063 A 8.398 8.398 0 0 1 48.5 2.201 L 52.6 6.201 Q 54.8 8.401 54.8 11.301 A 6.921 6.921 0 0 1 52.867 16.123 A 9.149 9.149 0 0 1 52.6 16.401 L 36.3 32.801 L 75.6 32.801 A 6.504 6.504 0 0 1 77.927 33.203 A 5.822 5.822 0 0 1 80.3 34.901 A 7.445 7.445 0 0 1 82.084 39.44 A 9.593 9.593 0 0 1 82.1 40.001 Z"/></svg>
</svg>
<svg id="led_off">
<svg viewBox="0 0 13 18.408" xmlns="http://www.w3.org/2000/svg"><path d="M 2.184 4.316 L 2.184 10.816 L 0 10.816 L 0 13 L 3.25 13 L 3.25 18.408 L 5.434 18.408 L 5.434 13 L 7.566 13 L 7.566 18.408 L 9.75 18.408 L 9.75 13 L 13 13 L 13 10.816 L 10.816 10.816 L 10.816 4.316 A 4.145 4.145 0 0 0 9.582 1.314 A 5.157 5.157 0 0 0 9.542 1.274 A 4.276 4.276 0 0 0 7.904 0.227 A 4.279 4.279 0 0 0 6.5 0 A 4.145 4.145 0 0 0 3.498 1.235 A 5.157 5.157 0 0 0 3.458 1.274 A 4.276 4.276 0 0 0 2.411 2.912 A 4.279 4.279 0 0 0 2.184 4.316 Z M 8.684 4.316 L 8.684 9.724 L 4.316 9.724 L 4.316 4.316 A 2.029 2.029 0 0 1 4.923 2.838 A 2.491 2.491 0 0 1 4.953 2.808 Q 5.59 2.184 6.5 2.184 A 2.19 2.19 0 0 1 7.473 2.399 A 2.192 2.192 0 0 1 8.047 2.808 A 2.065 2.065 0 0 1 8.593 3.684 A 2.142 2.142 0 0 1 8.684 4.316 Z"/></svg>
</svg>
<svg id="bluetooth_clear">
<svg viewBox="0 0 17.368 21.632" xmlns="http://www.w3.org/2000/svg"><path d="M 17.368 17.966 L 1.534 2.132 L 0 3.666 L 7.15 10.816 L 1.118 16.848 L 2.652 18.382 L 7.618 13.416 L 7.618 21.632 L 8.684 21.632 L 13.364 17.004 L 15.834 19.5 L 17.368 17.966 Z M 9.75 7.618 L 9.75 4.108 L 11.778 6.136 L 10.062 7.93 L 11.57 9.438 L 14.872 6.136 L 8.684 0 L 7.618 0 L 7.618 5.434 L 9.75 7.618 Z M 11.778 15.496 L 9.75 17.524 L 9.75 13.416 L 11.778 15.496 Z"/></svg>
</svg>
<svg id="arrow_up">
<svg viewBox="0 0 86.901 82.201" xmlns="http://www.w3.org/2000/svg"><path d="M 84.8 48.601 L 80.6 52.801 Q 78.5 54.801 75.6 54.801 Q 72.6 54.801 70.5 52.801 L 54.1 36.401 L 54.1 75.601 A 7.094 7.094 0 0 1 53.769 77.821 A 5.778 5.778 0 0 1 52.05 80.401 A 7.201 7.201 0 0 1 47.758 82.171 A 9.425 9.425 0 0 1 47 82.201 L 39.9 82.201 Q 36.9 82.201 34.8 80.401 A 5.899 5.899 0 0 1 32.716 76.108 A 8.15 8.15 0 0 1 32.7 75.601 L 32.7 36.401 L 16.3 52.801 Q 14.2 54.801 11.3 54.801 Q 8.4 54.801 6.3 52.801 L 2.1 48.601 A 7.88 7.88 0 0 1 0.629 46.484 A 6.759 6.759 0 0 1 0 43.601 Q 0 40.601 2.1 38.401 L 38.4 2.201 Q 40.5 0.001 43.4 0.001 A 6.766 6.766 0 0 1 48.366 2.063 A 8.398 8.398 0 0 1 48.5 2.201 L 84.8 38.401 Q 86.9 40.601 86.9 43.601 A 6.926 6.926 0 0 1 85.176 48.183 A 9.141 9.141 0 0 1 84.8 48.601 Z"/></svg>
</svg>
<svg id="control">
<svg viewBox="0 0 16.848 9.984" xmlns="http://www.w3.org/2000/svg"><path d="M 8.424 0 L 16.848 8.424 L 15.34 9.984 L 8.424 3.12 L 1.508 9.984 L 0 8.424 L 8.424 0 Z"/></svg>
</svg>
<svg id="send_keypresses_bluetooth">
<svg viewBox="0 0 61.464 21.632" xmlns="http://www.w3.org/2000/svg"><path d="M 19.5 0 A 2.025 2.025 0 0 1 20.309 0.162 A 2.199 2.199 0 0 1 20.995 0.637 A 2.653 2.653 0 0 1 21.015 0.657 A 2.042 2.042 0 0 1 21.632 2.132 L 21.632 10.816 Q 21.632 11.726 21.021 12.363 A 2.478 2.478 0 0 1 20.983 12.402 A 1.955 1.955 0 0 1 19.552 13 L 19.5 12.948 L 19.5 13 L 17.316 13 L 17.316 10.816 L 19.5 10.816 L 19.5 2.132 L 2.132 2.132 L 2.132 10.816 L 6.5 10.816 L 6.5 13 L 2.132 13 A 2.025 2.025 0 0 1 1.324 12.838 A 2.199 2.199 0 0 1 0.637 12.363 A 2.503 2.503 0 0 1 0.618 12.343 A 2.104 2.104 0 0 1 0 10.816 L 0 2.132 A 2.025 2.025 0 0 1 0.162 1.323 A 2.199 2.199 0 0 1 0.637 0.637 A 2.653 2.653 0 0 1 0.657 0.617 A 2.042 2.042 0 0 1 2.132 0 L 19.5 0 Z M 56.836 10.816 L 61.464 15.496 L 55.276 21.632 L 54.236 21.632 L 54.236 13.416 L 49.244 18.382 L 47.736 16.848 L 53.768 10.816 L 47.736 4.784 L 49.244 3.25 L 54.236 8.164 L 54.236 0 L 55.276 0 L 61.464 6.136 L 56.836 10.816 Z M 56.368 13.416 L 56.368 17.524 L 58.396 15.496 L 56.368 13.416 Z M 56.368 8.164 L 58.396 6.136 L 56.368 4.108 L 56.368 8.164 Z M 19.5 16.406 L 19.5 20.02 Q 19.448 20.67 18.993 21.151 A 1.487 1.487 0 0 1 17.915 21.631 A 1.864 1.864 0 0 1 17.862 21.632 L 11.882 21.632 Q 11.284 21.632 10.816 21.164 L 6.5 16.666 L 7.254 15.782 A 1.184 1.184 0 0 1 7.604 15.535 Q 7.81 15.442 8.047 15.442 A 1.242 1.242 0 0 1 8.112 15.444 L 8.32 15.444 L 10.816 17.316 L 10.816 7.566 A 1.098 1.098 0 0 1 10.883 7.177 A 0.975 0.975 0 0 1 11.141 6.799 Q 11.466 6.5 11.908 6.5 Q 12.35 6.5 12.675 6.799 A 0.987 0.987 0 0 1 13 7.519 A 1.312 1.312 0 0 1 13 7.566 L 13 12.402 L 14.274 12.532 L 18.59 14.924 Q 19.006 15.132 19.253 15.509 A 1.501 1.501 0 0 1 19.481 16.125 A 1.961 1.961 0 0 1 19.5 16.406 Z M 46.54 10.842 L 41.158 16.224 L 41.158 11.908 L 31.46 11.908 L 31.46 9.724 L 41.158 9.724 L 41.158 5.408 L 46.54 10.842 Z M 14.066 11.336 L 14.066 10.01 A 3.168 3.168 0 0 0 14.926 8.785 A 3.237 3.237 0 0 0 15.132 7.618 Q 15.132 6.188 14.196 5.252 A 3.107 3.107 0 0 0 11.95 4.316 A 3.88 3.88 0 0 0 11.908 4.316 Q 10.556 4.316 9.594 5.252 Q 8.632 6.188 8.632 7.618 Q 8.632 9.048 9.75 10.01 L 9.75 11.336 Q 8.736 10.79 8.151 9.789 A 4.317 4.317 0 0 1 7.566 7.604 A 5.085 5.085 0 0 1 7.566 7.566 A 4.145 4.145 0 0 1 8.801 4.564 A 5.157 5.157 0 0 1 8.84 4.524 A 4.276 4.276 0 0 1 10.479 3.477 A 4.279 4.279 0 0 1 11.882 3.25 A 4.208 4.208 0 0 1 14.936 4.485 A 5.015 5.015 0 0 1 14.976 4.524 A 4.276 4.276 0 0 1 16.024 6.162 A 4.279 4.279 0 0 1 16.25 7.566 A 4.392 4.392 0 0 1 15.974 9.136 A 4.123 4.123 0 0 1 15.665 9.776 Q 15.08 10.764 14.066 11.336 Z"/></svg>
</svg>
<svg id="led_on">
<svg viewBox="0 0 21.632 24.96" xmlns="http://www.w3.org/2000/svg"><path d="M 6.5 10.816 L 6.5 17.316 L 4.316 17.316 L 4.316 19.5 L 7.566 19.5 L 7.566 24.96 L 9.75 24.96 L 9.75 19.5 L 11.882 19.5 L 11.882 24.96 L 14.066 24.96 L 14.066 19.5 L 17.316 19.5 L 17.316 17.316 L 15.132 17.316 L 15.132 10.816 A 4.145 4.145 0 0 0 13.898 7.814 A 5.157 5.157 0 0 0 13.858 7.774 A 4.276 4.276 0 0 0 12.22 6.727 A 4.279 4.279 0 0 0 10.816 6.5 A 4.145 4.145 0 0 0 7.814 7.734 A 5.157 5.157 0 0 0 7.774 7.774 A 4.276 4.276 0 0 0 6.727 9.412 A 4.279 4.279 0 0 0 6.5 10.816 Z M 19.136 4.004 L 17.628 2.496 L 14.326 5.772 L 15.834 7.28 L 19.136 4.004 Z M 7.254 5.772 L 4.004 2.496 L 2.496 4.004 L 5.746 7.28 L 7.254 5.772 Z M 4.316 9.776 L 0 9.776 L 0 11.96 L 4.316 11.96 L 4.316 9.776 Z M 21.632 9.776 L 17.316 9.776 L 17.316 11.96 L 21.632 11.96 L 21.632 9.776 Z M 11.882 0 L 9.75 0 L 9.75 4.316 L 11.882 4.316 L 11.882 0 Z"/></svg>
</svg>
<svg id="bluetooth_3">
<svg viewBox="0 0 28.054 21.632" xmlns="http://www.w3.org/2000/svg"><path d="M 16.406 14.976 L 18.98 14.976 A 4.06 4.06 0 0 0 19.09 15.949 A 2.765 2.765 0 0 0 19.851 17.303 A 2.894 2.894 0 0 0 21.228 18.039 Q 21.684 18.147 22.222 18.148 A 5.263 5.263 0 0 0 22.23 18.148 A 4.208 4.208 0 0 0 23.248 18.032 A 2.94 2.94 0 0 0 24.596 17.303 A 2.785 2.785 0 0 0 25.398 15.82 A 4.12 4.12 0 0 0 25.48 14.976 L 25.48 13.65 A 4.075 4.075 0 0 0 25.363 12.644 A 2.863 2.863 0 0 0 24.609 11.297 A 2.889 2.889 0 0 0 23.151 10.52 A 4.283 4.283 0 0 0 22.23 10.426 L 20.098 10.426 L 20.098 8.268 L 24.674 3.51 L 16.978 3.51 L 16.978 1.196 L 27.56 1.196 L 27.56 3.536 L 23.036 8.216 A 6.708 6.708 0 0 1 24.727 8.578 A 4.996 4.996 0 0 1 26.702 9.867 A 4.909 4.909 0 0 1 27.947 12.405 A 6.945 6.945 0 0 1 28.054 13.65 L 28.054 14.976 A 6.522 6.522 0 0 1 27.837 16.703 A 4.752 4.752 0 0 1 26.481 18.967 A 5.265 5.265 0 0 1 24.082 20.227 Q 23.277 20.423 22.331 20.435 A 9.806 9.806 0 0 1 22.204 20.436 A 7.884 7.884 0 0 1 20.432 20.248 Q 19.106 19.943 18.158 19.139 A 4.967 4.967 0 0 1 17.966 18.967 A 4.86 4.86 0 0 1 16.504 16.176 A 7.018 7.018 0 0 1 16.406 14.976 Z M 9.1 10.816 L 13.728 6.136 L 7.54 0 L 6.5 0 L 6.5 8.164 L 1.508 3.25 L 0 4.784 L 6.032 10.816 L 0 16.848 L 1.508 18.382 L 6.5 13.416 L 6.5 21.632 L 7.54 21.632 L 13.728 15.496 L 9.1 10.816 Z M 8.632 13.416 L 10.66 15.496 L 8.632 17.524 L 8.632 13.416 Z M 8.632 8.164 L 8.632 4.108 L 10.66 6.136 L 8.632 8.164 Z"/></svg>
</svg>
<svg id="send_keypresses_usb">
<svg viewBox="0 0 62.296 22.984" xmlns="http://www.w3.org/2000/svg"><path d="M 62.296 6.5 L 62.296 10.868 L 61.23 10.868 L 61.23 13 A 2.148 2.148 0 0 1 61.1 13.753 A 2.211 2.211 0 0 1 60.593 14.534 A 2.521 2.521 0 0 1 60.563 14.564 A 2.081 2.081 0 0 1 59.046 15.184 L 55.796 15.184 L 55.796 18.46 Q 56.394 18.772 56.758 19.344 Q 57.122 19.916 57.122 20.592 A 2.371 2.371 0 0 1 57 21.361 A 2.341 2.341 0 0 1 56.407 22.282 A 2.99 2.99 0 0 1 56.402 22.287 A 2.316 2.316 0 0 1 54.73 22.984 A 2.313 2.313 0 0 1 53.856 22.819 A 2.458 2.458 0 0 1 53.053 22.282 A 2.822 2.822 0 0 1 53.026 22.254 A 2.278 2.278 0 0 1 52.338 20.592 Q 52.338 19.916 52.702 19.344 Q 53.066 18.772 53.664 18.46 L 53.664 15.184 L 50.414 15.184 A 2.521 2.521 0 0 1 50.372 15.184 A 2.081 2.081 0 0 1 48.867 14.534 A 2.776 2.776 0 0 1 48.865 14.531 A 2.119 2.119 0 0 1 48.23 13 L 48.23 10.764 Q 47.632 10.452 47.268 9.88 Q 46.904 9.308 46.904 8.684 A 2.965 2.965 0 0 1 46.905 8.603 A 2.245 2.245 0 0 1 47.619 6.968 Q 48.334 6.292 49.322 6.292 A 2.759 2.759 0 0 1 49.361 6.292 A 2.257 2.257 0 0 1 50.999 6.994 A 2.806 2.806 0 0 1 51.005 6.999 A 2.325 2.325 0 0 1 51.688 8.684 A 2.085 2.085 0 0 1 51.624 9.201 A 2.339 2.339 0 0 1 51.324 9.88 A 3.048 3.048 0 0 1 51.243 10.002 A 2.569 2.569 0 0 1 50.414 10.764 L 50.414 13 L 53.664 13 L 53.664 4.368 L 51.48 4.368 L 54.73 0 L 57.98 4.368 L 55.796 4.368 L 55.796 13 L 59.046 13 L 59.046 10.868 L 57.98 10.868 L 57.98 6.5 L 62.296 6.5 Z M 19.5 0.676 A 2.025 2.025 0 0 1 20.309 0.838 A 2.199 2.199 0 0 1 20.995 1.313 A 2.653 2.653 0 0 1 21.015 1.333 A 2.042 2.042 0 0 1 21.632 2.808 L 21.632 11.492 Q 21.632 12.402 21.021 13.039 A 2.478 2.478 0 0 1 20.983 13.078 A 1.955 1.955 0 0 1 19.552 13.676 L 19.5 13.624 L 19.5 13.676 L 17.316 13.676 L 17.316 11.492 L 19.5 11.492 L 19.5 2.808 L 2.132 2.808 L 2.132 11.492 L 6.5 11.492 L 6.5 13.676 L 2.132 13.676 A 2.025 2.025 0 0 1 1.324 13.514 A 2.199 2.199 0 0 1 0.637 13.039 A 2.503 2.503 0 0 1 0.618 13.019 A 2.104 2.104 0 0 1 0 11.492 L 0 2.808 A 2.025 2.025 0 0 1 0.162 1.999 A 2.199 2.199 0 0 1 0.637 1.313 A 2.653 2.653 0 0 1 0.657 1.293 A 2.042 2.042 0 0 1 2.132 0.676 L 19.5 0.676 Z M 19.5 17.082 L 19.5 20.696 Q 19.448 21.346 18.993 21.827 A 1.487 1.487 0 0 1 17.915 22.307 A 1.864 1.864 0 0 1 17.862 22.308 L 11.882 22.308 Q 11.284 22.308 10.816 21.84 L 6.5 17.342 L 7.254 16.458 A 1.184 1.184 0 0 1 7.604 16.211 Q 7.81 16.118 8.047 16.118 A 1.242 1.242 0 0 1 8.112 16.12 L 8.32 16.12 L 10.816 17.992 L 10.816 8.242 A 1.098 1.098 0 0 1 10.883 7.853 A 0.975 0.975 0 0 1 11.141 7.475 Q 11.466 7.176 11.908 7.176 Q 12.35 7.176 12.675 7.475 A 0.987 0.987 0 0 1 13 8.195 A 1.312 1.312 0 0 1 13 8.242 L 13 13.078 L 14.274 13.208 L 18.59 15.6 Q 19.006 15.808 19.253 16.185 A 1.501 1.501 0 0 1 19.481 16.801 A 1.961 1.961 0 0 1 19.5 17.082 Z M 46.54 11.518 L 41.158 16.9 L 41.158 12.584 L 31.46 12.584 L 31.46 10.4 L 41.158 10.4 L 41.158 6.084 L 46.54 11.518 Z M 14.066 12.012 L 14.066 10.686 A 3.168 3.168 0 0 0 14.926 9.46 A 3.237 3.237 0 0 0 15.132 8.294 Q 15.132 6.864 14.196 5.928 A 3.107 3.107 0 0 0 11.95 4.992 A 3.88 3.88 0 0 0 11.908 4.992 Q 10.556 4.992 9.594 5.928 Q 8.632 6.864 8.632 8.294 Q 8.632 9.724 9.75 10.686 L 9.75 12.012 Q 8.736 11.466 8.151 10.465 A 4.317 4.317 0 0 1 7.566 8.28 A 5.085 5.085 0 0 1 7.566 8.242 A 4.145 4.145 0 0 1 8.801 5.24 A 5.157 5.157 0 0 1 8.84 5.2 A 4.276 4.276 0 0 1 10.479 4.153 A 4.279 4.279 0 0 1 11.882 3.926 A 4.208 4.208 0 0 1 14.936 5.16 A 5.015 5.015 0 0 1 14.976 5.2 A 4.276 4.276 0 0 1 16.024 6.838 A 4.279 4.279 0 0 1 16.25 8.242 A 4.392 4.392 0 0 1 15.974 9.812 A 4.123 4.123 0 0 1 15.665 10.452 Q 15.08 11.44 14.066 12.012 Z"/></svg>
</svg>
<svg id="bluetooth_2">
<svg viewBox="0 0 28.444 21.632" xmlns="http://www.w3.org/2000/svg"><path d="M 28.444 20.176 L 16.822 20.176 L 16.822 17.81 L 23.27 10.998 A 14.777 14.777 0 0 0 24.044 10.13 Q 24.701 9.327 25.051 8.619 A 5.379 5.379 0 0 0 25.451 7.55 A 4.291 4.291 0 0 0 25.584 6.5 A 4.161 4.161 0 0 0 25.463 5.471 A 2.98 2.98 0 0 0 24.726 4.121 A 2.847 2.847 0 0 0 23.103 3.28 A 4.081 4.081 0 0 0 22.412 3.224 A 4.041 4.041 0 0 0 21.389 3.347 A 2.885 2.885 0 0 0 20.02 4.134 A 3.032 3.032 0 0 0 19.24 5.608 A 4.488 4.488 0 0 0 19.136 6.604 L 16.562 6.604 A 7.011 7.011 0 0 1 16.819 4.804 A 5.138 5.138 0 0 1 18.213 2.47 A 5.41 5.41 0 0 1 21.101 1.044 A 7.617 7.617 0 0 1 22.412 0.936 Q 25.064 0.936 26.637 2.444 A 5.02 5.02 0 0 1 28.132 5.401 A 7.112 7.112 0 0 1 28.21 6.474 A 5.847 5.847 0 0 1 27.953 8.152 A 7.894 7.894 0 0 1 27.482 9.347 A 9.019 9.019 0 0 1 26.793 10.51 Q 26.404 11.075 25.889 11.677 A 20.648 20.648 0 0 1 25.012 12.636 L 19.968 17.836 L 28.444 17.836 L 28.444 20.176 Z M 9.1 10.816 L 13.728 6.136 L 7.54 0 L 6.5 0 L 6.5 8.164 L 1.508 3.25 L 0 4.784 L 6.032 10.816 L 0 16.848 L 1.508 18.382 L 6.5 13.416 L 6.5 21.632 L 7.54 21.632 L 13.728 15.496 L 9.1 10.816 Z M 8.632 13.416 L 10.66 15.496 L 8.632 17.524 L 8.632 13.416 Z M 8.632 8.164 L 8.632 4.108 L 10.66 6.136 L 8.632 8.164 Z"/></svg>
</svg>
<svg id="arrow_down">
<svg viewBox="0 0 86.901 82.802" xmlns="http://www.w3.org/2000/svg"><path d="M 84.8 44.4 L 48.5 80.8 A 7.123 7.123 0 0 1 43.4 82.8 Q 40.5 82.8 38.4 80.8 L 2.1 44.4 A 7.88 7.88 0 0 1 0.629 42.283 A 6.759 6.759 0 0 1 0 39.4 Q 0 36.4 2.1 34.2 L 6.2 30.2 A 6.993 6.993 0 0 1 8.848 28.421 A 7.025 7.025 0 0 1 11.3 28 A 6.644 6.644 0 0 1 16.16 30.057 A 8.671 8.671 0 0 1 16.3 30.2 L 32.7 46.6 L 32.7 7.2 A 6.796 6.796 0 0 1 34.347 2.76 A 9.077 9.077 0 0 1 34.85 2.2 A 7.479 7.479 0 0 1 37.031 0.621 A 6.695 6.695 0 0 1 39.9 0 L 47 0 A 6.644 6.644 0 0 1 51.86 2.057 A 8.671 8.671 0 0 1 52 2.2 A 7.88 7.88 0 0 1 53.472 4.317 A 6.759 6.759 0 0 1 54.1 7.2 L 54.1 46.6 L 70.5 30.2 A 6.993 6.993 0 0 1 73.148 28.421 A 7.025 7.025 0 0 1 75.6 28 A 6.644 6.644 0 0 1 80.46 30.057 A 8.671 8.671 0 0 1 80.6 30.2 L 84.8 34.2 Q 86.9 36.4 86.9 39.4 A 6.926 6.926 0 0 1 85.176 43.982 A 9.141 9.141 0 0 1 84.8 44.4 Z"/></svg>
</svg>
<svg id="delete">
<svg viewBox="0 0 21.32 15.86" xmlns="http://www.w3.org/2000/svg"><path d="M 13.442 15.86 L 2.522 15.86 A 2.848 2.848 0 0 1 1.668 15.737 A 2.295 2.295 0 0 1 0.702 15.145 A 2.423 2.423 0 0 1 0.017 13.652 A 3.283 3.283 0 0 1 0 13.312 L 0 2.548 A 3.032 3.032 0 0 1 0.107 1.722 A 2.302 2.302 0 0 1 0.702 0.702 Q 1.404 0 2.522 0 L 13.338 0 L 21.32 8.06 L 13.442 15.86 Z M 6.084 7.904 L 1.976 11.96 L 3.848 13.806 L 7.878 9.776 L 11.83 13.754 L 13.624 11.986 L 9.646 8.008 L 13.702 3.952 L 11.83 2.106 L 7.826 6.136 L 3.796 2.106 L 2.054 3.848 L 6.084 7.904 Z"/></svg>
</svg>
<svg id="arrow_right">
<svg viewBox="0 0 82.101 87.001" xmlns="http://www.w3.org/2000/svg"><path d="M 80.1 48.601 L 43.8 85.001 A 6.755 6.755 0 0 1 39.377 86.976 A 9.072 9.072 0 0 1 38.7 87.001 A 7.853 7.853 0 0 1 36.2 86.618 A 6.583 6.583 0 0 1 33.6 85.001 L 29.5 80.801 Q 27.3 78.601 27.3 75.701 A 6.921 6.921 0 0 1 29.234 70.878 A 9.149 9.149 0 0 1 29.5 70.601 L 45.8 54.201 L 6.5 54.201 A 6.504 6.504 0 0 1 4.173 53.799 A 5.822 5.822 0 0 1 1.8 52.101 A 7.445 7.445 0 0 1 0.017 47.561 A 9.593 9.593 0 0 1 0 47.001 L 0 40.001 Q 0 37.001 1.8 34.901 A 5.825 5.825 0 0 1 6.054 32.814 A 7.67 7.67 0 0 1 6.5 32.801 L 45.8 32.801 L 29.5 16.401 A 7.982 7.982 0 0 1 28.036 14.438 A 6.503 6.503 0 0 1 27.3 11.401 A 6.684 6.684 0 0 1 28.918 7.04 A 9.071 9.071 0 0 1 29.5 6.401 L 33.6 2.201 A 6.993 6.993 0 0 1 36.248 0.422 A 7.025 7.025 0 0 1 38.7 0.001 A 6.766 6.766 0 0 1 43.666 2.063 A 8.398 8.398 0 0 1 43.8 2.201 L 80.1 38.401 A 6.735 6.735 0 0 1 82.03 42.443 A 9.255 9.255 0 0 1 82.1 43.601 A 7.393 7.393 0 0 1 81.646 46.233 A 6.644 6.644 0 0 1 80.1 48.601 Z"/></svg>
</svg>
<svg id="caps_word">
<svg viewBox="0 0 52.832 17.992" xmlns="http://www.w3.org/2000/svg"><path d="M 0 17.992 L 0 13.156 L 1.638 13.156 L 1.638 16.432 L 24.362 16.432 L 24.362 13.156 L 26 13.156 L 26 17.992 L 0 17.992 Z M 31.2 11.18 L 42.016 0.312 L 52.832 11.18 L 47.45 11.18 L 47.45 17.68 L 36.582 17.68 L 36.582 11.18 L 31.2 11.18 Z M 38.766 15.496 L 45.266 15.496 L 45.266 8.996 L 47.606 8.996 L 42.016 3.406 L 36.426 8.996 L 38.766 8.996 L 38.766 15.496 Z M 15.158 11.856 L 15.158 13.156 L 13.702 13.156 L 13.702 0 L 15.158 0 L 15.158 5.772 A 3.572 3.572 0 0 1 16.244 4.614 Q 17.092 4.056 18.278 4.056 A 4.14 4.14 0 0 1 19.422 4.205 A 3.016 3.016 0 0 1 20.969 5.226 A 3.932 3.932 0 0 1 21.673 6.598 Q 21.918 7.42 21.918 8.476 Q 21.918 10.764 20.839 12.09 A 3.484 3.484 0 0 1 18.288 13.403 A 4.715 4.715 0 0 1 17.94 13.416 Q 16.264 13.416 15.316 12.094 A 4.102 4.102 0 0 1 15.158 11.856 Z M 15.158 8.32 L 15.158 9.516 A 3.081 3.081 0 0 0 15.312 10.509 A 2.648 2.648 0 0 0 15.86 11.44 A 2.309 2.309 0 0 0 17.542 12.217 A 3.097 3.097 0 0 0 17.68 12.22 A 2.669 2.669 0 0 0 18.644 12.053 Q 19.271 11.812 19.707 11.225 A 2.994 2.994 0 0 0 19.721 11.206 A 3.46 3.46 0 0 0 20.228 10.164 Q 20.462 9.396 20.462 8.372 Q 20.462 7.261 20.054 6.514 A 2.591 2.591 0 0 0 19.76 6.084 A 2.299 2.299 0 0 0 18.152 5.266 A 3.248 3.248 0 0 0 17.849 5.252 A 2.674 2.674 0 0 0 16.881 5.421 A 2.392 2.392 0 0 0 15.899 6.136 A 3.15 3.15 0 0 0 15.186 7.828 A 4.17 4.17 0 0 0 15.158 8.32 Z M 11.102 7.332 L 11.102 13.156 L 9.698 13.156 L 9.698 11.752 L 9.62 11.752 A 3.369 3.369 0 0 1 8.926 12.691 Q 8.229 13.337 7.2 13.407 A 3.765 3.765 0 0 1 6.942 13.416 A 4.177 4.177 0 0 1 6.106 13.338 Q 5.609 13.236 5.227 13.003 A 2.242 2.242 0 0 1 4.823 12.688 A 2.446 2.446 0 0 1 4.094 11.096 A 3.307 3.307 0 0 1 4.082 10.816 Q 4.082 8.32 7.02 7.852 L 9.698 7.54 A 4.029 4.029 0 0 0 9.617 6.691 Q 9.305 5.252 7.8 5.252 A 4.438 4.438 0 0 0 5.083 6.181 A 5.566 5.566 0 0 0 4.94 6.292 L 4.94 4.836 A 5.45 5.45 0 0 1 7.031 4.119 A 7.024 7.024 0 0 1 7.982 4.056 Q 11.102 4.056 11.102 7.332 Z M 9.698 9.516 L 9.698 8.632 L 7.54 8.996 Q 6.5 9.1 6.019 9.438 A 0.992 0.992 0 0 0 5.678 9.877 Q 5.604 10.052 5.569 10.277 A 2.851 2.851 0 0 0 5.538 10.712 A 1.451 1.451 0 0 0 5.966 11.764 A 1.763 1.763 0 0 0 5.98 11.778 A 1.457 1.457 0 0 0 6.685 12.163 Q 6.922 12.22 7.202 12.22 A 2.691 2.691 0 0 0 8.054 12.091 A 2.227 2.227 0 0 0 9.009 11.466 A 2.59 2.59 0 0 0 9.649 10.12 A 3.61 3.61 0 0 0 9.698 9.516 Z"/></svg>
</svg>
<svg id="bluetooth_4">
<svg viewBox="0 0 27.534 21.632" xmlns="http://www.w3.org/2000/svg"><path d="M 9.1 10.816 L 13.728 6.136 L 7.54 0 L 6.5 0 L 6.5 8.164 L 1.508 3.25 L 0 4.784 L 6.032 10.816 L 0 16.848 L 1.508 18.382 L 6.5 13.416 L 6.5 21.632 L 7.54 21.632 L 13.728 15.496 L 9.1 10.816 Z M 27.534 20.176 L 24.96 20.176 L 24.96 16.12 L 16.406 16.12 L 16.406 12.194 L 23.348 1.196 L 26.26 1.196 L 18.954 12.792 L 18.954 13.806 L 24.96 13.806 L 24.96 9.256 L 27.534 9.256 L 27.534 20.176 Z M 8.632 13.416 L 10.66 15.496 L 8.632 17.524 L 8.632 13.416 Z M 8.632 8.164 L 8.632 4.108 L 10.66 6.136 L 8.632 8.164 Z"/></svg>
</svg>
<svg id="backspace">
<svg viewBox="0 0 21.32 15.86" xmlns="http://www.w3.org/2000/svg"><path d="M 18.798 15.86 L 7.878 15.86 L 0 8.06 L 7.982 0 L 18.798 0 A 3.022 3.022 0 0 1 19.607 0.103 A 2.25 2.25 0 0 1 20.631 0.702 A 2.367 2.367 0 0 1 21.28 2.02 A 3.323 3.323 0 0 1 21.32 2.548 L 21.32 13.312 A 2.963 2.963 0 0 1 21.199 14.18 A 2.367 2.367 0 0 1 20.631 15.145 A 2.296 2.296 0 0 1 19.277 15.826 A 3.231 3.231 0 0 1 18.798 15.86 Z M 17.472 13.806 L 19.344 11.96 L 15.236 7.904 L 19.266 3.848 L 17.524 2.106 L 13.494 6.136 L 9.49 2.106 L 7.618 3.952 L 11.674 8.008 L 7.696 11.986 L 9.49 13.754 L 13.442 9.776 L 17.472 13.806 Z"/></svg>
</svg>
<svg id="bluetooth_5">
<svg viewBox="0 0 28.158 21.632" xmlns="http://www.w3.org/2000/svg"><path d="M 16.536 14.976 L 19.11 14.976 A 4.06 4.06 0 0 0 19.22 15.949 A 2.765 2.765 0 0 0 19.981 17.303 A 2.913 2.913 0 0 0 21.427 18.057 A 4.285 4.285 0 0 0 22.334 18.148 A 4.272 4.272 0 0 0 23.333 18.038 A 2.882 2.882 0 0 0 24.713 17.29 Q 25.584 16.432 25.584 14.95 L 25.584 13.754 A 4.191 4.191 0 0 0 25.475 12.769 A 2.838 2.838 0 0 0 24.739 11.414 Q 23.894 10.556 22.438 10.556 L 17.186 10.556 L 17.186 1.196 L 27.482 1.196 L 27.482 3.536 L 19.578 3.536 L 19.63 8.242 L 22.568 8.242 A 7.823 7.823 0 0 1 24.234 8.409 Q 25.301 8.641 26.103 9.199 A 4.517 4.517 0 0 1 26.689 9.685 A 4.7 4.7 0 0 1 27.934 11.883 Q 28.158 12.728 28.158 13.754 L 28.158 14.95 Q 28.158 17.498 26.585 18.967 A 5.282 5.282 0 0 1 24.134 20.242 Q 23.307 20.436 22.334 20.436 A 7.884 7.884 0 0 1 20.562 20.248 Q 19.236 19.943 18.288 19.139 A 4.967 4.967 0 0 1 18.096 18.967 A 4.86 4.86 0 0 1 16.634 16.176 A 7.018 7.018 0 0 1 16.536 14.976 Z M 9.1 10.816 L 13.728 6.136 L 7.54 0 L 6.5 0 L 6.5 8.164 L 1.508 3.25 L 0 4.784 L 6.032 10.816 L 0 16.848 L 1.508 18.382 L 6.5 13.416 L 6.5 21.632 L 7.54 21.632 L 13.728 15.496 L 9.1 10.816 Z M 8.632 13.416 L 10.66 15.496 L 8.632 17.524 L 8.632 13.416 Z M 8.632 8.164 L 8.632 4.108 L 10.66 6.136 L 8.632 8.164 Z"/></svg>
</svg>
<svg id="shift">
<svg viewBox="0 0 21.632 17.368" xmlns="http://www.w3.org/2000/svg"><path d="M 0 10.868 L 10.816 0 L 21.632 10.868 L 16.25 10.868 L 16.25 17.368 L 5.382 17.368 L 5.382 10.868 L 0 10.868 Z M 7.566 15.184 L 14.066 15.184 L 14.066 8.684 L 16.406 8.684 L 10.816 3.094 L 5.226 8.684 L 7.566 8.684 L 7.566 15.184 Z"/></svg>
</svg>
<svg id="return">
<svg viewBox="0 0 20.566 13" xmlns="http://www.w3.org/2000/svg"><path d="M 20.566 1.066 L 20.566 7.566 L 4.108 7.566 L 8.034 11.466 L 6.5 13 L 0 6.5 L 6.5 0 L 8.034 1.534 L 4.108 5.434 L 18.382 5.434 L 18.382 1.066 L 20.566 1.066 Z"/></svg>
</svg>
<svg id="meta">
<svg viewBox="0 0 21.633 21.633" xmlns="http://www.w3.org/2000/svg"><path d="M 8.632 4.316 L 8.632 6.5 L 13 6.5 L 13 4.316 A 4.145 4.145 0 0 1 14.235 1.314 A 5.157 5.157 0 0 1 14.274 1.274 A 4.276 4.276 0 0 1 15.912 0.227 A 4.279 4.279 0 0 1 17.316 0 A 4.145 4.145 0 0 1 20.318 1.235 A 5.157 5.157 0 0 1 20.358 1.274 A 4.276 4.276 0 0 1 21.406 2.912 A 4.279 4.279 0 0 1 21.632 4.316 A 4.145 4.145 0 0 1 20.398 7.318 A 5.157 5.157 0 0 1 20.358 7.358 A 4.276 4.276 0 0 1 18.72 8.406 A 4.279 4.279 0 0 1 17.316 8.632 L 15.132 8.632 L 15.132 13 L 17.316 13 A 4.145 4.145 0 0 1 20.318 14.235 A 5.157 5.157 0 0 1 20.358 14.274 A 4.276 4.276 0 0 1 21.406 15.912 A 4.279 4.279 0 0 1 21.632 17.316 A 4.145 4.145 0 0 1 20.398 20.318 A 5.157 5.157 0 0 1 20.358 20.358 A 4.276 4.276 0 0 1 18.72 21.406 A 4.279 4.279 0 0 1 17.316 21.632 A 4.145 4.145 0 0 1 14.314 20.398 A 5.157 5.157 0 0 1 14.274 20.358 A 4.276 4.276 0 0 1 13.227 18.72 A 4.279 4.279 0 0 1 13 17.316 L 13 15.132 L 8.632 15.132 L 8.632 17.316 A 4.145 4.145 0 0 1 7.398 20.318 A 5.157 5.157 0 0 1 7.358 20.358 A 4.276 4.276 0 0 1 5.72 21.406 A 4.279 4.279 0 0 1 4.316 21.632 A 4.145 4.145 0 0 1 1.314 20.398 A 5.157 5.157 0 0 1 1.274 20.358 A 4.276 4.276 0 0 1 0.227 18.72 A 4.279 4.279 0 0 1 0 17.316 A 4.145 4.145 0 0 1 1.235 14.314 A 5.157 5.157 0 0 1 1.274 14.274 A 4.276 4.276 0 0 1 2.912 13.227 A 4.279 4.279 0 0 1 4.316 13 L 6.5 13 L 6.5 8.632 L 4.316 8.632 A 4.145 4.145 0 0 1 1.314 7.398 A 5.157 5.157 0 0 1 1.274 7.358 A 4.276 4.276 0 0 1 0.227 5.72 A 4.279 4.279 0 0 1 0 4.316 A 4.145 4.145 0 0 1 1.235 1.314 A 5.157 5.157 0 0 1 1.274 1.274 A 4.276 4.276 0 0 1 2.912 0.227 A 4.279 4.279 0 0 1 4.316 0 A 4.145 4.145 0 0 1 7.318 1.235 A 5.157 5.157 0 0 1 7.358 1.274 A 4.276 4.276 0 0 1 8.406 2.912 A 4.279 4.279 0 0 1 8.632 4.316 Z M 13 13 L 13 8.632 L 8.632 8.632 L 8.632 13 L 13 13 Z M 6.5 15.132 L 4.316 15.132 A 2.104 2.104 0 0 0 2.789 15.75 A 2.503 2.503 0 0 0 2.769 15.769 A 2.103 2.103 0 0 0 2.132 17.288 A 2.581 2.581 0 0 0 2.132 17.316 A 2.104 2.104 0 0 0 2.75 18.843 A 2.503 2.503 0 0 0 2.769 18.863 A 2.103 2.103 0 0 0 4.288 19.5 A 2.581 2.581 0 0 0 4.316 19.5 A 2.104 2.104 0 0 0 5.843 18.883 A 2.503 2.503 0 0 0 5.863 18.863 A 2.103 2.103 0 0 0 6.5 17.345 A 2.581 2.581 0 0 0 6.5 17.316 L 6.5 15.132 Z M 6.5 6.5 L 6.5 4.316 A 2.104 2.104 0 0 0 5.883 2.789 A 2.503 2.503 0 0 0 5.863 2.769 A 2.103 2.103 0 0 0 4.345 2.132 A 2.581 2.581 0 0 0 4.316 2.132 A 2.104 2.104 0 0 0 2.789 2.75 A 2.503 2.503 0 0 0 2.769 2.769 A 2.103 2.103 0 0 0 2.132 4.288 A 2.581 2.581 0 0 0 2.132 4.316 A 2.104 2.104 0 0 0 2.75 5.843 A 2.503 2.503 0 0 0 2.769 5.863 A 2.103 2.103 0 0 0 4.288 6.5 A 2.581 2.581 0 0 0 4.316 6.5 L 6.5 6.5 Z M 15.132 6.5 L 17.316 6.5 A 2.104 2.104 0 0 0 18.843 5.883 A 2.503 2.503 0 0 0 18.863 5.863 A 2.103 2.103 0 0 0 19.5 4.345 A 2.581 2.581 0 0 0 19.5 4.316 A 2.104 2.104 0 0 0 18.883 2.789 A 2.503 2.503 0 0 0 18.863 2.769 A 2.103 2.103 0 0 0 17.345 2.132 A 2.581 2.581 0 0 0 17.316 2.132 A 2.104 2.104 0 0 0 15.789 2.75 A 2.503 2.503 0 0 0 15.769 2.769 A 2.103 2.103 0 0 0 15.132 4.288 A 2.581 2.581 0 0 0 15.132 4.316 L 15.132 6.5 Z M 15.132 15.132 L 15.132 17.316 A 2.104 2.104 0 0 0 15.75 18.843 A 2.503 2.503 0 0 0 15.769 18.863 A 2.103 2.103 0 0 0 17.288 19.5 A 2.581 2.581 0 0 0 17.316 19.5 A 2.104 2.104 0 0 0 18.843 18.883 A 2.503 2.503 0 0 0 18.863 18.863 A 2.103 2.103 0 0 0 19.5 17.345 A 2.581 2.581 0 0 0 19.5 17.316 A 2.104 2.104 0 0 0 18.883 15.789 A 2.503 2.503 0 0 0 18.863 15.769 A 2.103 2.103 0 0 0 17.345 15.132 A 2.581 2.581 0 0 0 17.316 15.132 L 15.132 15.132 Z"/></svg>
</svg>
</defs>/* end glyphs */
<style>/* reusable color variables. palette taken from https://github.com/rebelot/kanagawa.nvim */
:root {
    --background-color: #1F1F28;
    --foreground-color: #E6C384;
    --held-color: #98BB6C;
    --shifted-color: #DCD7BA;
    --layer-color: #C34043;
    --combo-color: #938AA9;
    --keycap-color: #727169;

    fill: var(--foreground-color);
    background-color: var(--background-color);
    font-family: JetBrainsMono NFM,SFMono-Regular,Consolas,Liberation Mono,Menlo,monospace;
    font-size: 14px;
    font-weight: bold;
    text-anchor: middle;
    dominant-baseline: middle;
    font-weight: bold;
}

rect {
    fill: var(--background-color);
    stroke: var(--keycap-color);
    stroke-width: 2;
}

.label {
    font-size: 24px;
    text-anchor: start;
    fill: var(--layer-color);
    paint-order: stroke;
}

.shifted {
    font-size: 12px;
    text-anchor: middle;
    dominant-baseline: hanging;
    fill: var(--shifted-color);
}

.held, .hold {
    font-size: 12px;
    fill: var(--held-color);
    text-anchor: middle;
    dominant-baseline: auto;
}

path.combo {
    stroke-width: 2;
    stroke: var(--combo-color);
    fill: none;
}

rect.combo {
    stroke: var(--combo-color);
}
</style>
<g class="layer-BASE">
<text x="30.0" y="28.0" class="label">BASE</text>
<rect rx="6.0" ry="6.0" x="35.0" y="135.13" width="64.13" height="60.0" class="key"/>
<text x="67.065" y="165.13" class="tap">J</text>
<rect rx="6.0" ry="6.0" x="109.13" y="85.71000000000001" width="64.13" height="60.0" class="key"/>
<text x="141.195" y="115.71000000000001" class="tap">G</text>
<rect rx="6.0" ry="6.0" x="183.26" y="61.0" width="64.13" height="60.0" class="key"/>
<text x="215.325" y="91.0" class="tap">M</text>
<rect rx="6.0" ry="6.0" x="257.39" y="88.23" width="64.13" height="60.0" class="key"/>
<text x="289.455" y="118.23" class="tap">P</text>
<rect rx="6.0" ry="6.0" x="331.52" y="98.03" width="64.13" height="60.0" class="key"/>
<text x="363.585" y="128.03" class="tap">V</text>
<rect rx="6.0" ry="6.0" x="648.48" y="98.03" width="64.13" height="60.0" class="key"/>
<text x="680.545" y="128.03" class="tap">;</text>
<text x="680.545" y="105.03" class="shifted">:</text>
<rect rx="6.0" ry="6.0" x="722.6100000000001" y="88.23" width="64.13" height="60.0" class="key"/>
<text x="754.6750000000001" y="118.23" class="tap">.</text>
<text x="754.6750000000001" y="95.23" class="shifted">&amp;</text>
<rect rx="6.0" ry="6.0" x="796.74" y="61.0" width="64.13" height="60.0" class="key"/>
<text x="828.8050000000001" y="91.0" class="tap">/</text>
<text x="828.8050000000001" y="68.0" class="shifted">*</text>
<rect rx="6.0" ry="6.0" x="870.8700000000001" y="85.71000000000001" width="64.13" height="60.0" class="key"/>
<text x="902.9350000000001" y="115.71000000000001" class="tap">&quot;</text>
<text x="902.9350000000001" y="138.71" class="hold">&quot;⌄&quot;</text>
<text x="902.9350000000001" y="92.71000000000001" class="shifted">?</text>
<rect rx="6.0" ry="6.0" x="945.0" y="135.13" width="64.13" height="60.0" class="key"/>
<text x="977.065" y="165.13" class="tap">&#x27;</text>
<text x="977.065" y="188.13" class="hold">&#x27;⌄&#x27;</text>
<text x="977.065" y="142.13" class="shifted">!</text>
<rect rx="6.0" ry="6.0" x="35.0" y="205.13000000000002" width="64.13" height="60.0" class="key"/>
<text x="67.065" y="235.13000000000002" class="tap">R</text>
<use href="#meta" xlink:href="#meta" x="62.065" y="248.13" height="10" width="10.0" class="hold glyph meta"/>
<rect rx="6.0" ry="6.0" x="109.13" y="155.71" width="64.13" height="60.0" class="key"/>
<text x="141.195" y="185.71" class="tap">S</text>
<use href="#alt" xlink:href="#alt" x="135.58122754491018" y="198.71" height="10" width="11.227544910179642" class="hold glyph alt"/>
<rect rx="6.0" ry="6.0" x="183.26" y="131.0" width="64.13" height="60.0" class="key"/>
<text x="215.325" y="161.0" class="tap">N</text>
<use href="#control" xlink:href="#control" x="206.8875" y="174.0" height="10" width="16.875" class="hold glyph control"/>
<rect rx="6.0" ry="6.0" x="257.39" y="158.23" width="64.13" height="60.0" class="key"/>
<text x="289.455" y="188.23" class="tap">D</text>
<use href="#shift" xlink:href="#shift" x="283.22745508982035" y="201.23" height="10" width="12.455089820359284" class="hold glyph shift"/>
<rect rx="6.0" ry="6.0" x="331.52" y="168.03" width="64.13" height="60.0" class="key"/>
<text x="363.585" y="198.03" class="tap">B</text>
<rect rx="6.0" ry="6.0" x="648.48" y="168.03" width="64.13" height="60.0" class="key"/>
<text x="680.545" y="198.03" class="tap">,</text>
<text x="680.545" y="175.03" class="shifted">|</text>
<rect rx="6.0" ry="6.0" x="722.6100000000001" y="158.23" width="64.13" height="60.0" class="key"/>
<text x="754.6750000000001" y="188.23" class="tap">A</text>
<use href="#shift" xlink:href="#shift" x="748.4474550898204" y="201.23" height="10" width="12.455089820359284" class="hold glyph shift"/>
<rect rx="6.0" ry="6.0" x="796.74" y="131.0" width="64.13" height="60.0" class="key"/>
<text x="828.8050000000001" y="161.0" class="tap">E</text>
<use href="#control" xlink:href="#control" x="820.3675000000001" y="174.0" height="10" width="16.875" class="hold glyph control"/>
<rect rx="6.0" ry="6.0" x="870.8700000000001" y="155.71" width="64.13" height="60.0" class="key"/>
<text x="902.9350000000001" y="185.71" class="tap">I</text>
<use href="#alt" xlink:href="#alt" x="897.3212275449102" y="198.71" height="10" width="11.227544910179642" class="hold glyph alt"/>
<rect rx="6.0" ry="6.0" x="945.0" y="205.13000000000002" width="64.13" height="60.0" class="key"/>
<text x="977.065" y="235.13000000000002" class="tap">H</text>
<use href="#meta" xlink:href="#meta" x="972.065" y="248.13" height="10" width="10.0" class="hold glyph meta"/>
<rect rx="6.0" ry="6.0" x="35.0" y="275.13" width="64.13" height="60.0" class="key"/>
<text x="67.065" y="305.13" class="tap">X</text>
<rect rx="6.0" ry="6.0" x="109.13" y="225.71" width="64.13" height="60.0" class="key"/>
<text x="141.195" y="255.71" class="tap">F</text>
<rect rx="6.0" ry="6.0" x="183.26" y="201.0" width="64.13" height="60.0" class="key"/>
<text x="215.325" y="231.0" class="tap">L</text>
<rect rx="6.0" ry="6.0" x="257.39" y="228.3" width="64.13" height="60.0" class="key"/>
<text x="289.455" y="258.3" class="tap">C</text>
<rect rx="6.0" ry="6.0" x="331.52" y="238.02999999999997" width="64.13" height="60.0" class="key"/>
<text x="363.585" y="268.03" class="tap">W</text>
<rect rx="6.0" ry="6.0" x="648.48" y="238.02999999999997" width="64.13" height="60.0" class="key"/>
<text x="680.545" y="268.03" class="tap">-</text>
<text x="680.545" y="245.02999999999997" class="shifted">+</text>
<rect rx="6.0" ry="6.0" x="722.6100000000001" y="228.3" width="64.13" height="60.0" class="key"/>
<text x="754.6750000000001" y="258.3" class="tap">U</text>
<rect rx="6.0" ry="6.0" x="796.74" y="201.0" width="64.13" height="60.0" class="key"/>
<text x="828.8050000000001" y="231.0" class="tap">O</text>
<rect rx="6.0" ry="6.0" x="870.8700000000001" y="225.71" width="64.13" height="60.0" class="key"/>
<text x="902.9350000000001" y="255.71" class="tap">Y</text>
<rect rx="6.0" ry="6.0" x="945.0" y="275.13" width="64.13" height="60.0" class="key"/>
<text x="977.065" y="305.13" class="tap">K</text>
<rect rx="6.0" ry="6.0" x="233.03000000000003" y="310.48" width="64.13" height="60.0" class="key"/>
<use href="#backspace" xlink:href="#backspace" x="257.0294262295082" y="334.48" height="12" width="16.13114754098361" class="tap glyph backspace"/>
<use href="#delete" xlink:href="#delete" x="258.3736885245902" y="317.48" height="10" width="13.442622950819672" class="shifted glyph delete"/>
<g transform="rotate(15.0, 347.69619259607987, 351.1109413334214)">
<rect rx="6.0" ry="6.0" x="315.63119259607987" y="321.1109413334214" width="64.13" height="60.0" class="key"/>
<text x="347.69619259607987" y="351.1109413334214" class="tap">T</text>
</g>
<g transform="rotate(30.0, 430.7419684303176, 363.33500000000004)">
<rect rx="6.0" ry="6.0" x="400.7419684303176" y="312.75500000000005" width="60.0" height="101.16000000000001" class="key"/>
<text x="430.7419684303176" y="363.33500000000004" class="tap">Tab</text>
<text x="430.7419684303176" y="406.915" class="hold">NAV</text>
</g>
<g transform="rotate(-30.0, 609.2580315696824, 363.33500000000004)">
<rect rx="6.0" ry="6.0" x="579.2580315696824" y="312.75500000000005" width="60.0" height="101.16000000000001" class="key"/>
<use href="#return" xlink:href="#return" x="599.7660315696825" y="357.33500000000004" height="12" width="18.984" class="tap glyph return"/>
</g>
<g transform="rotate(-15.0, 696.293081066494, 350.042018677148)">
<rect rx="6.0" ry="6.0" x="664.228081066494" y="320.042018677148" width="64.13" height="60.0" class="key"/>
<text x="696.293081066494" y="350.042018677148" class="tap">‿</text>
</g>
<rect rx="6.0" ry="6.0" x="746.97" y="310.48" width="64.13" height="60.0" class="key"/>
<text x="779.035" y="340.48" class="tap">Esc</text>
<text x="779.035" y="363.48" class="hold">SYS</text>
<rect rx="6.0" ry="6.0" x="84.13" y="180.42000000000002" width="40.0" height="60.0" class="combo"/>
<text x="104.13" y="210.42000000000002" class="combo tap">Z</text>
<rect rx="6.0" ry="6.0" x="84.13" y="250.42000000000002" width="40.0" height="60.0" class="combo"/>
<text x="104.13" y="280.42" class="combo tap">Q</text>
<path d="M141.195,342.63 h-64.13 a10.0,10.0 0 0 1 -10.0,-10.0 v-4.166666666666668" class="combo"/>
<path d="M141.195,342.63 l0.0,-72.91999999999999" class="combo"/>
<path d="M141.195,342.63 h64.13 a10.0,10.0 0 0 0 10.0,-10.0 v-78.29666666666667" class="combo"/>
<rect rx="6.0" ry="6.0" x="121.195" y="312.63" width="40.0" height="60.0" class="combo"/>
<text x="141.195" y="342.63" class="combo tap">Qu</text>
<rect rx="6.0" ry="6.0" x="232.39" y="144.615" width="40.0" height="60.0" class="combo"/>
<text x="252.39" y="174.615" class="combo tap">Th</text>
<rect rx="6.0" ry="6.0" x="232.39" y="214.65" width="40.0" height="60.0" class="combo"/>
<text x="252.39" y="244.65" class="combo tap">Ch</text>
<rect rx="6.0" ry="6.0" x="158.26" y="143.35500000000002" width="40.0" height="60.0" class="combo"/>
<text x="178.26" y="173.35500000000002" class="combo tap">Sh</text>
<rect rx="6.0" ry="6.0" x="158.26" y="213.35500000000002" width="40.0" height="60.0" class="combo"/>
<text x="178.26" y="243.35500000000002" class="combo tap">Wh</text>
<rect rx="6.0" ry="6.0" x="158.26" y="73.355" width="40.0" height="60.0" class="combo"/>
<text x="178.26" y="103.355" class="combo tap">Gh</text>
<rect rx="6.0" ry="6.0" x="232.39" y="74.61500000000001" width="40.0" height="60.0" class="combo"/>
<text x="252.39" y="104.61500000000001" class="combo tap">Ph</text>
<path d="M522.065,228.53 h-222.61000000000007 a10.0,10.0 0 0 1 -10.0,-10.0 v-6.966666666666679" class="combo"/>
<path d="M522.065,228.53 h222.61 a10.0,10.0 0 0 0 10.0,-10.0 v-6.966666666666679" class="combo"/>
<rect rx="6.0" ry="6.0" x="502.06500000000005" y="198.53" width="40.0" height="60.0" class="combo"/>
<use href="#caps_word" xlink:href="#caps_word" x="504.44650289017346" y="222.53" height="12" width="35.23699421965318" class="combo tap glyph caps_word"/>
<rect rx="6.0" ry="6.0" x="771.74" y="144.615" width="40.0" height="60.0" class="combo"/>
<text x="791.74" y="174.615" class="combo tap">(</text>
<text x="791.74" y="197.615" class="combo hold">(⌄)</text>
<text x="791.74" y="151.615" class="combo shifted">)</text>
<rect rx="6.0" ry="6.0" x="771.74" y="214.65" width="40.0" height="60.0" class="combo"/>
<text x="791.74" y="244.65" class="combo tap">&lt;</text>
<text x="791.74" y="267.65" class="combo hold">&lt;⌄&gt;</text>
<text x="791.74" y="221.65" class="combo shifted">&gt;</text>
<rect rx="6.0" ry="6.0" x="845.8700000000001" y="143.35500000000002" width="40.0" height="60.0" class="combo"/>
<text x="865.8700000000001" y="173.35500000000002" class="combo tap">{</text>
<text x="865.8700000000001" y="196.35500000000002" class="combo hold">{⌄}</text>
<text x="865.8700000000001" y="150.35500000000002" class="combo shifted">}</text>
<rect rx="6.0" ry="6.0" x="845.8700000000001" y="213.35500000000002" width="40.0" height="60.0" class="combo"/>
<text x="865.8700000000001" y="243.35500000000002" class="combo tap">[</text>
<text x="865.8700000000001" y="266.355" class="combo hold">[⌄]</text>
<text x="865.8700000000001" y="220.35500000000002" class="combo shifted">]</text>
<rect rx="6.0" ry="6.0" x="920.0" y="110.42000000000002" width="40.0" height="60.0" class="combo"/>
<text x="940.0" y="140.42000000000002" class="combo tap">`</text>
<text x="940.0" y="163.42000000000002" class="combo hold">`⌄`</text>
<text x="940.0" y="117.42000000000002" class="combo shifted">~</text>
<rect rx="6.0" ry="6.0" x="845.8700000000001" y="73.355" width="40.0" height="60.0" class="combo"/>
<text x="865.8700000000001" y="103.355" class="combo tap">=</text>
<text x="865.8700000000001" y="80.355" class="combo shifted">%</text>
<rect rx="6.0" ry="6.0" x="771.74" y="74.61500000000001" width="40.0" height="60.0" class="combo"/>
<text x="791.74" y="104.61500000000001" class="combo tap">_</text>
<text x="791.74" y="81.61500000000001" class="combo shifted">\</text>
<rect rx="6.0" ry="6.0" x="920.0" y="180.42000000000002" width="40.0" height="60.0" class="combo"/>
<text x="940.0" y="210.42000000000002" class="combo tap">#</text>
<text x="940.0" y="187.42000000000002" class="combo shifted">@</text>
<rect rx="6.0" ry="6.0" x="920.0" y="250.42000000000002" width="40.0" height="60.0" class="combo"/>
<text x="940.0" y="280.42" class="combo tap">$</text>
<text x="940.0" y="257.42" class="combo shifted">^</text>
</g>
<g class="layer-NAV">
<text x="30.0" y="459.76869194233916" class="label">NAV</text>
<rect rx="6.0" ry="6.0" x="35.0" y="566.8986919423392" width="64.13" height="60.0" class="key"/>
<rect rx="6.0" ry="6.0" x="109.13" y="517.4786919423392" width="64.13" height="60.0" class="key"/>
<rect rx="6.0" ry="6.0" x="183.26" y="492.76869194233916" width="64.13" height="60.0" class="key"/>
<use href="#arrow_up" xlink:href="#arrow_up" x="208.98193848006713" y="516.7686919423392" height="12" width="12.686123039865695" class="tap glyph arrow_up"/>
<rect rx="6.0" ry="6.0" x="257.39" y="519.9986919423392" width="64.13" height="60.0" class="key"/>
<rect rx="6.0" ry="6.0" x="331.52" y="529.7986919423391" width="64.13" height="60.0" class="key"/>
<rect rx="6.0" ry="6.0" x="648.48" y="529.7986919423391" width="64.13" height="60.0" class="key"/>
<rect rx="6.0" ry="6.0" x="722.6100000000001" y="519.9986919423392" width="64.13" height="60.0" class="key"/>
<text x="754.6750000000001" y="549.9986919423392" class="tap">7</text>
<rect rx="6.0" ry="6.0" x="796.74" y="492.76869194233916" width="64.13" height="60.0" class="key"/>
<text x="828.8050000000001" y="522.7686919423392" class="tap">8</text>
<rect rx="6.0" ry="6.0" x="870.8700000000001" y="517.4786919423392" width="64.13" height="60.0" class="key"/>
<text x="902.9350000000001" y="547.4786919423392" class="tap">9</text>
<rect rx="6.0" ry="6.0" x="945.0" y="566.8986919423392" width="64.13" height="60.0" class="key"/>
<rect rx="6.0" ry="6.0" x="35.0" y="636.8986919423392" width="64.13" height="60.0" class="key"/>
<rect rx="6.0" ry="6.0" x="109.13" y="587.4786919423392" width="64.13" height="60.0" class="key"/>
<use href="#arrow_left" xlink:href="#arrow_left" x="135.53292715026262" y="611.4786919423392" height="12" width="11.32414569947472" class="tap glyph arrow_left"/>
<rect rx="6.0" ry="6.0" x="183.26" y="562.7686919423392" width="64.13" height="60.0" class="key"/>
<use href="#arrow_down" xlink:href="#arrow_down" x="209.02797818893262" y="586.7686919423392" height="12" width="12.59404362213473" class="tap glyph arrow_down"/>
<rect rx="6.0" ry="6.0" x="257.39" y="589.9986919423392" width="64.13" height="60.0" class="key"/>
<use href="#arrow_right" xlink:href="#arrow_right" x="283.79292715026264" y="613.9986919423392" height="12" width="11.32414569947472" class="tap glyph arrow_right"/>
<rect rx="6.0" ry="6.0" x="331.52" y="599.7986919423391" width="64.13" height="60.0" class="key"/>
<rect rx="6.0" ry="6.0" x="648.48" y="599.7986919423391" width="64.13" height="60.0" class="key"/>
<text x="680.545" y="629.7986919423391" class="tap">0</text>
<rect rx="6.0" ry="6.0" x="722.6100000000001" y="589.9986919423392" width="64.13" height="60.0" class="key"/>
<text x="754.6750000000001" y="619.9986919423392" class="tap">4</text>
<use href="#shift" xlink:href="#shift" x="748.4474550898204" y="632.9986919423392" height="10" width="12.455089820359284" class="hold glyph shift"/>
<rect rx="6.0" ry="6.0" x="796.74" y="562.7686919423392" width="64.13" height="60.0" class="key"/>
<text x="828.8050000000001" y="592.7686919423392" class="tap">5</text>
<use href="#control" xlink:href="#control" x="820.3675000000001" y="605.7686919423392" height="10" width="16.875" class="hold glyph control"/>
<rect rx="6.0" ry="6.0" x="870.8700000000001" y="587.4786919423392" width="64.13" height="60.0" class="key"/>
<text x="902.9350000000001" y="617.4786919423392" class="tap">6</text>
<use href="#alt" xlink:href="#alt" x="897.3212275449102" y="630.4786919423392" height="10" width="11.227544910179642" class="hold glyph alt"/>
<rect rx="6.0" ry="6.0" x="945.0" y="636.8986919423392" width="64.13" height="60.0" class="key"/>
<use href="#meta" xlink:href="#meta" x="971.065" y="660.8986919423392" height="12" width="11.999999999999998" class="tap glyph meta"/>
<rect rx="6.0" ry="6.0" x="35.0" y="706.8986919423392" width="64.13" height="60.0" class="key"/>
<rect rx="6.0" ry="6.0" x="109.13" y="657.4786919423392" width="64.13" height="60.0" class="key"/>
<rect rx="6.0" ry="6.0" x="183.26" y="632.7686919423392" width="64.13" height="60.0" class="key"/>
<rect rx="6.0" ry="6.0" x="257.39" y="660.0686919423392" width="64.13" height="60.0" class="key"/>
<rect rx="6.0" ry="6.0" x="331.52" y="669.7986919423391" width="64.13" height="60.0" class="key"/>
<rect rx="6.0" ry="6.0" x="648.48" y="669.7986919423391" width="64.13" height="60.0" class="key"/>
<rect rx="6.0" ry="6.0" x="722.6100000000001" y="660.0686919423392" width="64.13" height="60.0" class="key"/>
<text x="754.6750000000001" y="690.0686919423392" class="tap">1</text>
<rect rx="6.0" ry="6.0" x="796.74" y="632.7686919423392" width="64.13" height="60.0" class="key"/>
<text x="828.8050000000001" y="662.7686919423392" class="tap">2</text>
<rect rx="6.0" ry="6.0" x="870.8700000000001" y="657.4786919423392" width="64.13" height="60.0" class="key"/>
<text x="902.9350000000001" y="687.4786919423392" class="tap">3</text>
<rect rx="6.0" ry="6.0" x="945.0" y="706.8986919423392" width="64.13" height="60.0" class="key"/>
<rect rx="6.0" ry="6.0" x="233.03000000000003" y="742.2486919423392" width="64.13" height="60.0" class="key"/>
<g transform="rotate(15.0, 347.69619259607987, 782.8796332757606)">
<rect rx="6.0" ry="6.0" x="315.63119259607987" y="752.8796332757606" width="64.13" height="60.0" class="key"/>
</g>
<g transform="rotate(30.0, 430.7419684303176, 795.1036919423392)">
<rect rx="6.0" ry="6.0" x="400.7419684303176" y="744.5236919423392" width="60.0" height="101.16000000000001" class="held key"/>
</g>
<g transform="rotate(-30.0, 609.2580315696824, 795.1036919423392)">
<rect rx="6.0" ry="6.0" x="579.2580315696824" y="744.5236919423392" width="60.0" height="101.16000000000001" class="key"/>
</g>
<g transform="rotate(-15.0, 696.293081066494, 781.8107106194872)">
<rect rx="6.0" ry="6.0" x="664.228081066494" y="751.8107106194872" width="64.13" height="60.0" class="key"/>
</g>
<rect rx="6.0" ry="6.0" x="746.97" y="742.2486919423392" width="64.13" height="60.0" class="key"/>
</g>
<g class="layer-SYS">
<text x="30.0" y="888.7373838846784" class="label">SYS</text>
<rect rx="6.0" ry="6.0" x="35.0" y="995.8673838846785" width="64.13" height="60.0" class="key"/>
<use href="#bluetooth_clear" xlink:href="#bluetooth_clear" x="62.247692307692304" y="1019.8673838846785" height="12" width="9.634615384615383" class="tap glyph bluetooth_clear"/>
<rect rx="6.0" ry="6.0" x="109.13" y="946.4473838846784" width="64.13" height="60.0" class="key"/>
<use href="#led_off" xlink:href="#led_off" x="136.95771186440678" y="970.4473838846784" height="12" width="8.474576271186441" class="tap glyph led_off"/>
<rect rx="6.0" ry="6.0" x="183.26" y="921.7373838846784" width="64.13" height="60.0" class="key"/>
<use href="#led_on" xlink:href="#led_on" x="210.125" y="945.7373838846784" height="12" width="10.4" class="tap glyph led_on"/>
<rect rx="6.0" ry="6.0" x="257.39" y="948.9673838846784" width="64.13" height="60.0" class="key"/>
<use href="#send_keypresses_usb" xlink:href="#send_keypresses_usb" x="273.19255656108595" y="972.9673838846784" height="12" width="32.52488687782805" class="tap glyph send_keypresses_usb"/>
<rect rx="6.0" ry="6.0" x="331.52" y="958.7673838846783" width="64.13" height="60.0" class="key"/>
<use href="#send_keypresses_bluetooth" xlink:href="#send_keypresses_bluetooth" x="346.5369230769231" y="982.7673838846783" height="12" width="34.09615384615385" class="tap glyph send_keypresses_bluetooth"/>
<rect rx="6.0" ry="6.0" x="648.48" y="958.7673838846783" width="64.13" height="60.0" class="key"/>
<rect rx="6.0" ry="6.0" x="722.6100000000001" y="948.9673838846784" width="64.13" height="60.0" class="key"/>
<rect rx="6.0" ry="6.0" x="796.74" y="921.7373838846784" width="64.13" height="60.0" class="key"/>
<rect rx="6.0" ry="6.0" x="870.8700000000001" y="946.4473838846784" width="64.13" height="60.0" class="key"/>
<rect rx="6.0" ry="6.0" x="945.0" y="995.8673838846785" width="64.13" height="60.0" class="key"/>
<rect rx="6.0" ry="6.0" x="35.0" y="1065.8673838846785" width="64.13" height="60.0" class="key"/>
<use href="#bluetooth_5" xlink:href="#bluetooth_5" x="59.254903846153844" y="1089.8673838846785" height="12" width="15.620192307692308" class="tap glyph bluetooth_5"/>
<rect rx="6.0" ry="6.0" x="109.13" y="1016.4473838846784" width="64.13" height="60.0" class="key"/>
<use href="#bluetooth_4" xlink:href="#bluetooth_4" x="133.55798076923077" y="1040.4473838846784" height="12" width="15.274038461538462" class="tap glyph bluetooth_4"/>
<rect rx="6.0" ry="6.0" x="183.26" y="991.7373838846784" width="64.13" height="60.0" class="key"/>
<use href="#bluetooth_3" xlink:href="#bluetooth_3" x="207.54375" y="1015.7373838846784" height="12" width="15.5625" class="tap glyph bluetooth_3"/>
<rect rx="6.0" ry="6.0" x="257.39" y="1018.9673838846784" width="64.13" height="60.0" class="key"/>
<use href="#bluetooth_2" xlink:href="#bluetooth_2" x="281.5655769230769" y="1042.9673838846784" height="12" width="15.778846153846153" class="tap glyph bluetooth_2"/>
<rect rx="6.0" ry="6.0" x="331.52" y="1028.7673838846783" width="64.13" height="60.0" class="key"/>
<use href="#bluetooth_1" xlink:href="#bluetooth_1" x="355.6018269230769" y="1052.7673838846783" height="12" width="15.966346153846153" class="tap glyph bluetooth_1"/>
<rect rx="6.0" ry="6.0" x="648.48" y="1028.7673838846783" width="64.13" height="60.0" class="key"/>
<rect rx="6.0" ry="6.0" x="722.6100000000001" y="1018.9673838846784" width="64.13" height="60.0" class="key"/>
<rect rx="6.0" ry="6.0" x="796.74" y="991.7373838846784" width="64.13" height="60.0" class="key"/>
<rect rx="6.0" ry="6.0" x="870.8700000000001" y="1016.4473838846784" width="64.13" height="60.0" class="key"/>
<rect rx="6.0" ry="6.0" x="945.0" y="1065.8673838846785" width="64.13" height="60.0" class="key"/>
<rect rx="6.0" ry="6.0" x="35.0" y="1135.8673838846785" width="64.13" height="60.0" class="key"/>
<rect rx="6.0" ry="6.0" x="109.13" y="1086.4473838846784" width="64.13" height="60.0" class="key"/>
<rect rx="6.0" ry="6.0" x="183.26" y="1061.7373838846784" width="64.13" height="60.0" class="key"/>
<rect rx="6.0" ry="6.0" x="257.39" y="1089.0373838846783" width="64.13" height="60.0" class="key"/>
<rect rx="6.0" ry="6.0" x="331.52" y="1098.7673838846783" width="64.13" height="60.0" class="key"/>
<rect rx="6.0" ry="6.0" x="648.48" y="1098.7673838846783" width="64.13" height="60.0" class="key"/>
<rect rx="6.0" ry="6.0" x="722.6100000000001" y="1089.0373838846783" width="64.13" height="60.0" class="key"/>
<rect rx="6.0" ry="6.0" x="796.74" y="1061.7373838846784" width="64.13" height="60.0" class="key"/>
<rect rx="6.0" ry="6.0" x="870.8700000000001" y="1086.4473838846784" width="64.13" height="60.0" class="key"/>
<rect rx="6.0" ry="6.0" x="945.0" y="1135.8673838846785" width="64.13" height="60.0" class="key"/>
<rect rx="6.0" ry="6.0" x="233.03000000000003" y="1171.2173838846784" width="64.13" height="60.0" class="key"/>
<g transform="rotate(15.0, 347.69619259607987, 1211.8483252180997)">
<rect rx="6.0" ry="6.0" x="315.63119259607987" y="1181.8483252180997" width="64.13" height="60.0" class="key"/>
</g>
<g transform="rotate(30.0, 430.7419684303176, 1224.0723838846784)">
<rect rx="6.0" ry="6.0" x="400.7419684303176" y="1173.4923838846785" width="60.0" height="101.16000000000001" class="key"/>
</g>
<g transform="rotate(-30.0, 609.2580315696824, 1224.0723838846784)">
<rect rx="6.0" ry="6.0" x="579.2580315696824" y="1173.4923838846785" width="60.0" height="101.16000000000001" class="key"/>
</g>
<g transform="rotate(-15.0, 696.293081066494, 1210.7794025618264)">
<rect rx="6.0" ry="6.0" x="664.228081066494" y="1180.7794025618264" width="64.13" height="60.0" class="key"/>
</g>
<rect rx="6.0" ry="6.0" x="746.97" y="1171.2173838846784" width="64.13" height="60.0" class="held key"/>
</g>
</svg>
