<svg width="840.0" height="406.27114317029975" viewBox="0 0 840.0 406.27114317029975" class="keymap" xmlns="http://www.w3.org/2000/svg" xmlns:xlink="http://www.w3.org/1999/xlink">
<style>/* inherit to force styles through use tags*/
svg path {
    fill: inherit;
}
/* font and background color specifications */
svg.keymap {
    font-family: SFMono-Regular,Consolas,Liberation Mono,Menlo,monospace;
    font-size: 14px;
    font-kerning: normal;
    text-rendering: optimizeLegibility;
    fill: #1F1F28;
}

/* default key styling */
rect.key {
    fill: #DCD7BA;
    stroke: #1F1F28;
    stroke-width: 0;
}

/* color accent for combo boxes */
rect.combo {
    fill: #7FB4CA;
}

/* color accent for held keys */
rect.held, rect.combo.held {
    fill: #76946A;
}

/* color accent for ghost (optional) keys */
rect.ghost, rect.combo.ghost {
    fill: #ddd;
}

text {
    text-anchor: middle;
    dominant-baseline: middle;
}

/* styling for layer labels */
text.label {
    font-weight: bold;
    text-anchor: start;
    stroke: white;
    stroke-width: 2;
    paint-order: stroke;
}

/* styling for combo tap, and key hold/shifted label text */
text.combo, text.hold, text.shifted {
    font-size: 11px;
}

text.hold {
    text-anchor: middle;
    dominant-baseline: auto;
}

text.shifted {
    text-anchor: middle;
    dominant-baseline: hanging;
}

/* styling for hold/shifted label text in combo box */
text.combo.hold, text.combo.shifted {
    font-size: 8px;
}

/* lighter symbol for transparent keys */
text.trans {
    fill: #7b7e81;
}

/* styling for combo dendrons */
path.combo {
    stroke-width: 1;
    stroke: gray;
    fill: none;
}

/* Start Tabler Icons Cleanup */
/* cannot use height/width with glyphs */
.icon-tabler > path {
    fill: inherit;
    stroke: inherit;
}
/* hide tabler's default box */
.icon-tabler > path[stroke="none"][fill="none"] {
    visibility: collapse;
}
/* End Tabler Icons Cleanup */
</style>
<g class="layer-default">
<text x="30.0" y="28.0" class="label">default</text>
<rect rx="6.0" ry="6.0" x="32.0" y="80.5" width="56.0" height="56.0" class="key"/>
<text x="60.0" y="108.5" class="tap">Q</text>
<rect rx="6.0" ry="6.0" x="92.0" y="65.5" width="56.0" height="56.0" class="key"/>
<text x="120.0" y="93.5" class="tap">W</text>
<rect rx="6.0" ry="6.0" x="152.0" y="58.0" width="56.0" height="56.0" class="key"/>
<text x="180.0" y="86.0" class="tap">F</text>
<rect rx="6.0" ry="6.0" x="212.0" y="65.5" width="56.0" height="56.0" class="key"/>
<text x="240.0" y="93.5" class="tap">P</text>
<rect rx="6.0" ry="6.0" x="272.0" y="73.0" width="56.0" height="56.0" class="key"/>
<text x="300.0" y="101.0" class="tap">B</text>
<rect rx="6.0" ry="6.0" x="512.0" y="73.0" width="56.0" height="56.0" class="key"/>
<text x="540.0" y="101.0" class="tap">J</text>
<rect rx="6.0" ry="6.0" x="572.0" y="65.5" width="56.0" height="56.0" class="key"/>
<text x="600.0" y="93.5" class="tap">L</text>
<rect rx="6.0" ry="6.0" x="632.0" y="58.0" width="56.0" height="56.0" class="key"/>
<text x="660.0" y="86.0" class="tap">U</text>
<rect rx="6.0" ry="6.0" x="692.0" y="65.5" width="56.0" height="56.0" class="key"/>
<text x="720.0" y="93.5" class="tap">Y</text>
<rect rx="6.0" ry="6.0" x="752.0" y="80.5" width="56.0" height="56.0" class="key"/>
<text x="780.0" y="108.5" class="tap">&#x27;</text>
<rect rx="6.0" ry="6.0" x="32.0" y="140.5" width="56.0" height="56.0" class="key"/>
<text x="60.0" y="168.5" class="tap">A</text>
<rect rx="6.0" ry="6.0" x="92.0" y="125.5" width="56.0" height="56.0" class="key"/>
<text x="120.0" y="153.5" class="tap">R</text>
<rect rx="6.0" ry="6.0" x="152.0" y="118.0" width="56.0" height="56.0" class="key"/>
<text x="180.0" y="146.0" class="tap">S</text>
<rect rx="6.0" ry="6.0" x="212.0" y="125.5" width="56.0" height="56.0" class="key"/>
<text x="240.0" y="153.5" class="tap">T</text>
<rect rx="6.0" ry="6.0" x="272.0" y="133.0" width="56.0" height="56.0" class="key"/>
<text x="300.0" y="161.0" class="tap">G</text>
<rect rx="6.0" ry="6.0" x="512.0" y="133.0" width="56.0" height="56.0" class="key"/>
<text x="540.0" y="161.0" class="tap">M</text>
<rect rx="6.0" ry="6.0" x="572.0" y="125.5" width="56.0" height="56.0" class="key"/>
<text x="600.0" y="153.5" class="tap">N</text>
<rect rx="6.0" ry="6.0" x="632.0" y="118.0" width="56.0" height="56.0" class="key"/>
<text x="660.0" y="146.0" class="tap">E</text>
<rect rx="6.0" ry="6.0" x="692.0" y="125.5" width="56.0" height="56.0" class="key"/>
<text x="720.0" y="153.5" class="tap">I</text>
<rect rx="6.0" ry="6.0" x="752.0" y="140.5" width="56.0" height="56.0" class="key"/>
<text x="780.0" y="168.5" class="tap">O</text>
<rect rx="6.0" ry="6.0" x="32.0" y="200.5" width="56.0" height="56.0" class="key"/>
<text x="60.0" y="228.5" class="tap">Z</text>
<rect rx="6.0" ry="6.0" x="92.0" y="185.5" width="56.0" height="56.0" class="key"/>
<text x="120.0" y="213.5" class="tap">X</text>
<rect rx="6.0" ry="6.0" x="152.0" y="178.0" width="56.0" height="56.0" class="key"/>
<text x="180.0" y="206.0" class="tap">C</text>
<rect rx="6.0" ry="6.0" x="212.0" y="185.5" width="56.0" height="56.0" class="key"/>
<text x="240.0" y="213.5" class="tap">D</text>
<rect rx="6.0" ry="6.0" x="272.0" y="193.0" width="56.0" height="56.0" class="key"/>
<text x="300.0" y="221.0" class="tap">V</text>
<rect rx="6.0" ry="6.0" x="512.0" y="193.0" width="56.0" height="56.0" class="key"/>
<text x="540.0" y="221.0" class="tap">K</text>
<rect rx="6.0" ry="6.0" x="572.0" y="185.5" width="56.0" height="56.0" class="key"/>
<text x="600.0" y="213.5" class="tap">H</text>
<rect rx="6.0" ry="6.0" x="632.0" y="178.0" width="56.0" height="56.0" class="key"/>
<text x="660.0" y="206.0" class="tap">,</text>
<rect rx="6.0" ry="6.0" x="692.0" y="185.5" width="56.0" height="56.0" class="key"/>
<text x="720.0" y="213.5" class="tap">.</text>
<rect rx="6.0" ry="6.0" x="752.0" y="200.5" width="56.0" height="56.0" class="key"/>
<text x="780.0" y="228.5" class="tap">/</text>
<rect rx="6.0" ry="6.0" x="182.0" y="247.48000000000002" width="56.0" height="56.0" class="key"/>
<text x="210.0" y="275.48" class="tap">DEL</text>
<g transform="rotate(15.0, 276.0, 284.3)">
<rect rx="6.0" ry="6.0" x="248.0" y="256.3" width="56.0" height="56.0" class="key"/>
<text x="276.0" y="284.3" class="tap">BSPC</text>
</g>
<g transform="rotate(30.0, 346.2, 296.29999999999995)">
<rect rx="6.0" ry="6.0" x="318.2" y="253.29999999999995" width="56.0" height="86.0" class="key"/>
<text x="346.2" y="296.29999999999995" class="tap">RET</text>
</g>
<g transform="rotate(-30.0, 493.8, 296.29999999999995)">
<rect rx="6.0" ry="6.0" x="465.8" y="253.29999999999995" width="56.0" height="86.0" class="key"/>
<text x="493.8" y="296.29999999999995" class="tap">TAB</text>
</g>
<g transform="rotate(-15.0, 564.0, 284.3)">
<rect rx="6.0" ry="6.0" x="536.0" y="256.3" width="56.0" height="56.0" class="key"/>
<text x="564.0" y="284.3" class="tap">SPACE</text>
</g>
<rect rx="6.0" ry="6.0" x="602.0" y="247.48000000000002" width="56.0" height="56.0" class="key"/>
<text x="630.0" y="275.48" class="tap">ESC</text>
</g>
</svg>
